;TYPE=PLATED
;Layer: PTH_Through
;EasyEDA Pro v2.2.28.1, 2024-09-17 23:40:13
;Gerber Generator version 0.3
M48
METRIC,LZ,000.00000
;Hole size 1 = 0.30500 METRIC
T01C0.30500
;Hole size 2 = 0.77800 METRIC
T02C0.77800
;Hole size 3 = 0.91440 METRIC
T03C0.91440
;Hole size 4 = 1.00000 METRIC
T04C1.00000
;Hole size 5 = 1.02001 METRIC
T05C1.02001
;Hole size 6 = 1.03200 METRIC
T06C1.03200
;Hole size 7 = 1.10002 METRIC
T07C1.10002
;Hole size 8 = 1.20000 METRIC
T08C1.20000
;Hole size 9 = 3.20040 METRIC
T09C3.20040
%
G05
G90
T01
X32.512Y19.05
X38.354Y29.845
X51.943Y25.019
X35.814Y26.924
X38.85967Y10.795
X54.229Y27.432
X24.384Y13.843
X11.303Y16.637
X30.734Y20.955
X24.765Y14.986
X4.318Y28.702
X61.595Y29.083
X65.278Y26.924
X72.644Y26.924
X49.60522Y4.93846
X53.594Y6.731
X43.942Y31.496
X73.025Y29.337
X47.244Y23.495
X36.195Y24.003
X50.21446Y34.5474
X43.942Y32.893
X65.278Y11.684
X44.069Y5.969
X57.912Y6.096
X52.324Y6.35
X20.193Y12.954
X38.481Y18.796
X54.737Y18.796
X52.26972Y10.92599
X46.609Y10.541
X44.11322Y10.541
X67.056Y11.176
X38.27935Y21.28756
X52.451Y13.843
X57.531Y20.6084
X64.897Y12.446
X76.2Y20.701
X45.339Y17.526
X64.135Y17.526
X82.931Y17.526
X26.797Y10.287
X26.797Y14.224
X26.797Y16.51
X26.797Y21.209
X3.952Y5.39775
X13.731Y5.35875
T02
X20.36Y4.137G85X20.36Y3.737
X25.36Y4.137G85X25.36Y3.737
T03
X26.92249Y56.18701
X31.936Y55.80601
X31.9715Y57.79101
X35.921Y56.77501
T04
X44.831Y4.445
X42.291Y4.445
X5.75711Y22.11485
X3.21711Y22.11485
X5.75711Y19.57485
X3.21711Y19.57485
X5.75711Y17.03485
X3.21711Y17.03485
T05
X37.465Y12.446
X37.465Y14.986
X37.465Y17.526
X37.465Y20.066
X37.465Y22.606
X50.419Y9.652
X47.879Y9.652
X45.339Y9.652
X42.799Y9.652
X40.259Y9.652
X50.419Y25.4
X47.879Y25.4
X45.339Y25.4
X42.799Y25.4
X40.259Y25.4
X53.213Y12.446
X53.213Y14.986
X53.213Y17.526
X53.213Y20.066
X53.213Y22.606
X56.261Y12.446
X56.261Y14.986
X56.261Y17.526
X56.261Y20.066
X56.261Y22.606
X69.215Y9.652
X66.675Y9.652
X64.135Y9.652
X61.595Y9.652
X59.055Y9.652
X69.215Y25.4
X66.675Y25.4
X64.135Y25.4
X61.595Y25.4
X59.055Y25.4
X72.009Y12.446
X72.009Y14.986
X72.009Y17.526
X72.009Y20.066
X72.009Y22.606
X75.057Y12.446
X75.057Y14.986
X75.057Y17.526
X75.057Y20.066
X75.057Y22.606
X88.011Y9.652
X85.471Y9.652
X82.931Y9.652
X80.391Y9.652
X77.851Y9.652
X88.011Y25.4
X85.471Y25.4
X82.931Y25.4
X80.391Y25.4
X77.851Y25.4
X90.805Y12.446
X90.805Y14.986
X90.805Y17.526
X90.805Y20.066
X90.805Y22.606
X76.835Y30.48
X74.295Y30.48
X71.755Y30.48
X69.215Y30.48
X66.675Y30.48
X91.313Y54.15157
X91.313Y51.61157
X91.313Y49.07157
X91.313Y46.53157
X91.313Y43.99157
T06
X86.53812Y54.13618
X86.58425Y43.84918
X29.879Y14.66875
X29.879Y9.80375
T07
X12.954Y25.527
X12.954Y22.987
X12.954Y20.447
X12.954Y17.907
X24.892Y25.527
X24.892Y22.987
X24.892Y20.447
X24.892Y17.907
X55.10693Y4.39274
X57.64693Y4.39274
X60.18693Y4.39274
X62.72693Y4.39274
X36.1109Y42.61361
X33.5709Y42.61361
X31.0309Y42.61361
X28.4909Y42.61361
X25.9509Y42.61361
T08
X8.89312Y28.07731
X8.89312Y25.53731
X8.89312Y22.99731
X8.89312Y20.45731
X8.89312Y17.91731
X8.89312Y15.37731
X8.89312Y12.83731
X8.89312Y10.29731
X1.905Y42.926
X4.445Y42.926
X6.985Y42.926
X9.525Y42.926
X12.065Y42.926
X14.605Y42.926
X17.145Y42.926
X19.685Y42.926
X1.905Y54.102
X4.445Y54.102
X6.985Y54.102
X9.525Y54.102
X12.065Y54.102
X14.605Y54.102
X17.145Y54.102
X19.685Y54.102
T09
X13.9365Y35.0635
X87.9365Y35.0635
X13.9365Y13.0635
X87.9365Y5.0635
X55.9435Y53.4035
M30