;TYPE=PLATED
;Layer: PTH_Through_Via
;EasyEDA Pro v2.2.28.1, 2024-09-17 23:40:13
;Gerber Generator version 0.3
M48
METRIC,LZ,000.00000
;Hole size 1 = 0.30500 METRIC
T01C0.30500
%
G05
G90
T01
X32.512Y19.05
X38.354Y29.845
X51.943Y25.019
X35.814Y26.924
X38.85967Y10.795
X54.229Y27.432
X24.384Y13.843
X11.303Y16.637
X30.734Y20.955
X24.765Y14.986
X4.318Y28.702
X61.595Y29.083
X65.278Y26.924
X72.644Y26.924
X49.60522Y4.93846
X53.594Y6.731
X43.942Y31.496
X73.025Y29.337
X47.244Y23.495
X36.195Y24.003
X50.21446Y34.5474
X43.942Y32.893
X65.278Y11.684
X44.069Y5.969
X57.912Y6.096
X52.324Y6.35
X20.193Y12.954
X38.481Y18.796
X54.737Y18.796
X52.26972Y10.92599
X46.609Y10.541
X44.11322Y10.541
X67.056Y11.176
X38.27935Y21.28756
X52.451Y13.843
X57.531Y20.6084
X64.897Y12.446
X76.2Y20.701
X45.339Y17.526
X64.135Y17.526
X82.931Y17.526
X26.797Y10.287
X26.797Y14.224
X26.797Y16.51
X26.797Y21.209
X3.952Y5.39775
X13.731Y5.35875
M30