G04 Layer: TopPasteMaskLayer*
G04 EasyEDA Pro v2.2.28.1, 2024-09-17 23:40:12*
G04 Gerber Generator version 0.3*
G04 Scale: 100 percent, Rotated: No, Reflected: No*
G04 Dimensions in millimeters*
G04 Leading zeros omitted, absolute positions, 3 integers and 5 decimals*
%FSLAX35Y35*%
%MOMM*%
%AMPolygonMacro1*4,1,5,0.63967,0.762,-0.63967,0.762,-0.63033,-0.762,0.63967,-0.762,-0.12233,0.0,0.63967,0.762,0*%
%AMPolygonMacro2*4,1,5,0.0635,0.762,0.6985,0.762,0.6985,-0.762,0.0635,-0.762,-0.6985,0.0,0.0635,0.762,0*%
%AMPolygonMacro3*4,1,5,-0.762,0.63967,-0.762,-0.63967,0.762,-0.63033,0.762,0.63967,0.0,-0.12233,-0.762,0.63967,0*%
%AMPolygonMacro4*4,1,5,-0.762,0.0635,-0.762,0.6985,0.762,0.6985,0.762,0.0635,0.0,-0.6985,-0.762,0.0635,0*%
%AMPolygonMacro5*4,1,5,0.762,-0.63967,0.762,0.63967,-0.762,0.63033,-0.762,-0.63967,0.0,0.12233,0.762,-0.63967,0*%
%AMPolygonMacro6*4,1,5,0.762,-0.0635,0.762,-0.6985,-0.762,-0.6985,-0.762,-0.0635,0.0,0.6985,0.762,-0.0635,0*%
%ADD10R,0.4X0.55001*%
%ADD11R,0.55001X0.4*%
%ADD12R,1.25001X1.0*%
%ADD13R,0.7X1.2*%
%ADD14O,2.045X0.58801*%
%ADD15R,0.8067X0.8*%
%ADD16R,0.8X0.8*%
%ADD17R,2.3X1.4*%
%ADD18R,0.4X0.7*%
%ADD19R,0.4X0.7*%
%ADD20R,0.7X0.4*%
%ADD21R,0.5X0.93599*%
%ADD22R,0.7X0.4*%
%ADD23R,5.0X10.0*%
%ADD24R,0.6X1.07*%
%ADD25R,1.1938X1.8034*%
%ADD26R,0.3302X1.651*%
%ADD27R,1.36X0.91*%
%ADD28R,1.1938X1.8034*%
%ADD29R,0.3302X1.651*%
%ADD30R,0.91X1.36*%
%ADD31R,0.52451X1.06982*%
%ADD32PolygonMacro1*%
%ADD33PolygonMacro2*%
%ADD34PolygonMacro3*%
%ADD35PolygonMacro4*%
%ADD36PolygonMacro5*%
%ADD37PolygonMacro6*%
G75*


G04 PolygonModel Start*
G36*
G01X4950899Y3305302D02*
G01X5078898Y3305302D01*
G01X5083899Y3300301D01*
G01X5083899Y3185300D01*
G01X5078898Y3180301D01*
G01X5037894Y3179798D01*
G01X5037894Y3224799D01*
G01X4992896Y3224799D01*
G01X4992896Y3180799D01*
G01X4950899Y3180301D01*
G01X4945898Y3185300D01*
G01X4945898Y3300301D01*
G01X4950899Y3305302D01*
G37*
G36*
G01X4950899Y3090301D02*
G01X4992896Y3090299D01*
G01X4992896Y3045800D01*
G01X5037894Y3045800D01*
G01X5037894Y3089798D01*
G01X5078898Y3090301D01*
G01X5083899Y3085300D01*
G01X5083899Y2970301D01*
G01X5078898Y2965300D01*
G01X4950899Y2965300D01*
G01X4945898Y2970301D01*
G01X4945898Y3085300D01*
G01X4950899Y3090301D01*
G37*
G36*
G01X4826500Y3004998D02*
G01X4698502Y3004998D01*
G01X4693501Y3009999D01*
G01X4693501Y3125000D01*
G01X4698502Y3129999D01*
G01X4739505Y3130502D01*
G01X4739505Y3085501D01*
G01X4784504Y3085501D01*
G01X4784504Y3129501D01*
G01X4826500Y3129999D01*
G01X4831502Y3125000D01*
G01X4831502Y3009999D01*
G01X4826500Y3004998D01*
G37*
G36*
G01X4826500Y3219999D02*
G01X4784504Y3220001D01*
G01X4784504Y3264499D01*
G01X4739505Y3264499D01*
G01X4739505Y3220502D01*
G01X4698502Y3219999D01*
G01X4693501Y3225000D01*
G01X4693501Y3339998D01*
G01X4698502Y3345000D01*
G01X4826500Y3345000D01*
G01X4831502Y3339998D01*
G01X4831502Y3225000D01*
G01X4826500Y3219999D01*
G37*
G36*
G01X8110101Y4988759D02*
G01X8076641Y4988759D01*
G01X8066641Y4998759D01*
G01X8066641Y5029250D01*
G01X8056641Y5039250D01*
G01X8021559Y5039250D01*
G01X8011559Y5029250D01*
G01X8011559Y4998759D01*
G01X8001559Y4988759D01*
G01X7968099Y4988759D01*
G01X7958099Y4998759D01*
G01X7958099Y5127258D01*
G01X7968099Y5137258D01*
G01X8110101Y5137258D01*
G01X8120101Y5127258D01*
G01X8120101Y4998759D01*
G01X8110101Y4988759D01*
G37*
G36*
G01X8110101Y4838757D02*
G01X8076641Y4838757D01*
G01X8066641Y4828757D01*
G01X8066641Y4798267D01*
G01X8056641Y4788267D01*
G01X8021559Y4788267D01*
G01X8011559Y4798267D01*
G01X8011559Y4828757D01*
G01X8001559Y4838757D01*
G01X7968099Y4838757D01*
G01X7958099Y4828757D01*
G01X7958099Y4700259D01*
G01X7968099Y4690259D01*
G01X8110101Y4690259D01*
G01X8120101Y4700259D01*
G01X8120101Y4828757D01*
G01X8110101Y4838757D01*
G37*
G36*
G01X3936500Y3052902D02*
G01X4064498Y3052902D01*
G01X4069499Y3047901D01*
G01X4069499Y2932900D01*
G01X4064498Y2927901D01*
G01X4023495Y2927398D01*
G01X4023495Y2972399D01*
G01X3978496Y2972399D01*
G01X3978496Y2928399D01*
G01X3936500Y2927901D01*
G01X3931498Y2932900D01*
G01X3931498Y3047901D01*
G01X3936500Y3052902D01*
G37*
G36*
G01X3936500Y2837901D02*
G01X3978496Y2837899D01*
G01X3978496Y2793401D01*
G01X4023495Y2793401D01*
G01X4023495Y2837398D01*
G01X4064498Y2837901D01*
G01X4069499Y2832900D01*
G01X4069499Y2717902D01*
G01X4064498Y2712900D01*
G01X3936500Y2712900D01*
G01X3931498Y2717902D01*
G01X3931498Y2832900D01*
G01X3936500Y2837901D01*
G37*
G36*
G01X3233598Y2209300D02*
G01X3233598Y2337298D01*
G01X3238599Y2342299D01*
G01X3353600Y2342299D01*
G01X3358599Y2337298D01*
G01X3359102Y2296295D01*
G01X3314101Y2296295D01*
G01X3314101Y2251296D01*
G01X3358101Y2251296D01*
G01X3358599Y2209300D01*
G01X3353600Y2204298D01*
G01X3238599Y2204298D01*
G01X3233598Y2209300D01*
G37*
G36*
G01X3448599Y2209300D02*
G01X3448601Y2251296D01*
G01X3493099Y2251296D01*
G01X3493099Y2296295D01*
G01X3449102Y2296295D01*
G01X3448599Y2337298D01*
G01X3453600Y2342299D01*
G01X3568598Y2342299D01*
G01X3573600Y2337298D01*
G01X3573600Y2209300D01*
G01X3568598Y2204298D01*
G01X3453600Y2204298D01*
G01X3448599Y2209300D01*
G37*
G36*
G01X3233598Y1968000D02*
G01X3233598Y2095998D01*
G01X3238599Y2100999D01*
G01X3353600Y2100999D01*
G01X3358599Y2095998D01*
G01X3359102Y2054995D01*
G01X3314101Y2054995D01*
G01X3314101Y2009996D01*
G01X3358101Y2009996D01*
G01X3358599Y1968000D01*
G01X3353600Y1962998D01*
G01X3238599Y1962998D01*
G01X3233598Y1968000D01*
G37*
G36*
G01X3448599Y1968000D02*
G01X3448601Y2009996D01*
G01X3493099Y2009996D01*
G01X3493099Y2054995D01*
G01X3449102Y2054995D01*
G01X3448599Y2095998D01*
G01X3453600Y2100999D01*
G01X3568598Y2100999D01*
G01X3573600Y2095998D01*
G01X3573600Y1968000D01*
G01X3568598Y1962998D01*
G01X3453600Y1962998D01*
G01X3448599Y1968000D01*
G37*
G36*
G01X4839200Y464998D02*
G01X4711202Y464998D01*
G01X4706201Y469999D01*
G01X4706201Y585000D01*
G01X4711202Y589999D01*
G01X4752205Y590502D01*
G01X4752205Y545501D01*
G01X4797204Y545501D01*
G01X4797204Y589501D01*
G01X4839200Y589999D01*
G01X4844202Y585000D01*
G01X4844202Y469999D01*
G01X4839200Y464998D01*
G37*
G36*
G01X4839200Y679999D02*
G01X4797204Y680001D01*
G01X4797204Y724499D01*
G01X4752205Y724499D01*
G01X4752205Y680502D01*
G01X4711202Y679999D01*
G01X4706201Y685000D01*
G01X4706201Y799998D01*
G01X4711202Y805000D01*
G01X4839200Y805000D01*
G01X4844202Y799998D01*
G01X4844202Y685000D01*
G01X4839200Y679999D01*
G37*
G36*
G01X5379898Y2869700D02*
G01X5379898Y2997698D01*
G01X5384899Y3002699D01*
G01X5499900Y3002699D01*
G01X5504899Y2997698D01*
G01X5505402Y2956695D01*
G01X5460401Y2956695D01*
G01X5460401Y2911696D01*
G01X5504401Y2911696D01*
G01X5504899Y2869700D01*
G01X5499900Y2864698D01*
G01X5384899Y2864698D01*
G01X5379898Y2869700D01*
G37*
G36*
G01X5594899Y2869700D02*
G01X5594901Y2911696D01*
G01X5639399Y2911696D01*
G01X5639399Y2956695D01*
G01X5595402Y2956695D01*
G01X5594899Y2997698D01*
G01X5599900Y3002699D01*
G01X5714898Y3002699D01*
G01X5719900Y2997698D01*
G01X5719900Y2869700D01*
G01X5714898Y2864698D01*
G01X5599900Y2864698D01*
G01X5594899Y2869700D01*
G37*
G36*
G01X4602302Y775200D02*
G01X4602302Y647202D01*
G01X4597301Y642201D01*
G01X4482300Y642201D01*
G01X4477301Y647202D01*
G01X4476798Y688205D01*
G01X4521799Y688205D01*
G01X4521799Y733204D01*
G01X4477799Y733204D01*
G01X4477301Y775200D01*
G01X4482300Y780202D01*
G01X4597301Y780202D01*
G01X4602302Y775200D01*
G37*
G36*
G01X4387301Y775200D02*
G01X4387299Y733204D01*
G01X4342801Y733204D01*
G01X4342801Y688205D01*
G01X4386798Y688205D01*
G01X4387301Y647202D01*
G01X4382300Y642201D01*
G01X4267302Y642201D01*
G01X4262300Y647202D01*
G01X4262300Y775200D01*
G01X4267302Y780202D01*
G01X4382300Y780202D01*
G01X4387301Y775200D01*
G37*
G36*
G01X2679200Y2570302D02*
G01X2807198Y2570302D01*
G01X2812199Y2565301D01*
G01X2812199Y2450300D01*
G01X2807198Y2445301D01*
G01X2766195Y2444798D01*
G01X2766195Y2489799D01*
G01X2721196Y2489799D01*
G01X2721196Y2445799D01*
G01X2679200Y2445301D01*
G01X2674198Y2450300D01*
G01X2674198Y2565301D01*
G01X2679200Y2570302D01*
G37*
G36*
G01X2679200Y2355301D02*
G01X2721196Y2355299D01*
G01X2721196Y2310801D01*
G01X2766195Y2310801D01*
G01X2766195Y2354798D01*
G01X2807198Y2355301D01*
G01X2812199Y2350300D01*
G01X2812199Y2235302D01*
G01X2807198Y2230300D01*
G01X2679200Y2230300D01*
G01X2674198Y2235302D01*
G01X2674198Y2350300D01*
G01X2679200Y2355301D01*
G37*
G36*
G01X1747698Y2603000D02*
G01X1747698Y2730998D01*
G01X1752699Y2735999D01*
G01X1867700Y2735999D01*
G01X1872699Y2730998D01*
G01X1873202Y2689995D01*
G01X1828201Y2689995D01*
G01X1828201Y2644996D01*
G01X1872201Y2644996D01*
G01X1872699Y2603000D01*
G01X1867700Y2597998D01*
G01X1752699Y2597998D01*
G01X1747698Y2603000D01*
G37*
G36*
G01X1962699Y2603000D02*
G01X1962701Y2644996D01*
G01X2007199Y2644996D01*
G01X2007199Y2689995D01*
G01X1963202Y2689995D01*
G01X1962699Y2730998D01*
G01X1967700Y2735999D01*
G01X2082698Y2735999D01*
G01X2087700Y2730998D01*
G01X2087700Y2603000D01*
G01X2082698Y2597998D01*
G01X1967700Y2597998D01*
G01X1962699Y2603000D01*
G37*
G36*
G01X6357798Y659900D02*
G01X6357798Y787898D01*
G01X6362799Y792899D01*
G01X6477800Y792899D01*
G01X6482799Y787898D01*
G01X6483302Y746895D01*
G01X6438301Y746895D01*
G01X6438301Y701896D01*
G01X6482301Y701896D01*
G01X6482799Y659900D01*
G01X6477800Y654898D01*
G01X6362799Y654898D01*
G01X6357798Y659900D01*
G37*
G36*
G01X6572799Y659900D02*
G01X6572801Y701896D01*
G01X6617299Y701896D01*
G01X6617299Y746895D01*
G01X6573302Y746895D01*
G01X6572799Y787898D01*
G01X6577800Y792899D01*
G01X6692798Y792899D01*
G01X6697800Y787898D01*
G01X6697800Y659900D01*
G01X6692798Y654898D01*
G01X6577800Y654898D01*
G01X6572799Y659900D01*
G37*
G36*
G01X7091502Y787900D02*
G01X7091502Y659902D01*
G01X7086501Y654901D01*
G01X6971500Y654901D01*
G01X6966501Y659902D01*
G01X6965998Y700905D01*
G01X7010999Y700905D01*
G01X7010999Y745904D01*
G01X6966999Y745904D01*
G01X6966501Y787900D01*
G01X6971500Y792902D01*
G01X7086501Y792902D01*
G01X7091502Y787900D01*
G37*
G36*
G01X6876501Y787900D02*
G01X6876499Y745904D01*
G01X6832001Y745904D01*
G01X6832001Y700905D01*
G01X6875998Y700905D01*
G01X6876501Y659902D01*
G01X6871500Y654901D01*
G01X6756502Y654901D01*
G01X6751500Y659902D01*
G01X6751500Y787900D01*
G01X6756502Y792902D01*
G01X6871500Y792902D01*
G01X6876501Y787900D01*
G37*
G36*
G01X7193102Y508500D02*
G01X7193102Y380502D01*
G01X7188101Y375501D01*
G01X7073100Y375501D01*
G01X7068101Y380502D01*
G01X7067598Y421505D01*
G01X7112599Y421505D01*
G01X7112599Y466504D01*
G01X7068599Y466504D01*
G01X7068101Y508500D01*
G01X7073100Y513502D01*
G01X7188101Y513502D01*
G01X7193102Y508500D01*
G37*
G36*
G01X6978101Y508500D02*
G01X6978099Y466504D01*
G01X6933601Y466504D01*
G01X6933601Y421505D01*
G01X6977598Y421505D01*
G01X6978101Y380502D01*
G01X6973100Y375501D01*
G01X6858102Y375501D01*
G01X6853100Y380502D01*
G01X6853100Y508500D01*
G01X6858102Y513502D01*
G01X6973100Y513502D01*
G01X6978101Y508500D01*
G37*
G36*
G01X5758002Y254500D02*
G01X5758002Y126502D01*
G01X5753001Y121501D01*
G01X5638000Y121501D01*
G01X5633001Y126502D01*
G01X5632498Y167505D01*
G01X5677499Y167505D01*
G01X5677499Y212504D01*
G01X5633499Y212504D01*
G01X5633001Y254500D01*
G01X5638000Y259502D01*
G01X5753001Y259502D01*
G01X5758002Y254500D01*
G37*
G36*
G01X5543001Y254500D02*
G01X5542999Y212504D01*
G01X5498501Y212504D01*
G01X5498501Y167505D01*
G01X5542498Y167505D01*
G01X5543001Y126502D01*
G01X5538000Y121501D01*
G01X5423002Y121501D01*
G01X5418000Y126502D01*
G01X5418000Y254500D01*
G01X5423002Y259502D01*
G01X5538000Y259502D01*
G01X5543001Y254500D01*
G37*
G36*
G01X3170098Y2488700D02*
G01X3170098Y2616698D01*
G01X3175099Y2621699D01*
G01X3290100Y2621699D01*
G01X3295099Y2616698D01*
G01X3295602Y2575695D01*
G01X3250601Y2575695D01*
G01X3250601Y2530696D01*
G01X3294601Y2530696D01*
G01X3295099Y2488700D01*
G01X3290100Y2483698D01*
G01X3175099Y2483698D01*
G01X3170098Y2488700D01*
G37*
G36*
G01X3385099Y2488700D02*
G01X3385101Y2530696D01*
G01X3429599Y2530696D01*
G01X3429599Y2575695D01*
G01X3385602Y2575695D01*
G01X3385099Y2616698D01*
G01X3390100Y2621699D01*
G01X3505098Y2621699D01*
G01X3510100Y2616698D01*
G01X3510100Y2488700D01*
G01X3505098Y2483698D01*
G01X3390100Y2483698D01*
G01X3385099Y2488700D01*
G37*
G36*
G01X5574800Y1059002D02*
G01X5702798Y1059002D01*
G01X5707799Y1054001D01*
G01X5707799Y939000D01*
G01X5702798Y934001D01*
G01X5661795Y933498D01*
G01X5661795Y978499D01*
G01X5616796Y978499D01*
G01X5616796Y934499D01*
G01X5574800Y934001D01*
G01X5569798Y939000D01*
G01X5569798Y1054001D01*
G01X5574800Y1059002D01*
G37*
G36*
G01X5574800Y844001D02*
G01X5616796Y843999D01*
G01X5616796Y799501D01*
G01X5661795Y799501D01*
G01X5661795Y843498D01*
G01X5702798Y844001D01*
G01X5707799Y839000D01*
G01X5707799Y724002D01*
G01X5702798Y719000D01*
G01X5574800Y719000D01*
G01X5569798Y724002D01*
G01X5569798Y839000D01*
G01X5574800Y844001D01*
G37*
G36*
G01X6215202Y787900D02*
G01X6215202Y659902D01*
G01X6210201Y654901D01*
G01X6095200Y654901D01*
G01X6090201Y659902D01*
G01X6089698Y700905D01*
G01X6134699Y700905D01*
G01X6134699Y745904D01*
G01X6090699Y745904D01*
G01X6090201Y787900D01*
G01X6095200Y792902D01*
G01X6210201Y792902D01*
G01X6215202Y787900D01*
G37*
G36*
G01X6000201Y787900D02*
G01X6000199Y745904D01*
G01X5955701Y745904D01*
G01X5955701Y700905D01*
G01X5999698Y700905D01*
G01X6000201Y659902D01*
G01X5995200Y654901D01*
G01X5880202Y654901D01*
G01X5875200Y659902D01*
G01X5875200Y787900D01*
G01X5880202Y792902D01*
G01X5995200Y792902D01*
G01X6000201Y787900D01*
G37*
G36*
G01X7221398Y850400D02*
G01X7221398Y978398D01*
G01X7226399Y983399D01*
G01X7341400Y983399D01*
G01X7346399Y978398D01*
G01X7346902Y937395D01*
G01X7301901Y937395D01*
G01X7301901Y892396D01*
G01X7345901Y892396D01*
G01X7346399Y850400D01*
G01X7341400Y845398D01*
G01X7226399Y845398D01*
G01X7221398Y850400D01*
G37*
G36*
G01X7436399Y850400D02*
G01X7436401Y892396D01*
G01X7480899Y892396D01*
G01X7480899Y937395D01*
G01X7436902Y937395D01*
G01X7436399Y978398D01*
G01X7441400Y983399D01*
G01X7556398Y983399D01*
G01X7561400Y978398D01*
G01X7561400Y850400D01*
G01X7556398Y845398D01*
G01X7441400Y845398D01*
G01X7436399Y850400D01*
G37*
G36*
G01X8107502Y775200D02*
G01X8107502Y647202D01*
G01X8102501Y642201D01*
G01X7987500Y642201D01*
G01X7982501Y647202D01*
G01X7981998Y688205D01*
G01X8026999Y688205D01*
G01X8026999Y733204D01*
G01X7982999Y733204D01*
G01X7982501Y775200D01*
G01X7987500Y780202D01*
G01X8102501Y780202D01*
G01X8107502Y775200D01*
G37*
G36*
G01X7892501Y775200D02*
G01X7892499Y733204D01*
G01X7848001Y733204D01*
G01X7848001Y688205D01*
G01X7891998Y688205D01*
G01X7892501Y647202D01*
G01X7887500Y642201D01*
G01X7772502Y642201D01*
G01X7767500Y647202D01*
G01X7767500Y775200D01*
G01X7772502Y780202D01*
G01X7887500Y780202D01*
G01X7892501Y775200D01*
G37*
G36*
G01X7684600Y5075559D02*
G01X7812598Y5075559D01*
G01X7817599Y5070558D01*
G01X7817599Y4955557D01*
G01X7812598Y4950558D01*
G01X7771595Y4950055D01*
G01X7771595Y4995056D01*
G01X7726596Y4995056D01*
G01X7726596Y4951056D01*
G01X7684600Y4950558D01*
G01X7679599Y4955557D01*
G01X7679599Y5070558D01*
G01X7684600Y5075559D01*
G37*
G36*
G01X7684600Y4860558D02*
G01X7726596Y4860555D01*
G01X7726596Y4816057D01*
G01X7771595Y4816057D01*
G01X7771595Y4860055D01*
G01X7812598Y4860558D01*
G01X7817599Y4855557D01*
G01X7817599Y4740558D01*
G01X7812598Y4735557D01*
G01X7684600Y4735557D01*
G01X7679599Y4740558D01*
G01X7679599Y4855557D01*
G01X7684600Y4860558D01*
G37*
G36*
G01X6641600Y5077159D02*
G01X6769598Y5077159D01*
G01X6774599Y5072158D01*
G01X6774599Y4957157D01*
G01X6769598Y4952158D01*
G01X6728595Y4951655D01*
G01X6728595Y4996656D01*
G01X6683596Y4996656D01*
G01X6683596Y4952656D01*
G01X6641600Y4952158D01*
G01X6636598Y4957157D01*
G01X6636598Y5072158D01*
G01X6641600Y5077159D01*
G37*
G36*
G01X6641600Y4862158D02*
G01X6683596Y4862156D01*
G01X6683596Y4817657D01*
G01X6728595Y4817657D01*
G01X6728595Y4861655D01*
G01X6769598Y4862158D01*
G01X6774599Y4857157D01*
G01X6774599Y4742158D01*
G01X6769598Y4737157D01*
G01X6641600Y4737157D01*
G01X6636598Y4742158D01*
G01X6636598Y4857157D01*
G01X6641600Y4862158D01*
G37*
G36*
G01X5125898Y4673100D02*
G01X5125898Y4801098D01*
G01X5130899Y4806099D01*
G01X5245900Y4806099D01*
G01X5250899Y4801098D01*
G01X5251402Y4760095D01*
G01X5206401Y4760095D01*
G01X5206401Y4715096D01*
G01X5250401Y4715096D01*
G01X5250899Y4673100D01*
G01X5245900Y4668098D01*
G01X5130899Y4668098D01*
G01X5125898Y4673100D01*
G37*
G36*
G01X5340899Y4673100D02*
G01X5340901Y4715096D01*
G01X5385399Y4715096D01*
G01X5385399Y4760095D01*
G01X5341402Y4760095D01*
G01X5340899Y4801098D01*
G01X5345900Y4806099D01*
G01X5460898Y4806099D01*
G01X5465900Y4801098D01*
G01X5465900Y4673100D01*
G01X5460898Y4668098D01*
G01X5345900Y4668098D01*
G01X5340899Y4673100D01*
G37*
G36*
G01X8351203Y2158500D02*
G01X8351203Y2286498D01*
G01X8356204Y2291499D01*
G01X8471205Y2291499D01*
G01X8476204Y2286498D01*
G01X8476706Y2245495D01*
G01X8431705Y2245495D01*
G01X8431705Y2200496D01*
G01X8475706Y2200496D01*
G01X8476204Y2158500D01*
G01X8471205Y2153498D01*
G01X8356204Y2153498D01*
G01X8351203Y2158500D01*
G37*
G36*
G01X8692198Y2286500D02*
G01X8692198Y2158502D01*
G01X8687196Y2153501D01*
G01X8572195Y2153501D01*
G01X8567196Y2158502D01*
G01X8566694Y2199505D01*
G01X8611695Y2199505D01*
G01X8611695Y2244504D01*
G01X8567694Y2244504D01*
G01X8567196Y2286500D01*
G01X8572195Y2291502D01*
G01X8687196Y2291502D01*
G01X8692198Y2286500D01*
G37*
G36*
G01X6598603Y2730000D02*
G01X6598603Y2857998D01*
G01X6603604Y2862999D01*
G01X6718605Y2862999D01*
G01X6723604Y2857998D01*
G01X6724106Y2816995D01*
G01X6679105Y2816995D01*
G01X6679105Y2771996D01*
G01X6723106Y2771996D01*
G01X6723604Y2730000D01*
G01X6718605Y2724998D01*
G01X6603604Y2724998D01*
G01X6598603Y2730000D01*
G37*
G36*
G01X6939598Y2858000D02*
G01X6939598Y2730002D01*
G01X6934596Y2725001D01*
G01X6819595Y2725001D01*
G01X6814596Y2730002D01*
G01X6814094Y2771005D01*
G01X6859095Y2771005D01*
G01X6859095Y2816004D01*
G01X6815094Y2816004D01*
G01X6814596Y2858000D01*
G01X6819595Y2863002D01*
G01X6934596Y2863002D01*
G01X6939598Y2858000D01*
G37*
G36*
G01X6471603Y2158500D02*
G01X6471603Y2286498D01*
G01X6476604Y2291499D01*
G01X6591605Y2291499D01*
G01X6596604Y2286498D01*
G01X6597106Y2245495D01*
G01X6552105Y2245495D01*
G01X6552105Y2200496D01*
G01X6596106Y2200496D01*
G01X6596604Y2158500D01*
G01X6591605Y2153498D01*
G01X6476604Y2153498D01*
G01X6471603Y2158500D01*
G37*
G36*
G01X6812598Y2286500D02*
G01X6812598Y2158502D01*
G01X6807596Y2153501D01*
G01X6692595Y2153501D01*
G01X6687596Y2158502D01*
G01X6687094Y2199505D01*
G01X6732095Y2199505D01*
G01X6732095Y2244504D01*
G01X6688094Y2244504D01*
G01X6687596Y2286500D01*
G01X6692595Y2291502D01*
G01X6807596Y2291502D01*
G01X6812598Y2286500D01*
G37*
G36*
G01X4744403Y2717300D02*
G01X4744403Y2845298D01*
G01X4749404Y2850299D01*
G01X4864405Y2850299D01*
G01X4869404Y2845298D01*
G01X4869906Y2804295D01*
G01X4824905Y2804295D01*
G01X4824905Y2759296D01*
G01X4868906Y2759296D01*
G01X4869404Y2717300D01*
G01X4864405Y2712298D01*
G01X4749404Y2712298D01*
G01X4744403Y2717300D01*
G37*
G36*
G01X5085398Y2845300D02*
G01X5085398Y2717302D01*
G01X5080396Y2712301D01*
G01X4965395Y2712301D01*
G01X4960396Y2717302D01*
G01X4959894Y2758305D01*
G01X5004895Y2758305D01*
G01X5004895Y2803304D01*
G01X4960894Y2803304D01*
G01X4960396Y2845300D01*
G01X4965395Y2850302D01*
G01X5080396Y2850302D01*
G01X5085398Y2845300D01*
G37*
G36*
G01X1946897Y1856301D02*
G01X1946897Y1728302D01*
G01X1941896Y1723301D01*
G01X1826895Y1723301D01*
G01X1821896Y1728302D01*
G01X1821393Y1769306D01*
G01X1866395Y1769306D01*
G01X1866395Y1814304D01*
G01X1822394Y1814304D01*
G01X1821896Y1856301D01*
G01X1826895Y1861302D01*
G01X1941896Y1861302D01*
G01X1946897Y1856301D01*
G37*
G36*
G01X1605902Y1728300D02*
G01X1605902Y1856298D01*
G01X1610904Y1861299D01*
G01X1725905Y1861299D01*
G01X1730903Y1856298D01*
G01X1731406Y1815295D01*
G01X1686405Y1815295D01*
G01X1686405Y1770296D01*
G01X1730405Y1770296D01*
G01X1730903Y1728300D01*
G01X1725905Y1723299D01*
G01X1610904Y1723299D01*
G01X1605902Y1728300D01*
G37*
G36*
G01X4592003Y2158500D02*
G01X4592003Y2286498D01*
G01X4597004Y2291499D01*
G01X4712005Y2291499D01*
G01X4717004Y2286498D01*
G01X4717506Y2245495D01*
G01X4672505Y2245495D01*
G01X4672505Y2200496D01*
G01X4716506Y2200496D01*
G01X4717004Y2158500D01*
G01X4712005Y2153498D01*
G01X4597004Y2153498D01*
G01X4592003Y2158500D01*
G37*
G36*
G01X4932998Y2286500D02*
G01X4932998Y2158502D01*
G01X4927996Y2153501D01*
G01X4812995Y2153501D01*
G01X4807996Y2158502D01*
G01X4807494Y2199505D01*
G01X4852495Y2199505D01*
G01X4852495Y2244504D01*
G01X4808494Y2244504D01*
G01X4807996Y2286500D01*
G01X4812995Y2291502D01*
G01X4927996Y2291502D01*
G01X4932998Y2286500D01*
G37*
G36*
G01X8478203Y2717300D02*
G01X8478203Y2845298D01*
G01X8483204Y2850299D01*
G01X8598205Y2850299D01*
G01X8603204Y2845298D01*
G01X8603706Y2804295D01*
G01X8558705Y2804295D01*
G01X8558705Y2759296D01*
G01X8602706Y2759296D01*
G01X8603204Y2717300D01*
G01X8598205Y2712298D01*
G01X8483204Y2712298D01*
G01X8478203Y2717300D01*
G37*
G36*
G01X8819198Y2845300D02*
G01X8819198Y2717302D01*
G01X8814196Y2712301D01*
G01X8699195Y2712301D01*
G01X8694196Y2717302D01*
G01X8693694Y2758305D01*
G01X8738695Y2758305D01*
G01X8738695Y2803304D01*
G01X8694694Y2803304D01*
G01X8694196Y2845300D01*
G01X8699195Y2850302D01*
G01X8814196Y2850302D01*
G01X8819198Y2845300D01*
G37*
G36*
G01X5681616Y2459600D02*
G01X5553618Y2459600D01*
G01X5548617Y2464601D01*
G01X5548617Y2579602D01*
G01X5553618Y2584601D01*
G01X5594621Y2585104D01*
G01X5594621Y2540103D01*
G01X5639620Y2540103D01*
G01X5639620Y2584103D01*
G01X5681616Y2584601D01*
G01X5686618Y2579602D01*
G01X5686618Y2464601D01*
G01X5681616Y2459600D01*
G37*
G36*
G01X5681616Y2674601D02*
G01X5639620Y2674603D01*
G01X5639620Y2719102D01*
G01X5594621Y2719102D01*
G01X5594621Y2675104D01*
G01X5553618Y2674601D01*
G01X5548617Y2679602D01*
G01X5548617Y2794601D01*
G01X5553618Y2799602D01*
G01X5681616Y2799602D01*
G01X5686618Y2794601D01*
G01X5686618Y2679602D01*
G01X5681616Y2674601D01*
G37*
G36*
G01X7561402Y2604000D02*
G01X7561402Y2476002D01*
G01X7556401Y2471001D01*
G01X7441400Y2471001D01*
G01X7436401Y2476002D01*
G01X7435898Y2517005D01*
G01X7480899Y2517005D01*
G01X7480899Y2562004D01*
G01X7436899Y2562004D01*
G01X7436401Y2604000D01*
G01X7441400Y2609002D01*
G01X7556401Y2609002D01*
G01X7561402Y2604000D01*
G37*
G36*
G01X7346401Y2604000D02*
G01X7346399Y2562004D01*
G01X7301901Y2562004D01*
G01X7301901Y2517005D01*
G01X7345898Y2517005D01*
G01X7346401Y2476002D01*
G01X7341400Y2471001D01*
G01X7226402Y2471001D01*
G01X7221400Y2476002D01*
G01X7221400Y2604000D01*
G01X7226402Y2609002D01*
G01X7341400Y2609002D01*
G01X7346401Y2604000D01*
G37*
G36*
G01X585012Y2409129D02*
G01X457014Y2409129D01*
G01X452013Y2414130D01*
G01X452013Y2529131D01*
G01X457014Y2534130D01*
G01X498017Y2534633D01*
G01X498017Y2489632D01*
G01X543016Y2489632D01*
G01X543016Y2533632D01*
G01X585012Y2534130D01*
G01X590014Y2529131D01*
G01X590014Y2414130D01*
G01X585012Y2409129D01*
G37*
G36*
G01X585012Y2624130D02*
G01X543016Y2624132D01*
G01X543016Y2668630D01*
G01X498017Y2668630D01*
G01X498017Y2624633D01*
G01X457014Y2624130D01*
G01X452013Y2629131D01*
G01X452013Y2744129D01*
G01X457014Y2749131D01*
G01X585012Y2749131D01*
G01X590014Y2744129D01*
G01X590014Y2629131D01*
G01X585012Y2624130D01*
G37*
G36*
G01X542353Y2935531D02*
G01X525071Y2935531D01*
G01X506712Y2962394D01*
G01X506712Y3012041D01*
G01X510712Y3016041D01*
G01X556712Y3016041D01*
G01X560712Y3012041D01*
G01X560712Y2962394D01*
G01X542353Y2935531D01*
G37*
G36*
G01X542353Y2908531D02*
G01X525071Y2908531D01*
G01X506712Y2881668D01*
G01X506712Y2832021D01*
G01X510712Y2828021D01*
G01X556712Y2828021D01*
G01X560712Y2832021D01*
G01X560712Y2881668D01*
G01X542353Y2908531D01*
G37*
G36*
G01X241112Y3054428D02*
G01X369110Y3054428D01*
G01X374111Y3049427D01*
G01X374111Y2934426D01*
G01X369110Y2929427D01*
G01X328107Y2928925D01*
G01X328107Y2973926D01*
G01X283108Y2973926D01*
G01X283108Y2929925D01*
G01X241112Y2929427D01*
G01X236110Y2934426D01*
G01X236110Y3049427D01*
G01X241112Y3054428D01*
G37*
G36*
G01X369112Y2713433D02*
G01X241114Y2713433D01*
G01X236113Y2718435D01*
G01X236113Y2833436D01*
G01X241114Y2838435D01*
G01X282117Y2838937D01*
G01X282117Y2793936D01*
G01X327116Y2793936D01*
G01X327116Y2837937D01*
G01X369112Y2838435D01*
G01X374114Y2833436D01*
G01X374114Y2718435D01*
G01X369112Y2713433D01*
G37*
G36*
G01X4177800Y3345002D02*
G01X4305798Y3345002D01*
G01X4310799Y3340001D01*
G01X4310799Y3225000D01*
G01X4305798Y3220001D01*
G01X4264795Y3219498D01*
G01X4264795Y3264499D01*
G01X4219796Y3264499D01*
G01X4219796Y3220499D01*
G01X4177800Y3220001D01*
G01X4172798Y3225000D01*
G01X4172798Y3340001D01*
G01X4177800Y3345002D01*
G37*
G36*
G01X4177800Y3130001D02*
G01X4219796Y3129999D01*
G01X4219796Y3085501D01*
G01X4264795Y3085501D01*
G01X4264795Y3129498D01*
G01X4305798Y3130001D01*
G01X4310799Y3125000D01*
G01X4310799Y3010002D01*
G01X4305798Y3005000D01*
G01X4177800Y3005000D01*
G01X4172798Y3010002D01*
G01X4172798Y3125000D01*
G01X4177800Y3130001D01*
G37*
G36*
G01X6459398Y367800D02*
G01X6459398Y495798D01*
G01X6464399Y500799D01*
G01X6579400Y500799D01*
G01X6584399Y495798D01*
G01X6584902Y454795D01*
G01X6539901Y454795D01*
G01X6539901Y409796D01*
G01X6583901Y409796D01*
G01X6584399Y367800D01*
G01X6579400Y362798D01*
G01X6464399Y362798D01*
G01X6459398Y367800D01*
G37*
G36*
G01X6674399Y367800D02*
G01X6674401Y409796D01*
G01X6718899Y409796D01*
G01X6718899Y454795D01*
G01X6674902Y454795D01*
G01X6674399Y495798D01*
G01X6679400Y500799D01*
G01X6794398Y500799D01*
G01X6799400Y495798D01*
G01X6799400Y367800D01*
G01X6794398Y362798D01*
G01X6679400Y362798D01*
G01X6674399Y367800D01*
G37*
G36*
G01X4995009Y121010D02*
G01X4995009Y249008D01*
G01X5000010Y254010D01*
G01X5115011Y254010D01*
G01X5120010Y249008D01*
G01X5120512Y208005D01*
G01X5075511Y208005D01*
G01X5075511Y163007D01*
G01X5119512Y163007D01*
G01X5120010Y121010D01*
G01X5115011Y116009D01*
G01X5000010Y116009D01*
G01X4995009Y121010D01*
G37*
G36*
G01X5210009Y121010D02*
G01X5210012Y163007D01*
G01X5254510Y163007D01*
G01X5254510Y208005D01*
G01X5210512Y208005D01*
G01X5210009Y249008D01*
G01X5215011Y254010D01*
G01X5330009Y254010D01*
G01X5335010Y249008D01*
G01X5335010Y121010D01*
G01X5330009Y116009D01*
G01X5215011Y116009D01*
G01X5210009Y121010D01*
G37*
G36*
G01X147498Y4495300D02*
G01X147498Y4623298D01*
G01X152499Y4628299D01*
G01X267500Y4628299D01*
G01X272499Y4623298D01*
G01X273002Y4582295D01*
G01X228001Y4582295D01*
G01X228001Y4537296D01*
G01X272001Y4537296D01*
G01X272499Y4495300D01*
G01X267500Y4490298D01*
G01X152499Y4490298D01*
G01X147498Y4495300D01*
G37*
G36*
G01X362499Y4495300D02*
G01X362501Y4537296D01*
G01X406999Y4537296D01*
G01X406999Y4582295D01*
G01X363002Y4582295D01*
G01X362499Y4623298D01*
G01X367500Y4628299D01*
G01X482498Y4628299D01*
G01X487500Y4623298D01*
G01X487500Y4495300D01*
G01X482498Y4490298D01*
G01X367500Y4490298D01*
G01X362499Y4495300D01*
G37*
G36*
G01X655498Y4495300D02*
G01X655498Y4623298D01*
G01X660499Y4628299D01*
G01X775500Y4628299D01*
G01X780499Y4623298D01*
G01X781002Y4582295D01*
G01X736001Y4582295D01*
G01X736001Y4537296D01*
G01X780001Y4537296D01*
G01X780499Y4495300D01*
G01X775500Y4490298D01*
G01X660499Y4490298D01*
G01X655498Y4495300D01*
G37*
G36*
G01X870499Y4495300D02*
G01X870501Y4537296D01*
G01X914999Y4537296D01*
G01X914999Y4582295D01*
G01X871002Y4582295D01*
G01X870499Y4623298D01*
G01X875500Y4628299D01*
G01X990498Y4628299D01*
G01X995500Y4623298D01*
G01X995500Y4495300D01*
G01X990498Y4490298D01*
G01X875500Y4490298D01*
G01X870499Y4495300D01*
G37*
G36*
G01X1163498Y4495300D02*
G01X1163498Y4623298D01*
G01X1168499Y4628299D01*
G01X1283500Y4628299D01*
G01X1288499Y4623298D01*
G01X1289002Y4582295D01*
G01X1244001Y4582295D01*
G01X1244001Y4537296D01*
G01X1288001Y4537296D01*
G01X1288499Y4495300D01*
G01X1283500Y4490298D01*
G01X1168499Y4490298D01*
G01X1163498Y4495300D01*
G37*
G36*
G01X1378499Y4495300D02*
G01X1378501Y4537296D01*
G01X1422999Y4537296D01*
G01X1422999Y4582295D01*
G01X1379002Y4582295D01*
G01X1378499Y4623298D01*
G01X1383500Y4628299D01*
G01X1498498Y4628299D01*
G01X1503500Y4623298D01*
G01X1503500Y4495300D01*
G01X1498498Y4490298D01*
G01X1383500Y4490298D01*
G01X1378499Y4495300D01*
G37*
G36*
G01X1671498Y4495300D02*
G01X1671498Y4623298D01*
G01X1676499Y4628299D01*
G01X1791500Y4628299D01*
G01X1796499Y4623298D01*
G01X1797002Y4582295D01*
G01X1752001Y4582295D01*
G01X1752001Y4537296D01*
G01X1796001Y4537296D01*
G01X1796499Y4495300D01*
G01X1791500Y4490298D01*
G01X1676499Y4490298D01*
G01X1671498Y4495300D01*
G37*
G36*
G01X1886499Y4495300D02*
G01X1886501Y4537296D01*
G01X1930999Y4537296D01*
G01X1930999Y4582295D01*
G01X1887002Y4582295D01*
G01X1886499Y4623298D01*
G01X1891500Y4628299D01*
G01X2006498Y4628299D01*
G01X2011500Y4623298D01*
G01X2011500Y4495300D01*
G01X2006498Y4490298D01*
G01X1891500Y4490298D01*
G01X1886499Y4495300D01*
G37*
G36*
G01X487502Y5232900D02*
G01X487502Y5104902D01*
G01X482501Y5099901D01*
G01X367500Y5099901D01*
G01X362501Y5104902D01*
G01X361998Y5145905D01*
G01X406999Y5145905D01*
G01X406999Y5190904D01*
G01X362999Y5190904D01*
G01X362501Y5232900D01*
G01X367500Y5237902D01*
G01X482501Y5237902D01*
G01X487502Y5232900D01*
G37*
G36*
G01X272501Y5232900D02*
G01X272499Y5190904D01*
G01X228001Y5190904D01*
G01X228001Y5145905D01*
G01X271998Y5145905D01*
G01X272501Y5104902D01*
G01X267500Y5099901D01*
G01X152502Y5099901D01*
G01X147500Y5104902D01*
G01X147500Y5232900D01*
G01X152502Y5237902D01*
G01X267500Y5237902D01*
G01X272501Y5232900D01*
G37*
G36*
G01X995502Y5232900D02*
G01X995502Y5104902D01*
G01X990501Y5099901D01*
G01X875500Y5099901D01*
G01X870501Y5104902D01*
G01X869998Y5145905D01*
G01X914999Y5145905D01*
G01X914999Y5190904D01*
G01X870999Y5190904D01*
G01X870501Y5232900D01*
G01X875500Y5237902D01*
G01X990501Y5237902D01*
G01X995502Y5232900D01*
G37*
G36*
G01X780501Y5232900D02*
G01X780499Y5190904D01*
G01X736001Y5190904D01*
G01X736001Y5145905D01*
G01X779998Y5145905D01*
G01X780501Y5104902D01*
G01X775500Y5099901D01*
G01X660502Y5099901D01*
G01X655500Y5104902D01*
G01X655500Y5232900D01*
G01X660502Y5237902D01*
G01X775500Y5237902D01*
G01X780501Y5232900D01*
G37*
G36*
G01X1490802Y5232900D02*
G01X1490802Y5104902D01*
G01X1485801Y5099901D01*
G01X1370800Y5099901D01*
G01X1365801Y5104902D01*
G01X1365298Y5145905D01*
G01X1410299Y5145905D01*
G01X1410299Y5190904D01*
G01X1366299Y5190904D01*
G01X1365801Y5232900D01*
G01X1370800Y5237902D01*
G01X1485801Y5237902D01*
G01X1490802Y5232900D01*
G37*
G36*
G01X1275801Y5232900D02*
G01X1275799Y5190904D01*
G01X1231301Y5190904D01*
G01X1231301Y5145905D01*
G01X1275298Y5145905D01*
G01X1275801Y5104902D01*
G01X1270800Y5099901D01*
G01X1155802Y5099901D01*
G01X1150800Y5104902D01*
G01X1150800Y5232900D01*
G01X1155802Y5237902D01*
G01X1270800Y5237902D01*
G01X1275801Y5232900D01*
G37*
G36*
G01X2024202Y5232900D02*
G01X2024202Y5104902D01*
G01X2019201Y5099901D01*
G01X1904200Y5099901D01*
G01X1899201Y5104902D01*
G01X1898698Y5145905D01*
G01X1943699Y5145905D01*
G01X1943699Y5190904D01*
G01X1899699Y5190904D01*
G01X1899201Y5232900D01*
G01X1904200Y5237902D01*
G01X2019201Y5237902D01*
G01X2024202Y5232900D01*
G37*
G36*
G01X1809201Y5232900D02*
G01X1809199Y5190904D01*
G01X1764701Y5190904D01*
G01X1764701Y5145905D01*
G01X1808698Y5145905D01*
G01X1809201Y5104902D01*
G01X1804200Y5099901D01*
G01X1689202Y5099901D01*
G01X1684200Y5104902D01*
G01X1684200Y5232900D01*
G01X1689202Y5237902D01*
G01X1804200Y5237902D01*
G01X1809201Y5232900D01*
G37*
G36*
G01X2950189Y4876359D02*
G01X3078188Y4876359D01*
G01X3083189Y4871358D01*
G01X3083189Y4756357D01*
G01X3078188Y4751358D01*
G01X3037184Y4750855D01*
G01X3037184Y4795856D01*
G01X2992186Y4795856D01*
G01X2992186Y4751856D01*
G01X2950189Y4751358D01*
G01X2945188Y4756357D01*
G01X2945188Y4871358D01*
G01X2950189Y4876359D01*
G37*
G36*
G01X3078190Y4535364D02*
G01X2950192Y4535364D01*
G01X2945191Y4540365D01*
G01X2945191Y4655366D01*
G01X2950192Y4660365D01*
G01X2991195Y4660868D01*
G01X2991195Y4615867D01*
G01X3036194Y4615867D01*
G01X3036194Y4659867D01*
G01X3078190Y4660365D01*
G01X3083191Y4655366D01*
G01X3083191Y4540365D01*
G01X3078190Y4535364D01*
G37*
G36*
G01X3590592Y5023862D02*
G01X3590592Y4895863D01*
G01X3585591Y4890862D01*
G01X3470590Y4890862D01*
G01X3465591Y4895863D01*
G01X3465088Y4936867D01*
G01X3510089Y4936867D01*
G01X3510089Y4981865D01*
G01X3466089Y4981865D01*
G01X3465591Y5023862D01*
G01X3470590Y5028863D01*
G01X3585591Y5028863D01*
G01X3590592Y5023862D01*
G37*
G36*
G01X3375591Y5023862D02*
G01X3375589Y4981865D01*
G01X3331090Y4981865D01*
G01X3331090Y4936867D01*
G01X3375088Y4936867D01*
G01X3375591Y4895863D01*
G01X3370590Y4890862D01*
G01X3255591Y4890862D01*
G01X3250590Y4895863D01*
G01X3250590Y5023862D01*
G01X3255591Y5028863D01*
G01X3370590Y5028863D01*
G01X3375591Y5023862D01*
G37*
G36*
G01X3616487Y5239762D02*
G01X3616487Y5111763D01*
G01X3611486Y5106762D01*
G01X3496485Y5106762D01*
G01X3491486Y5111763D01*
G01X3490983Y5152767D01*
G01X3535985Y5152767D01*
G01X3535985Y5197765D01*
G01X3491984Y5197765D01*
G01X3491486Y5239762D01*
G01X3496485Y5244763D01*
G01X3611486Y5244763D01*
G01X3616487Y5239762D01*
G37*
G36*
G01X3275492Y5111761D02*
G01X3275492Y5239759D01*
G01X3280494Y5244760D01*
G01X3395495Y5244760D01*
G01X3400493Y5239759D01*
G01X3400996Y5198756D01*
G01X3355995Y5198756D01*
G01X3355995Y5153757D01*
G01X3399995Y5153757D01*
G01X3400493Y5111761D01*
G01X3395495Y5106760D01*
G01X3280494Y5106760D01*
G01X3275492Y5111761D01*
G37*
G36*
G01X3675090Y4459659D02*
G01X3547092Y4459659D01*
G01X3542091Y4464660D01*
G01X3542091Y4579661D01*
G01X3547092Y4584660D01*
G01X3588095Y4585163D01*
G01X3588095Y4540162D01*
G01X3633094Y4540162D01*
G01X3633094Y4584162D01*
G01X3675090Y4584660D01*
G01X3680091Y4579661D01*
G01X3680091Y4464660D01*
G01X3675090Y4459659D01*
G37*
G36*
G01X3675090Y4674660D02*
G01X3633094Y4674662D01*
G01X3633094Y4719161D01*
G01X3588095Y4719161D01*
G01X3588095Y4675163D01*
G01X3547092Y4674660D01*
G01X3542091Y4679661D01*
G01X3542091Y4794660D01*
G01X3547092Y4799661D01*
G01X3675090Y4799661D01*
G01X3680091Y4794660D01*
G01X3680091Y4679661D01*
G01X3675090Y4674660D01*
G37*
G36*
G01X2862290Y4523159D02*
G01X2734292Y4523159D01*
G01X2729291Y4528160D01*
G01X2729291Y4643161D01*
G01X2734292Y4648160D01*
G01X2775295Y4648663D01*
G01X2775295Y4603662D01*
G01X2820294Y4603662D01*
G01X2820294Y4647662D01*
G01X2862290Y4648160D01*
G01X2867291Y4643161D01*
G01X2867291Y4528160D01*
G01X2862290Y4523159D01*
G37*
G36*
G01X2862290Y4738160D02*
G01X2820294Y4738162D01*
G01X2820294Y4782661D01*
G01X2775295Y4782661D01*
G01X2775295Y4738663D01*
G01X2734292Y4738160D01*
G01X2729291Y4743161D01*
G01X2729291Y4858160D01*
G01X2734292Y4863161D01*
G01X2862290Y4863161D01*
G01X2867291Y4858160D01*
G01X2867291Y4743161D01*
G01X2862290Y4738160D01*
G37*

G04 Pad Start*
G54D10*
G01X4405152Y1945107D03*
G01X4470151Y1945107D03*
G01X4535150Y1945107D03*
G01X4600148Y1945107D03*
G01X4665147Y1945107D03*
G54D11*
G01X4736394Y1882597D03*
G01X4736394Y1817599D03*
G01X4736394Y1752600D03*
G01X4736394Y1687601D03*
G01X4736394Y1622603D03*
G54D10*
G01X4665147Y1560093D03*
G01X4600148Y1560093D03*
G01X4535150Y1560093D03*
G01X4470151Y1560093D03*
G01X4405152Y1560093D03*
G54D11*
G01X4331391Y1622603D03*
G01X4331391Y1687601D03*
G01X4331391Y1752600D03*
G01X4331391Y1817599D03*
G01X4331391Y1882597D03*
G54D10*
G01X6284752Y1945107D03*
G01X6349751Y1945107D03*
G01X6414750Y1945107D03*
G01X6479748Y1945107D03*
G01X6544747Y1945107D03*
G54D11*
G01X6615994Y1882597D03*
G01X6615994Y1817599D03*
G01X6615994Y1752600D03*
G01X6615994Y1687601D03*
G01X6615994Y1622603D03*
G54D10*
G01X6544747Y1560093D03*
G01X6479748Y1560093D03*
G01X6414750Y1560093D03*
G01X6349751Y1560093D03*
G01X6284752Y1560093D03*
G54D11*
G01X6210991Y1622603D03*
G01X6210991Y1687601D03*
G01X6210991Y1752600D03*
G01X6210991Y1817599D03*
G01X6210991Y1882597D03*
G54D10*
G01X8164352Y1945107D03*
G01X8229351Y1945107D03*
G01X8294350Y1945107D03*
G01X8359348Y1945107D03*
G01X8424347Y1945107D03*
G54D11*
G01X8495594Y1882597D03*
G01X8495594Y1817599D03*
G01X8495594Y1752600D03*
G01X8495594Y1687601D03*
G01X8495594Y1622603D03*
G54D10*
G01X8424347Y1560093D03*
G01X8359348Y1560093D03*
G01X8294350Y1560093D03*
G01X8229351Y1560093D03*
G01X8164352Y1560093D03*
G54D11*
G01X8090591Y1622603D03*
G01X8090591Y1687601D03*
G01X8090591Y1752600D03*
G01X8090591Y1817599D03*
G01X8090591Y1882597D03*
G54D12*
G01X4533890Y3018302D03*
G01X4533890Y2798288D03*
G54D13*
G01X6180900Y3779393D03*
G01X5930887Y3779393D03*
G01X5680901Y3779393D03*
G01X6180874Y3129407D03*
G01X5930887Y3129407D03*
G01X5680901Y3129407D03*
G54D12*
G01X5245090Y3018302D03*
G01X5245090Y2798288D03*
G54D14*
G01X1615059Y2362200D03*
G01X1615059Y2235200D03*
G01X1615059Y2108200D03*
G01X1615059Y1981200D03*
G01X2169541Y2362200D03*
G01X2169541Y2235200D03*
G01X2169541Y2108200D03*
G01X2169541Y1981200D03*
G54D16*
G01X6159500Y4987103D03*
G01X6159500Y4827210D03*
G54D17*
G01X4267200Y5062195D03*
G01X4267200Y4742205D03*
G54D18*
G01X2331199Y1460500D03*
G01X2266201Y1460500D03*
G54D19*
G01X3104401Y2235200D03*
G01X3169399Y2235200D03*
G54D20*
G01X5130800Y642099D03*
G01X5130800Y577101D03*
G54D21*
G01X303613Y3162442D03*
G01X433611Y3162442D03*
G01X368612Y3342020D03*
G54D19*
G01X6469901Y266700D03*
G01X6534899Y266700D03*
G54D22*
G01X4914900Y145301D03*
G01X4914900Y210299D03*
G54D23*
G01X395200Y539775D03*
G01X1373100Y535875D03*
G54D24*
G01X222504Y4740593D03*
G01X412496Y4740593D03*
G01X317500Y4987608D03*
G01X730504Y4740593D03*
G01X920496Y4740593D03*
G01X825500Y4987608D03*
G01X1238504Y4740593D03*
G01X1428496Y4740593D03*
G01X1333500Y4987608D03*
G01X1746504Y4740593D03*
G01X1936496Y4740593D03*
G01X1841500Y4987608D03*
G54D25*
G01X2913380Y5676900D03*
G54D26*
G01X3022600Y5676900D03*
G54D27*
G01X3390900Y5581900D03*
G01X3390900Y5771900D03*
G54D28*
G01X2547540Y4981740D03*
G54D29*
G01X2438320Y4981740D03*
G54D30*
G01X2830290Y5010661D03*
G01X3020290Y5010661D03*
G54D31*
G01X3413986Y4730462D03*
G01X3318990Y4730462D03*
G01X3223994Y4730462D03*
G01X3223994Y4503460D03*
G01X3413986Y4503460D03*
G54D32*
G01X3615084Y2550272D03*
G54D33*
G01X3729851Y2550272D03*
G54D32*
G01X5301190Y2526462D03*
G54D33*
G01X5415957Y2526462D03*
G54D32*
G01X7390933Y2730500D03*
G54D33*
G01X7505700Y2730500D03*
G54D34*
G01X305112Y2464364D03*
G54D35*
G01X305112Y2579131D03*
G54D32*
G01X3923833Y711200D03*
G54D33*
G01X4038600Y711200D03*
G54D34*
G01X4987470Y609181D03*
G54D35*
G01X4987470Y723948D03*
G54D36*
G01X5298021Y924905D03*
G54D37*
G01X5298021Y810138D03*
G54D34*
G01X4241800Y2768133D03*
G54D35*
G01X4241800Y2882900D03*
G04 Pad End*

M02*

