G04 Layer: DrillDrawingLayer*
G04 EasyEDA Pro v2.2.28.1, 2024-09-17 23:40:12*
G04 Gerber Generator version 0.3*
G04 Scale: 100 percent, Rotated: No, Reflected: No*
G04 Dimensions in millimeters*
G04 Leading zeros omitted, absolute positions, 3 integers and 5 decimals*
%FSLAX35Y35*%
%MOMM*%
%AMIconRect*4,1,4,0.2,-0.2,-0.2,-0.2,-0.2,0.2,0.2,0.2,0.2,-0.2,0*4,0,4,0.166667,-0.166667,0.166667,0.166667,-0.166667,0.166667,-0.166667,-0.166667,0.166667,-0.166667,0*%
%AMIconTriangle*4,1,3,-0.242567,0.171767,0.242567,0.171767,0,-0.2706,-0.242567,0.171767,0*4,0,3,-0.189767,0.1386,0,-0.1953,0.190167,0.1386,-0.189767,0.1386,0*%
%AMIconStar6*4,1,12,0.0862,0.1492,0.213233,0.123367,0.172367,0,0.213233,-0.1229,0.0862,-0.148733,0,-0.245767,-0.085767,-0.148733,-0.213267,-0.1229,-0.171933,0,-0.213267,0.1229,-0.085767,0.1492,0,0.245767,0.0862,0.1492,0*4,0,12,-0.000333,0.195333,-0.064333,0.122667,-0.169667,0.097667,-0.138333,-0.005333,-0.169667,-0.098,-0.064333,-0.122667,-0.000333,-0.195667,0.064333,-0.122667,0.169667,-0.098,0.138667,0.005,0.169667,0.098,0.064333,0.122333,-0.000333,0.195333,0*%
%AMIconStar4*4,1,8,-0.222667,0.222667,0,0.144667,0.222667,0.222667,0.144667,0,0.222667,-0.222667,0,-0.144667,-0.217433,-0.222667,-0.144667,0,-0.222667,0.222667,0*4,0,8,0.166667,-0.166667,0.108,0,0.166667,0.166667,0,0.108,-0.166667,0.166667,-0.108,0,-0.166667,-0.166667,0,-0.108,0.166667,-0.166667,0*%
%AMIconPlus*4,1,12,0.124,-0.2,-0.124,-0.2,-0.124,-0.124,-0.2,-0.124,-0.2,0.124,-0.124,0.124,-0.124,0.2,0.124,0.2,0.124,0.124,0.2,0.124,0.2,-0.124,0.124,-0.124,0.124,-0.2,0*4,0,12,0.090667,-0.166667,0.090667,-0.090667,0.166667,-0.090667,0.166667,0.090667,0.090667,0.090667,0.090667,0.166667,-0.090667,0.166667,-0.090667,0.090667,-0.166667,0.090667,-0.166667,-0.090667,-0.090667,-0.090667,-0.090667,-0.166667,0.090667,-0.166667,0*%
%AMIconX*4,1,16,0.2,-0.2,0.054533,-0.2,0,-0.145467,-0.054533,-0.2,-0.2,-0.2,-0.2,-0.054533,-0.145467,0,-0.2,0.054533,-0.2,0.2,-0.054533,0.2,0,0.145467,0.054533,0.2,0.2,0.2,0.2,0.054533,0.145467,0,0.2,-0.054533,0.2,-0.2,0*4,0,16,0.1668,-0.1664,0.1668,-0.068467,0.097933,0.000067,0.1668,0.068467,0.1668,0.1665,0.068467,0.1665,0,0.097933,-0.068467,0.1665,-0.1668,0.1665,-0.1668,0.068467,-0.097933,0.000067,-0.1668,-0.068467,-0.1668,-0.1664,-0.068467,-0.1664,0,-0.097933,0.068467,-0.1664,0.1668,-0.1664,0*%
%AMIconDiamond*4,1,4,0,-0.26,-0.26,0,0,0.26,0.26,0,0,-0.26,0*4,0,4,0,-0.203433,0.203433,0,0,0.2036,-0.203433,0,0,-0.203433,0*%
%AMIconRect2*4,1,6,0.2,-0.2,-0.2,-0.2,-0.2,0.2,-0.1668,0.1665,-0.166667,-0.166667,0.1668,-0.166667,0.2,-0.2,0*4,1,6,0.2,-0.2,0.1668,-0.166667,0.1668,0.1665,-0.1668,0.1665,-0.2,0.2,0.2,0.2,0.2,-0.2,0*4,1,6,0.133467,-0.133333,-0.133333,-0.133333,-0.133333,0.133467,-0.1,0.100133,-0.1,-0.1,0.100133,-0.1,0.133467,-0.133333,0*4,1,6,0.133467,-0.133333,0.100133,-0.1,0.100133,0.100133,-0.1,0.100133,-0.133333,0.133467,0.133467,0.133467,0.133467,-0.133333,0*%
%ADD10IconRect*%
%ADD11C,0.44X0.373333*%
%ADD12IconTriangle*%
%ADD13IconStar6*%
%ADD14IconStar4*%
%ADD15IconPlus*%
%ADD16IconX*%
%ADD17IconDiamond*%
%ADD18IconRect2*%
G75*


G04 Drill Drawing Start*
G54D10*
G01X2036000Y393700D03*
G01X2536000Y393700D03*
G54D11*
G01X2692249Y5618701D03*
G01X3193600Y5580601D03*
G01X3197150Y5779101D03*
G01X3592100Y5677501D03*
G54D12*
G01X2987900Y980375D03*
G01X2987900Y1466875D03*
G01X8653812Y5413618D03*
G01X8658425Y4384918D03*
G54D13*
G01X1393650Y1306350D03*
G01X1393650Y3506350D03*
G01X5594350Y5340350D03*
G01X8793650Y506350D03*
G01X8793650Y3506350D03*
G54D14*
G01X321711Y1703485D03*
G01X321711Y1957485D03*
G01X321711Y2211485D03*
G01X575711Y1703485D03*
G01X575711Y1957485D03*
G01X575711Y2211485D03*
G01X4229100Y444500D03*
G01X4483100Y444500D03*
G54D15*
G01X1295400Y1790700D03*
G01X1295400Y2044700D03*
G01X1295400Y2298700D03*
G01X1295400Y2552700D03*
G01X2489200Y1790700D03*
G01X2489200Y2044700D03*
G01X2489200Y2298700D03*
G01X2489200Y2552700D03*
G01X2595090Y4261361D03*
G01X2849090Y4261361D03*
G01X3103090Y4261361D03*
G01X3357090Y4261361D03*
G01X3611090Y4261361D03*
G01X5510693Y439274D03*
G01X5764693Y439274D03*
G01X6018693Y439274D03*
G01X6272693Y439274D03*
G54D16*
G01X190500Y4292600D03*
G01X190500Y5410200D03*
G01X444500Y4292600D03*
G01X444500Y5410200D03*
G01X698500Y4292600D03*
G01X698500Y5410200D03*
G01X889312Y1029731D03*
G01X889312Y1283731D03*
G01X889312Y1537731D03*
G01X889312Y1791731D03*
G01X889312Y2045731D03*
G01X889312Y2299731D03*
G01X889312Y2553731D03*
G01X889312Y2807731D03*
G01X952500Y4292600D03*
G01X952500Y5410200D03*
G01X1206500Y4292600D03*
G01X1206500Y5410200D03*
G01X1460500Y4292600D03*
G01X1460500Y5410200D03*
G01X1714500Y4292600D03*
G01X1714500Y5410200D03*
G01X1968500Y4292600D03*
G01X1968500Y5410200D03*
G54D17*
G01X395200Y539775D03*
G01X431800Y2870200D03*
G01X1130300Y1663700D03*
G01X1373100Y535875D03*
G01X2019300Y1295400D03*
G01X2438400Y1384300D03*
G01X2476500Y1498600D03*
G01X2679700Y1028700D03*
G01X2679700Y1422400D03*
G01X2679700Y1651000D03*
G01X2679700Y2120900D03*
G01X3073400Y2095500D03*
G01X3251200Y1905000D03*
G01X3581400Y2692400D03*
G01X3619500Y2400300D03*
G01X3827935Y2128756D03*
G01X3835400Y2984500D03*
G01X3848100Y1879600D03*
G01X3885967Y1079500D03*
G01X4394200Y3149600D03*
G01X4394200Y3289300D03*
G01X4406900Y596900D03*
G01X4411322Y1054100D03*
G01X4533900Y1752600D03*
G01X4660900Y1054100D03*
G01X4724400Y2349500D03*
G01X4960522Y493846D03*
G01X5021446Y3454740D03*
G01X5194300Y2501900D03*
G01X5226972Y1092599D03*
G01X5232400Y635000D03*
G01X5245100Y1384300D03*
G01X5359400Y673100D03*
G01X5422900Y2743200D03*
G01X5473700Y1879600D03*
G01X5753100Y2060840D03*
G01X5791200Y609600D03*
G01X6159500Y2908300D03*
G01X6413500Y1752600D03*
G01X6489700Y1244600D03*
G01X6527800Y1168400D03*
G01X6527800Y2692400D03*
G01X6705600Y1117600D03*
G01X7264400Y2692400D03*
G01X7302500Y2933700D03*
G01X7620000Y2070100D03*
G01X8293100Y1752600D03*
G54D18*
G01X3746500Y1244600D03*
G01X3746500Y1498600D03*
G01X3746500Y1752600D03*
G01X3746500Y2006600D03*
G01X3746500Y2260600D03*
G01X4025900Y965200D03*
G01X4025900Y2540000D03*
G01X4279900Y965200D03*
G01X4279900Y2540000D03*
G01X4533900Y965200D03*
G01X4533900Y2540000D03*
G01X4787900Y965200D03*
G01X4787900Y2540000D03*
G01X5041900Y965200D03*
G01X5041900Y2540000D03*
G01X5321300Y1244600D03*
G01X5321300Y1498600D03*
G01X5321300Y1752600D03*
G01X5321300Y2006600D03*
G01X5321300Y2260600D03*
G01X5626100Y1244600D03*
G01X5626100Y1498600D03*
G01X5626100Y1752600D03*
G01X5626100Y2006600D03*
G01X5626100Y2260600D03*
G01X5905500Y965200D03*
G01X5905500Y2540000D03*
G01X6159500Y965200D03*
G01X6159500Y2540000D03*
G01X6413500Y965200D03*
G01X6413500Y2540000D03*
G01X6667500Y965200D03*
G01X6667500Y2540000D03*
G01X6667500Y3048000D03*
G01X6921500Y965200D03*
G01X6921500Y2540000D03*
G01X6921500Y3048000D03*
G01X7175500Y3048000D03*
G01X7200900Y1244600D03*
G01X7200900Y1498600D03*
G01X7200900Y1752600D03*
G01X7200900Y2006600D03*
G01X7200900Y2260600D03*
G01X7429500Y3048000D03*
G01X7505700Y1244600D03*
G01X7505700Y1498600D03*
G01X7505700Y1752600D03*
G01X7505700Y2006600D03*
G01X7505700Y2260600D03*
G01X7683500Y3048000D03*
G01X7785100Y965200D03*
G01X7785100Y2540000D03*
G01X8039100Y965200D03*
G01X8039100Y2540000D03*
G01X8293100Y965200D03*
G01X8293100Y2540000D03*
G01X8547100Y965200D03*
G01X8547100Y2540000D03*
G01X8801100Y965200D03*
G01X8801100Y2540000D03*
G01X9080500Y1244600D03*
G01X9080500Y1498600D03*
G01X9080500Y1752600D03*
G01X9080500Y2006600D03*
G01X9080500Y2260600D03*
G01X9131300Y4399157D03*
G01X9131300Y4653157D03*
G01X9131300Y4907157D03*
G01X9131300Y5161157D03*
G01X9131300Y5415157D03*
G04 Drill Drawing End*

M02*

