G04 Layer: TopSilkscreenLayer*
G04 EasyEDA Pro v2.2.28.1, 2024-09-17 23:40:12*
G04 Gerber Generator version 0.3*
G04 Scale: 100 percent, Rotated: No, Reflected: No*
G04 Dimensions in millimeters*
G04 Leading zeros omitted, absolute positions, 3 integers and 5 decimals*
%FSLAX35Y35*%
%MOMM*%
%ADD10C,0.203*%
%ADD11C,0.15*%
%ADD12C,0.1524*%
%ADD13C,0.254*%
%ADD14C,0.11999*%
%ADD15C,0.15011*%
%ADD16C,0.127*%
%ADD17C,0.3*%
%ADD18C,0.2*%
%ADD19C,0.3112*%
%ADD20C,0.30508*%
G75*


G04 Text Start*
G54D10*
G01X763270Y613410D02*
G01X763270Y453390D01*
G01X683260Y533400D02*
G01X843280Y533400D01*
G01X906272Y533400D02*
G01X1066292Y533400D01*
G01X2036422Y834082D02*
G01X2036422Y637232D01*
G01X1938124Y735530D02*
G01X2134720Y735530D01*
G01X2452220Y735530D02*
G01X2649070Y735530D01*
G54D11*
G01X2722852Y5257549D02*
G01X2722852Y5201923D01*
G01X2704310Y5257549D02*
G01X2741394Y5257549D01*
G01X2806418Y5249675D02*
G01X2801084Y5255009D01*
G01X2792956Y5257549D01*
G01X2782542Y5257549D01*
G01X2774414Y5255009D01*
G01X2769080Y5249675D01*
G01X2769080Y5244341D01*
G01X2771874Y5239007D01*
G01X2774414Y5236467D01*
G01X2779748Y5233673D01*
G01X2795750Y5228339D01*
G01X2801084Y5225799D01*
G01X2803624Y5223005D01*
G01X2806418Y5217671D01*
G01X2806418Y5209797D01*
G01X2801084Y5204463D01*
G01X2792956Y5201923D01*
G01X2782542Y5201923D01*
G01X2774414Y5204463D01*
G01X2769080Y5209797D01*
G01X2362962Y3815588D02*
G01X2362962Y3759962D01*
G01X2344420Y3815588D02*
G01X2381504Y3815588D01*
G01X2446528Y3807714D02*
G01X2441194Y3813048D01*
G01X2433066Y3815588D01*
G01X2422652Y3815588D01*
G01X2414524Y3813048D01*
G01X2409190Y3807714D01*
G01X2409190Y3802380D01*
G01X2411984Y3797046D01*
G01X2414524Y3794506D01*
G01X2419858Y3791712D01*
G01X2435860Y3786378D01*
G01X2441194Y3783838D01*
G01X2443734Y3781044D01*
G01X2446528Y3775710D01*
G01X2446528Y3767836D01*
G01X2441194Y3762502D01*
G01X2433066Y3759962D01*
G01X2422652Y3759962D01*
G01X2414524Y3762502D01*
G01X2409190Y3767836D01*
G01X4204462Y5517388D02*
G01X4204462Y5461762D01*
G01X4185920Y5517388D02*
G01X4223004Y5517388D01*
G01X4288028Y5509514D02*
G01X4282694Y5514848D01*
G01X4274566Y5517388D01*
G01X4264152Y5517388D01*
G01X4256024Y5514848D01*
G01X4250690Y5509514D01*
G01X4250690Y5504180D01*
G01X4253484Y5498846D01*
G01X4256024Y5496306D01*
G01X4261358Y5493512D01*
G01X4277360Y5488178D01*
G01X4282694Y5485638D01*
G01X4285234Y5482844D01*
G01X4288028Y5477510D01*
G01X4288028Y5469636D01*
G01X4282694Y5464302D01*
G01X4274566Y5461762D01*
G01X4264152Y5461762D01*
G01X4256024Y5464302D01*
G01X4250690Y5469636D01*
G01X3486912Y5794502D02*
G01X3542538Y5773420D01*
G01X3486912Y5794502D02*
G01X3542538Y5815838D01*
G01X3523996Y5781294D02*
G01X3523996Y5807710D01*
G01X3499612Y5532120D02*
G01X3555238Y5532120D01*
G01X3499612Y5569204D02*
G01X3536696Y5532120D01*
G01X3523488Y5545328D02*
G01X3555238Y5569204D01*
G54D12*
G01X4252371Y2097235D02*
G01X4252371Y2050753D01*
G01X4255419Y2041609D01*
G01X4261769Y2035259D01*
G01X4270913Y2032211D01*
G01X4277263Y2032211D01*
G01X4286407Y2035259D01*
G01X4292503Y2041609D01*
G01X4295805Y2050753D01*
G01X4295805Y2097235D01*
G01X4332127Y2097235D02*
G01X4366163Y2097235D01*
G01X4347621Y2072597D01*
G01X4356765Y2072597D01*
G01X4363115Y2069549D01*
G01X4366163Y2066247D01*
G01X4369211Y2057103D01*
G01X4369211Y2050753D01*
G01X4366163Y2041609D01*
G01X4360067Y2035259D01*
G01X4350669Y2032211D01*
G01X4341271Y2032211D01*
G01X4332127Y2035259D01*
G01X4329079Y2038561D01*
G01X4326031Y2044657D01*
G01X6131971Y2097235D02*
G01X6131971Y2050753D01*
G01X6135019Y2041609D01*
G01X6141369Y2035259D01*
G01X6150513Y2032211D01*
G01X6156863Y2032211D01*
G01X6166007Y2035259D01*
G01X6172103Y2041609D01*
G01X6175405Y2050753D01*
G01X6175405Y2097235D01*
G01X6208679Y2081741D02*
G01X6208679Y2084789D01*
G01X6211727Y2091139D01*
G01X6214775Y2094187D01*
G01X6220871Y2097235D01*
G01X6233317Y2097235D01*
G01X6239667Y2094187D01*
G01X6242715Y2091139D01*
G01X6245763Y2084789D01*
G01X6245763Y2078693D01*
G01X6242715Y2072597D01*
G01X6236365Y2063199D01*
G01X6205631Y2032211D01*
G01X6248811Y2032211D01*
G01X8011571Y2097235D02*
G01X8011571Y2050753D01*
G01X8014619Y2041609D01*
G01X8020969Y2035259D01*
G01X8030113Y2032211D01*
G01X8036463Y2032211D01*
G01X8045607Y2035259D01*
G01X8051703Y2041609D01*
G01X8055005Y2050753D01*
G01X8055005Y2097235D01*
G01X8122315Y2088091D02*
G01X8119267Y2094187D01*
G01X8109869Y2097235D01*
G01X8103773Y2097235D01*
G01X8094375Y2094187D01*
G01X8088279Y2084789D01*
G01X8085231Y2069549D01*
G01X8085231Y2054055D01*
G01X8088279Y2041609D01*
G01X8094375Y2035259D01*
G01X8103773Y2032211D01*
G01X8106821Y2032211D01*
G01X8115965Y2035259D01*
G01X8122315Y2041609D01*
G01X8125363Y2050753D01*
G01X8125363Y2054055D01*
G01X8122315Y2063199D01*
G01X8115965Y2069549D01*
G01X8106821Y2072597D01*
G01X8103773Y2072597D01*
G01X8094375Y2069549D01*
G01X8088279Y2063199D01*
G01X8085231Y2054055D01*
G01X4414520Y3205734D02*
G01X4414520Y3140710D01*
G01X4414520Y3140710D02*
G01X4451604Y3140710D01*
G01X4481830Y3205734D02*
G01X4481830Y3140710D01*
G01X4481830Y3205734D02*
G01X4521962Y3205734D01*
G01X4481830Y3174746D02*
G01X4506468Y3174746D01*
G01X4481830Y3140710D02*
G01X4521962Y3140710D01*
G01X4552188Y3205734D02*
G01X4552188Y3140710D01*
G01X4552188Y3205734D02*
G01X4573778Y3205734D01*
G01X4582922Y3202686D01*
G01X4589272Y3196590D01*
G01X4592320Y3190240D01*
G01X4595368Y3181096D01*
G01X4595368Y3165602D01*
G01X4592320Y3156204D01*
G01X4589272Y3150108D01*
G01X4582922Y3143758D01*
G01X4573778Y3140710D01*
G01X4552188Y3140710D01*
G01X4625594Y3193288D02*
G01X4631690Y3196590D01*
G01X4640834Y3205734D01*
G01X4640834Y3140710D01*
G01X5138420Y3332734D02*
G01X5138420Y3267710D01*
G01X5138420Y3332734D02*
G01X5166360Y3332734D01*
G01X5175504Y3329686D01*
G01X5178552Y3326638D01*
G01X5181854Y3320288D01*
G01X5181854Y3314192D01*
G01X5178552Y3308096D01*
G01X5175504Y3305048D01*
G01X5166360Y3301746D01*
G01X5138420Y3301746D01*
G01X5160010Y3301746D02*
G01X5181854Y3267710D01*
G01X5249164Y3323590D02*
G01X5246116Y3329686D01*
G01X5236718Y3332734D01*
G01X5230622Y3332734D01*
G01X5221224Y3329686D01*
G01X5215128Y3320288D01*
G01X5212080Y3305048D01*
G01X5212080Y3289554D01*
G01X5215128Y3277108D01*
G01X5221224Y3270758D01*
G01X5230622Y3267710D01*
G01X5233670Y3267710D01*
G01X5242814Y3270758D01*
G01X5249164Y3277108D01*
G01X5252212Y3286252D01*
G01X5252212Y3289554D01*
G01X5249164Y3298698D01*
G01X5242814Y3305048D01*
G01X5233670Y3308096D01*
G01X5230622Y3308096D01*
G01X5221224Y3305048D01*
G01X5215128Y3298698D01*
G01X5212080Y3289554D01*
G01X4706620Y3447034D02*
G01X4706620Y3382010D01*
G01X4706620Y3447034D02*
G01X4734560Y3447034D01*
G01X4743704Y3443986D01*
G01X4746752Y3440938D01*
G01X4750054Y3434588D01*
G01X4750054Y3428492D01*
G01X4746752Y3422396D01*
G01X4743704Y3419348D01*
G01X4734560Y3416046D01*
G01X4706620Y3416046D01*
G01X4728210Y3416046D02*
G01X4750054Y3382010D01*
G01X4817364Y3447034D02*
G01X4786376Y3447034D01*
G01X4783328Y3419348D01*
G01X4786376Y3422396D01*
G01X4795520Y3425444D01*
G01X4804918Y3425444D01*
G01X4814316Y3422396D01*
G01X4820412Y3416046D01*
G01X4823460Y3406902D01*
G01X4823460Y3400552D01*
G01X4820412Y3391408D01*
G01X4814316Y3385058D01*
G01X4804918Y3382010D01*
G01X4795520Y3382010D01*
G01X4786376Y3385058D01*
G01X4783328Y3388360D01*
G01X4780280Y3394456D01*
G01X5363210Y3518154D02*
G01X5357114Y3511804D01*
G01X5354066Y3502660D01*
G01X5354066Y3490214D01*
G01X5357114Y3480816D01*
G01X5363210Y3474720D01*
G01X5369560Y3474720D01*
G01X5375656Y3477768D01*
G01X5378704Y3480816D01*
G01X5381752Y3487166D01*
G01X5388102Y3505708D01*
G01X5391150Y3511804D01*
G01X5394198Y3514852D01*
G01X5400548Y3518154D01*
G01X5409692Y3518154D01*
G01X5416042Y3511804D01*
G01X5419090Y3502660D01*
G01X5419090Y3490214D01*
G01X5416042Y3480816D01*
G01X5409692Y3474720D01*
G01X5354066Y3548380D02*
G01X5419090Y3563620D01*
G01X5354066Y3579114D02*
G01X5419090Y3563620D01*
G01X5354066Y3579114D02*
G01X5419090Y3594608D01*
G01X5354066Y3610102D02*
G01X5419090Y3594608D01*
G01X5366512Y3640328D02*
G01X5363210Y3646424D01*
G01X5354066Y3655568D01*
G01X5419090Y3655568D01*
G01X5138420Y3218434D02*
G01X5138420Y3153410D01*
G01X5138420Y3153410D02*
G01X5175504Y3153410D01*
G01X5205730Y3218434D02*
G01X5205730Y3153410D01*
G01X5205730Y3218434D02*
G01X5245862Y3218434D01*
G01X5205730Y3187446D02*
G01X5230368Y3187446D01*
G01X5205730Y3153410D02*
G01X5245862Y3153410D01*
G01X5276088Y3218434D02*
G01X5276088Y3153410D01*
G01X5276088Y3218434D02*
G01X5297678Y3218434D01*
G01X5306822Y3215386D01*
G01X5313172Y3209290D01*
G01X5316220Y3202940D01*
G01X5319268Y3193796D01*
G01X5319268Y3178302D01*
G01X5316220Y3168904D01*
G01X5313172Y3162808D01*
G01X5306822Y3156458D01*
G01X5297678Y3153410D01*
G01X5276088Y3153410D01*
G01X5352542Y3202940D02*
G01X5352542Y3205988D01*
G01X5355590Y3212338D01*
G01X5358638Y3215386D01*
G01X5364734Y3218434D01*
G01X5377180Y3218434D01*
G01X5383530Y3215386D01*
G01X5386578Y3212338D01*
G01X5389626Y3205988D01*
G01X5389626Y3199892D01*
G01X5386578Y3193796D01*
G01X5380228Y3184398D01*
G01X5349494Y3153410D01*
G01X5392674Y3153410D01*
G01X7919720Y4615434D02*
G01X7919720Y4550410D01*
G01X7919720Y4550410D02*
G01X7956804Y4550410D01*
G01X7987030Y4615434D02*
G01X7987030Y4550410D01*
G01X7987030Y4615434D02*
G01X8027162Y4615434D01*
G01X7987030Y4584446D02*
G01X8011668Y4584446D01*
G01X7987030Y4550410D02*
G01X8027162Y4550410D01*
G01X8057388Y4615434D02*
G01X8057388Y4550410D01*
G01X8057388Y4615434D02*
G01X8078978Y4615434D01*
G01X8088122Y4612386D01*
G01X8094472Y4606290D01*
G01X8097520Y4599940D01*
G01X8100568Y4590796D01*
G01X8100568Y4575302D01*
G01X8097520Y4565904D01*
G01X8094472Y4559808D01*
G01X8088122Y4553458D01*
G01X8078978Y4550410D01*
G01X8057388Y4550410D01*
G01X8136890Y4615434D02*
G01X8170926Y4615434D01*
G01X8152384Y4590796D01*
G01X8161528Y4590796D01*
G01X8167878Y4587748D01*
G01X8170926Y4584446D01*
G01X8173974Y4575302D01*
G01X8173974Y4568952D01*
G01X8170926Y4559808D01*
G01X8164830Y4553458D01*
G01X8155432Y4550410D01*
G01X8146034Y4550410D01*
G01X8136890Y4553458D01*
G01X8133842Y4556760D01*
G01X8130794Y4562856D01*
G01X1747520Y2519934D02*
G01X1747520Y2473452D01*
G01X1750568Y2464308D01*
G01X1756918Y2457958D01*
G01X1766062Y2454910D01*
G01X1772412Y2454910D01*
G01X1781556Y2457958D01*
G01X1787652Y2464308D01*
G01X1790954Y2473452D01*
G01X1790954Y2519934D01*
G01X1864360Y2519934D02*
G01X1833372Y2454910D01*
G01X1821180Y2519934D02*
G01X1864360Y2519934D01*
G01X3944620Y3154934D02*
G01X3944620Y3089910D01*
G01X3944620Y3154934D02*
G01X3972560Y3154934D01*
G01X3981704Y3151886D01*
G01X3984752Y3148838D01*
G01X3988054Y3142488D01*
G01X3988054Y3136392D01*
G01X3984752Y3130296D01*
G01X3981704Y3127248D01*
G01X3972560Y3123946D01*
G01X3944620Y3123946D01*
G01X3966210Y3123946D02*
G01X3988054Y3089910D01*
G01X4061460Y3154934D02*
G01X4030472Y3089910D01*
G01X4018280Y3154934D02*
G01X4061460Y3154934D01*
G01X3093720Y2405634D02*
G01X3093720Y2340610D01*
G01X3093720Y2405634D02*
G01X3121660Y2405634D01*
G01X3130804Y2402586D01*
G01X3133852Y2399538D01*
G01X3137154Y2393188D01*
G01X3137154Y2387092D01*
G01X3133852Y2380996D01*
G01X3130804Y2377948D01*
G01X3121660Y2374646D01*
G01X3093720Y2374646D01*
G01X3115310Y2374646D02*
G01X3137154Y2340610D01*
G01X3182620Y2405634D02*
G01X3173476Y2402586D01*
G01X3170428Y2396490D01*
G01X3170428Y2390140D01*
G01X3173476Y2384044D01*
G01X3179572Y2380996D01*
G01X3192018Y2377948D01*
G01X3201416Y2374646D01*
G01X3207512Y2368550D01*
G01X3210560Y2362454D01*
G01X3210560Y2353056D01*
G01X3207512Y2346960D01*
G01X3204464Y2343658D01*
G01X3195066Y2340610D01*
G01X3182620Y2340610D01*
G01X3173476Y2343658D01*
G01X3170428Y2346960D01*
G01X3167380Y2353056D01*
G01X3167380Y2362454D01*
G01X3170428Y2368550D01*
G01X3176524Y2374646D01*
G01X3185922Y2377948D01*
G01X3198114Y2380996D01*
G01X3204464Y2384044D01*
G01X3207512Y2390140D01*
G01X3207512Y2396490D01*
G01X3204464Y2402586D01*
G01X3195066Y2405634D01*
G01X3182620Y2405634D01*
G01X3131566Y1976120D02*
G01X3196590Y1976120D01*
G01X3131566Y1976120D02*
G01X3131566Y2004060D01*
G01X3134614Y2013204D01*
G01X3137662Y2016252D01*
G01X3144012Y2019554D01*
G01X3150108Y2019554D01*
G01X3156204Y2016252D01*
G01X3159252Y2013204D01*
G01X3162554Y2004060D01*
G01X3162554Y1976120D01*
G01X3162554Y1997710D02*
G01X3196590Y2019554D01*
G01X3153156Y2089912D02*
G01X3162554Y2086864D01*
G01X3168650Y2080514D01*
G01X3171698Y2071370D01*
G01X3171698Y2068322D01*
G01X3168650Y2058924D01*
G01X3162554Y2052828D01*
G01X3153156Y2049780D01*
G01X3150108Y2049780D01*
G01X3140710Y2052828D01*
G01X3134614Y2058924D01*
G01X3131566Y2068322D01*
G01X3131566Y2071370D01*
G01X3134614Y2080514D01*
G01X3140710Y2086864D01*
G01X3153156Y2089912D01*
G01X3168650Y2089912D01*
G01X3184144Y2086864D01*
G01X3193542Y2080514D01*
G01X3196590Y2071370D01*
G01X3196590Y2065020D01*
G01X3193542Y2055876D01*
G01X3187192Y2052828D01*
G01X4693920Y437134D02*
G01X4693920Y372110D01*
G01X4693920Y437134D02*
G01X4721860Y437134D01*
G01X4731004Y434086D01*
G01X4734052Y431038D01*
G01X4737354Y424688D01*
G01X4737354Y418592D01*
G01X4734052Y412496D01*
G01X4731004Y409448D01*
G01X4721860Y406146D01*
G01X4693920Y406146D01*
G01X4715510Y406146D02*
G01X4737354Y372110D01*
G01X4767580Y424688D02*
G01X4773676Y427990D01*
G01X4782820Y437134D01*
G01X4782820Y372110D01*
G01X4831588Y437134D02*
G01X4822190Y434086D01*
G01X4816094Y424688D01*
G01X4813046Y409448D01*
G01X4813046Y400050D01*
G01X4816094Y384556D01*
G01X4822190Y375158D01*
G01X4831588Y372110D01*
G01X4837684Y372110D01*
G01X4847082Y375158D01*
G01X4853178Y384556D01*
G01X4856226Y400050D01*
G01X4856226Y409448D01*
G01X4853178Y424688D01*
G01X4847082Y434086D01*
G01X4837684Y437134D01*
G01X4831588Y437134D01*
G01X5443220Y3129534D02*
G01X5443220Y3064510D01*
G01X5443220Y3129534D02*
G01X5471160Y3129534D01*
G01X5480304Y3126486D01*
G01X5483352Y3123438D01*
G01X5486654Y3117088D01*
G01X5486654Y3110992D01*
G01X5483352Y3104896D01*
G01X5480304Y3101848D01*
G01X5471160Y3098546D01*
G01X5443220Y3098546D01*
G01X5464810Y3098546D02*
G01X5486654Y3064510D01*
G01X5516880Y3117088D02*
G01X5522976Y3120390D01*
G01X5532120Y3129534D01*
G01X5532120Y3064510D01*
G01X5562346Y3117088D02*
G01X5568442Y3120390D01*
G01X5577586Y3129534D01*
G01X5577586Y3064510D01*
G01X4234434Y805180D02*
G01X4169410Y805180D01*
G01X4234434Y805180D02*
G01X4234434Y777240D01*
G01X4231386Y768096D01*
G01X4228338Y765048D01*
G01X4221988Y761746D01*
G01X4215892Y761746D01*
G01X4209796Y765048D01*
G01X4206748Y768096D01*
G01X4203446Y777240D01*
G01X4203446Y805180D01*
G01X4203446Y783590D02*
G01X4169410Y761746D01*
G01X4221988Y731520D02*
G01X4225290Y725424D01*
G01X4234434Y716280D01*
G01X4169410Y716280D01*
G01X4218940Y683006D02*
G01X4221988Y683006D01*
G01X4228338Y679958D01*
G01X4231386Y676910D01*
G01X4234434Y670814D01*
G01X4234434Y658368D01*
G01X4231386Y652018D01*
G01X4228338Y648970D01*
G01X4221988Y645922D01*
G01X4215892Y645922D01*
G01X4209796Y648970D01*
G01X4200398Y655320D01*
G01X4169410Y686054D01*
G01X4169410Y642874D01*
G01X2949463Y2576413D02*
G01X2884439Y2576413D01*
G01X2949463Y2576413D02*
G01X2949463Y2548473D01*
G01X2946415Y2539329D01*
G01X2943367Y2536281D01*
G01X2937017Y2532979D01*
G01X2930921Y2532979D01*
G01X2924825Y2536281D01*
G01X2921777Y2539329D01*
G01X2918475Y2548473D01*
G01X2918475Y2576413D01*
G01X2918475Y2554823D02*
G01X2884439Y2532979D01*
G01X2937017Y2502753D02*
G01X2940319Y2496657D01*
G01X2949463Y2487513D01*
G01X2884439Y2487513D01*
G01X2949463Y2451191D02*
G01X2949463Y2417155D01*
G01X2924825Y2435697D01*
G01X2924825Y2426553D01*
G01X2921777Y2420203D01*
G01X2918475Y2417155D01*
G01X2909331Y2414107D01*
G01X2902981Y2414107D01*
G01X2893837Y2417155D01*
G01X2887487Y2423251D01*
G01X2884439Y2432649D01*
G01X2884439Y2442047D01*
G01X2887487Y2451191D01*
G01X2890789Y2454239D01*
G01X2896885Y2457287D01*
G01X1645666Y2585720D02*
G01X1710690Y2585720D01*
G01X1645666Y2585720D02*
G01X1645666Y2613660D01*
G01X1648714Y2622804D01*
G01X1651762Y2625852D01*
G01X1658112Y2629154D01*
G01X1664208Y2629154D01*
G01X1670304Y2625852D01*
G01X1673352Y2622804D01*
G01X1676654Y2613660D01*
G01X1676654Y2585720D01*
G01X1676654Y2607310D02*
G01X1710690Y2629154D01*
G01X1658112Y2659380D02*
G01X1654810Y2665476D01*
G01X1645666Y2674620D01*
G01X1710690Y2674620D01*
G01X1645666Y2735580D02*
G01X1688846Y2704846D01*
G01X1688846Y2751074D01*
G01X1645666Y2735580D02*
G01X1710690Y2735580D01*
G01X6255766Y642620D02*
G01X6320790Y642620D01*
G01X6255766Y642620D02*
G01X6255766Y670560D01*
G01X6258814Y679704D01*
G01X6261862Y682752D01*
G01X6268212Y686054D01*
G01X6274308Y686054D01*
G01X6280404Y682752D01*
G01X6283452Y679704D01*
G01X6286754Y670560D01*
G01X6286754Y642620D01*
G01X6286754Y664210D02*
G01X6320790Y686054D01*
G01X6268212Y716280D02*
G01X6264910Y722376D01*
G01X6255766Y731520D01*
G01X6320790Y731520D01*
G01X6255766Y798830D02*
G01X6255766Y767842D01*
G01X6283452Y764794D01*
G01X6280404Y767842D01*
G01X6277356Y776986D01*
G01X6277356Y786384D01*
G01X6280404Y795782D01*
G01X6286754Y801878D01*
G01X6295898Y804926D01*
G01X6302248Y804926D01*
G01X6311392Y801878D01*
G01X6317742Y795782D01*
G01X6320790Y786384D01*
G01X6320790Y776986D01*
G01X6317742Y767842D01*
G01X6314440Y764794D01*
G01X6308344Y761746D01*
G01X7119366Y642620D02*
G01X7184390Y642620D01*
G01X7119366Y642620D02*
G01X7119366Y670560D01*
G01X7122414Y679704D01*
G01X7125462Y682752D01*
G01X7131812Y686054D01*
G01X7137908Y686054D01*
G01X7144004Y682752D01*
G01X7147052Y679704D01*
G01X7150354Y670560D01*
G01X7150354Y642620D01*
G01X7150354Y664210D02*
G01X7184390Y686054D01*
G01X7131812Y716280D02*
G01X7128510Y722376D01*
G01X7119366Y731520D01*
G01X7184390Y731520D01*
G01X7128510Y798830D02*
G01X7122414Y795782D01*
G01X7119366Y786384D01*
G01X7119366Y780288D01*
G01X7122414Y770890D01*
G01X7131812Y764794D01*
G01X7147052Y761746D01*
G01X7162546Y761746D01*
G01X7174992Y764794D01*
G01X7181342Y770890D01*
G01X7184390Y780288D01*
G01X7184390Y783336D01*
G01X7181342Y792480D01*
G01X7174992Y798830D01*
G01X7165848Y801878D01*
G01X7162546Y801878D01*
G01X7153402Y798830D01*
G01X7147052Y792480D01*
G01X7144004Y783336D01*
G01X7144004Y780288D01*
G01X7147052Y770890D01*
G01X7153402Y764794D01*
G01X7162546Y761746D01*
G01X7223430Y360503D02*
G01X7288454Y360503D01*
G01X7223430Y360503D02*
G01X7223430Y388443D01*
G01X7226478Y397587D01*
G01X7229526Y400635D01*
G01X7235876Y403937D01*
G01X7241972Y403937D01*
G01X7248068Y400635D01*
G01X7251116Y397587D01*
G01X7254418Y388443D01*
G01X7254418Y360503D01*
G01X7254418Y382093D02*
G01X7288454Y403937D01*
G01X7235876Y434163D02*
G01X7232574Y440259D01*
G01X7223430Y449403D01*
G01X7288454Y449403D01*
G01X7223430Y522809D02*
G01X7288454Y491821D01*
G01X7223430Y479629D02*
G01X7223430Y522809D01*
G01X5787466Y110820D02*
G01X5852490Y110820D01*
G01X5787466Y110820D02*
G01X5787466Y138760D01*
G01X5790514Y147904D01*
G01X5793562Y150952D01*
G01X5799912Y154254D01*
G01X5806008Y154254D01*
G01X5812104Y150952D01*
G01X5815152Y147904D01*
G01X5818454Y138760D01*
G01X5818454Y110820D01*
G01X5818454Y132410D02*
G01X5852490Y154254D01*
G01X5799912Y184480D02*
G01X5796610Y190576D01*
G01X5787466Y199720D01*
G01X5852490Y199720D01*
G01X5787466Y245186D02*
G01X5790514Y236042D01*
G01X5796610Y232994D01*
G01X5802960Y232994D01*
G01X5809056Y236042D01*
G01X5812104Y242138D01*
G01X5815152Y254584D01*
G01X5818454Y263982D01*
G01X5824550Y270078D01*
G01X5830646Y273126D01*
G01X5840044Y273126D01*
G01X5846140Y270078D01*
G01X5849442Y267030D01*
G01X5852490Y257632D01*
G01X5852490Y245186D01*
G01X5849442Y236042D01*
G01X5846140Y232994D01*
G01X5840044Y229946D01*
G01X5830646Y229946D01*
G01X5824550Y232994D01*
G01X5818454Y239090D01*
G01X5815152Y248488D01*
G01X5812104Y260680D01*
G01X5809056Y267030D01*
G01X5802960Y270078D01*
G01X5796610Y270078D01*
G01X5790514Y267030D01*
G01X5787466Y257632D01*
G01X5787466Y245186D01*
G01X3614420Y2723134D02*
G01X3614420Y2676652D01*
G01X3617468Y2667508D01*
G01X3623818Y2661158D01*
G01X3632962Y2658110D01*
G01X3639312Y2658110D01*
G01X3648456Y2661158D01*
G01X3654552Y2667508D01*
G01X3657854Y2676652D01*
G01X3657854Y2723134D01*
G01X3688080Y2710688D02*
G01X3694176Y2713990D01*
G01X3703320Y2723134D01*
G01X3703320Y2658110D01*
G01X3733546Y2710688D02*
G01X3739642Y2713990D01*
G01X3748786Y2723134D01*
G01X3748786Y2658110D01*
G01X3187785Y2738262D02*
G01X3187785Y2673238D01*
G01X3187785Y2738262D02*
G01X3215725Y2738262D01*
G01X3224869Y2735214D01*
G01X3227917Y2732166D01*
G01X3231219Y2725816D01*
G01X3231219Y2719720D01*
G01X3227917Y2713624D01*
G01X3224869Y2710576D01*
G01X3215725Y2707274D01*
G01X3187785Y2707274D01*
G01X3209375Y2707274D02*
G01X3231219Y2673238D01*
G01X3264493Y2722768D02*
G01X3264493Y2725816D01*
G01X3267541Y2732166D01*
G01X3270589Y2735214D01*
G01X3276685Y2738262D01*
G01X3289131Y2738262D01*
G01X3295481Y2735214D01*
G01X3298529Y2732166D01*
G01X3301577Y2725816D01*
G01X3301577Y2719720D01*
G01X3298529Y2713624D01*
G01X3292179Y2704226D01*
G01X3261445Y2673238D01*
G01X3304625Y2673238D01*
G01X3371935Y2729118D02*
G01X3368887Y2735214D01*
G01X3359489Y2738262D01*
G01X3353393Y2738262D01*
G01X3343995Y2735214D01*
G01X3337899Y2725816D01*
G01X3334851Y2710576D01*
G01X3334851Y2695082D01*
G01X3337899Y2682636D01*
G01X3343995Y2676286D01*
G01X3353393Y2673238D01*
G01X3356441Y2673238D01*
G01X3365585Y2676286D01*
G01X3371935Y2682636D01*
G01X3374983Y2691780D01*
G01X3374983Y2695082D01*
G01X3371935Y2704226D01*
G01X3365585Y2710576D01*
G01X3356441Y2713624D01*
G01X3353393Y2713624D01*
G01X3343995Y2710576D01*
G01X3337899Y2704226D01*
G01X3334851Y2695082D01*
G01X5557520Y691134D02*
G01X5557520Y626110D01*
G01X5557520Y691134D02*
G01X5585460Y691134D01*
G01X5594604Y688086D01*
G01X5597652Y685038D01*
G01X5600954Y678688D01*
G01X5600954Y672592D01*
G01X5597652Y666496D01*
G01X5594604Y663448D01*
G01X5585460Y660146D01*
G01X5557520Y660146D01*
G01X5579110Y660146D02*
G01X5600954Y626110D01*
G01X5631180Y678688D02*
G01X5637276Y681990D01*
G01X5646420Y691134D01*
G01X5646420Y626110D01*
G01X5716778Y669544D02*
G01X5713730Y660146D01*
G01X5707380Y654050D01*
G01X5698236Y651002D01*
G01X5695188Y651002D01*
G01X5685790Y654050D01*
G01X5679694Y660146D01*
G01X5676646Y669544D01*
G01X5676646Y672592D01*
G01X5679694Y681990D01*
G01X5685790Y688086D01*
G01X5695188Y691134D01*
G01X5698236Y691134D01*
G01X5707380Y688086D01*
G01X5713730Y681990D01*
G01X5716778Y669544D01*
G01X5716778Y654050D01*
G01X5713730Y638556D01*
G01X5707380Y629158D01*
G01X5698236Y626110D01*
G01X5691886Y626110D01*
G01X5682742Y629158D01*
G01X5679694Y635508D01*
G01X5760466Y617220D02*
G01X5825490Y617220D01*
G01X5760466Y617220D02*
G01X5760466Y645160D01*
G01X5763514Y654304D01*
G01X5766562Y657352D01*
G01X5772912Y660654D01*
G01X5779008Y660654D01*
G01X5785104Y657352D01*
G01X5788152Y654304D01*
G01X5791454Y645160D01*
G01X5791454Y617220D01*
G01X5791454Y638810D02*
G01X5825490Y660654D01*
G01X5775960Y693928D02*
G01X5772912Y693928D01*
G01X5766562Y696976D01*
G01X5763514Y700024D01*
G01X5760466Y706120D01*
G01X5760466Y718566D01*
G01X5763514Y724916D01*
G01X5766562Y727964D01*
G01X5772912Y731012D01*
G01X5779008Y731012D01*
G01X5785104Y727964D01*
G01X5794502Y721614D01*
G01X5825490Y690880D01*
G01X5825490Y734060D01*
G01X5760466Y782828D02*
G01X5763514Y773430D01*
G01X5772912Y767334D01*
G01X5788152Y764286D01*
G01X5797550Y764286D01*
G01X5813044Y767334D01*
G01X5822442Y773430D01*
G01X5825490Y782828D01*
G01X5825490Y788924D01*
G01X5822442Y798322D01*
G01X5813044Y804418D01*
G01X5797550Y807466D01*
G01X5788152Y807466D01*
G01X5772912Y804418D01*
G01X5763514Y798322D01*
G01X5760466Y788924D01*
G01X5760466Y782828D01*
G01X7215287Y1120663D02*
G01X7215287Y1055639D01*
G01X7215287Y1120663D02*
G01X7243227Y1120663D01*
G01X7252371Y1117615D01*
G01X7255419Y1114567D01*
G01X7258721Y1108217D01*
G01X7258721Y1102121D01*
G01X7255419Y1096025D01*
G01X7252371Y1092977D01*
G01X7243227Y1089675D01*
G01X7215287Y1089675D01*
G01X7236877Y1089675D02*
G01X7258721Y1055639D01*
G01X7291995Y1105169D02*
G01X7291995Y1108217D01*
G01X7295043Y1114567D01*
G01X7298091Y1117615D01*
G01X7304187Y1120663D01*
G01X7316633Y1120663D01*
G01X7322983Y1117615D01*
G01X7326031Y1114567D01*
G01X7329079Y1108217D01*
G01X7329079Y1102121D01*
G01X7326031Y1096025D01*
G01X7319681Y1086627D01*
G01X7288947Y1055639D01*
G01X7332127Y1055639D01*
G01X7362353Y1108217D02*
G01X7368449Y1111519D01*
G01X7377593Y1120663D01*
G01X7377593Y1055639D01*
G01X8135366Y617220D02*
G01X8200390Y617220D01*
G01X8135366Y617220D02*
G01X8135366Y645160D01*
G01X8138414Y654304D01*
G01X8141462Y657352D01*
G01X8147812Y660654D01*
G01X8153908Y660654D01*
G01X8160004Y657352D01*
G01X8163052Y654304D01*
G01X8166354Y645160D01*
G01X8166354Y617220D01*
G01X8166354Y638810D02*
G01X8200390Y660654D01*
G01X8150860Y693928D02*
G01X8147812Y693928D01*
G01X8141462Y696976D01*
G01X8138414Y700024D01*
G01X8135366Y706120D01*
G01X8135366Y718566D01*
G01X8138414Y724916D01*
G01X8141462Y727964D01*
G01X8147812Y731012D01*
G01X8153908Y731012D01*
G01X8160004Y727964D01*
G01X8169402Y721614D01*
G01X8200390Y690880D01*
G01X8200390Y734060D01*
G01X8150860Y767334D02*
G01X8147812Y767334D01*
G01X8141462Y770382D01*
G01X8138414Y773430D01*
G01X8135366Y779526D01*
G01X8135366Y791972D01*
G01X8138414Y798322D01*
G01X8141462Y801370D01*
G01X8147812Y804418D01*
G01X8153908Y804418D01*
G01X8160004Y801370D01*
G01X8169402Y795020D01*
G01X8200390Y764286D01*
G01X8200390Y807466D01*
G01X6103620Y4729734D02*
G01X6103620Y4683252D01*
G01X6106668Y4674108D01*
G01X6113018Y4667758D01*
G01X6122162Y4664710D01*
G01X6128512Y4664710D01*
G01X6137656Y4667758D01*
G01X6143752Y4674108D01*
G01X6147054Y4683252D01*
G01X6147054Y4729734D01*
G01X6208014Y4729734D02*
G01X6177280Y4686554D01*
G01X6223508Y4686554D01*
G01X6208014Y4729734D02*
G01X6208014Y4664710D01*
G01X4315460Y5171309D02*
G01X4315460Y5217791D01*
G01X4312412Y5226935D01*
G01X4306062Y5233285D01*
G01X4296918Y5236333D01*
G01X4290568Y5236333D01*
G01X4281424Y5233285D01*
G01X4275328Y5226935D01*
G01X4272026Y5217791D01*
G01X4272026Y5171309D01*
G01X4204716Y5171309D02*
G01X4235704Y5171309D01*
G01X4238752Y5198995D01*
G01X4235704Y5195947D01*
G01X4226560Y5192899D01*
G01X4217162Y5192899D01*
G01X4207764Y5195947D01*
G01X4201668Y5202297D01*
G01X4198620Y5211441D01*
G01X4198620Y5217791D01*
G01X4201668Y5226935D01*
G01X4207764Y5233285D01*
G01X4217162Y5236333D01*
G01X4226560Y5236333D01*
G01X4235704Y5233285D01*
G01X4238752Y5229983D01*
G01X4241800Y5223887D01*
G01X7653020Y4704334D02*
G01X7653020Y4639310D01*
G01X7653020Y4704334D02*
G01X7680960Y4704334D01*
G01X7690104Y4701286D01*
G01X7693152Y4698238D01*
G01X7696454Y4691888D01*
G01X7696454Y4685792D01*
G01X7693152Y4679696D01*
G01X7690104Y4676648D01*
G01X7680960Y4673346D01*
G01X7653020Y4673346D01*
G01X7674610Y4673346D02*
G01X7696454Y4639310D01*
G01X7729728Y4688840D02*
G01X7729728Y4691888D01*
G01X7732776Y4698238D01*
G01X7735824Y4701286D01*
G01X7741920Y4704334D01*
G01X7754366Y4704334D01*
G01X7760716Y4701286D01*
G01X7763764Y4698238D01*
G01X7766812Y4691888D01*
G01X7766812Y4685792D01*
G01X7763764Y4679696D01*
G01X7757414Y4670298D01*
G01X7726680Y4639310D01*
G01X7769860Y4639310D01*
G01X7806182Y4704334D02*
G01X7840218Y4704334D01*
G01X7821676Y4679696D01*
G01X7830820Y4679696D01*
G01X7837170Y4676648D01*
G01X7840218Y4673346D01*
G01X7843266Y4664202D01*
G01X7843266Y4657852D01*
G01X7840218Y4648708D01*
G01X7834122Y4642358D01*
G01X7824724Y4639310D01*
G01X7815326Y4639310D01*
G01X7806182Y4642358D01*
G01X7803134Y4645660D01*
G01X7800086Y4651756D01*
G01X6611620Y4704334D02*
G01X6611620Y4639310D01*
G01X6611620Y4704334D02*
G01X6639560Y4704334D01*
G01X6648704Y4701286D01*
G01X6651752Y4698238D01*
G01X6655054Y4691888D01*
G01X6655054Y4685792D01*
G01X6651752Y4679696D01*
G01X6648704Y4676648D01*
G01X6639560Y4673346D01*
G01X6611620Y4673346D01*
G01X6633210Y4673346D02*
G01X6655054Y4639310D01*
G01X6688328Y4688840D02*
G01X6688328Y4691888D01*
G01X6691376Y4698238D01*
G01X6694424Y4701286D01*
G01X6700520Y4704334D01*
G01X6712966Y4704334D01*
G01X6719316Y4701286D01*
G01X6722364Y4698238D01*
G01X6725412Y4691888D01*
G01X6725412Y4685792D01*
G01X6722364Y4679696D01*
G01X6716014Y4670298D01*
G01X6685280Y4639310D01*
G01X6728460Y4639310D01*
G01X6789420Y4704334D02*
G01X6758686Y4661154D01*
G01X6804914Y4661154D01*
G01X6789420Y4704334D02*
G01X6789420Y4639310D01*
G01X5201920Y4615434D02*
G01X5201920Y4550410D01*
G01X5201920Y4615434D02*
G01X5229860Y4615434D01*
G01X5239004Y4612386D01*
G01X5242052Y4609338D01*
G01X5245354Y4602988D01*
G01X5245354Y4596892D01*
G01X5242052Y4590796D01*
G01X5239004Y4587748D01*
G01X5229860Y4584446D01*
G01X5201920Y4584446D01*
G01X5223510Y4584446D02*
G01X5245354Y4550410D01*
G01X5278628Y4599940D02*
G01X5278628Y4602988D01*
G01X5281676Y4609338D01*
G01X5284724Y4612386D01*
G01X5290820Y4615434D01*
G01X5303266Y4615434D01*
G01X5309616Y4612386D01*
G01X5312664Y4609338D01*
G01X5315712Y4602988D01*
G01X5315712Y4596892D01*
G01X5312664Y4590796D01*
G01X5306314Y4581398D01*
G01X5275580Y4550410D01*
G01X5318760Y4550410D01*
G01X5386070Y4615434D02*
G01X5355082Y4615434D01*
G01X5352034Y4587748D01*
G01X5355082Y4590796D01*
G01X5364226Y4593844D01*
G01X5373624Y4593844D01*
G01X5383022Y4590796D01*
G01X5389118Y4584446D01*
G01X5392166Y4575302D01*
G01X5392166Y4568952D01*
G01X5389118Y4559808D01*
G01X5383022Y4553458D01*
G01X5373624Y4550410D01*
G01X5364226Y4550410D01*
G01X5355082Y4553458D01*
G01X5352034Y4556760D01*
G01X5348986Y4562856D01*
G01X8641588Y5236972D02*
G01X8641588Y5158994D01*
G01X8636762Y5144262D01*
G01X8631936Y5139436D01*
G01X8622030Y5134610D01*
G01X8612378Y5134610D01*
G01X8602472Y5139436D01*
G01X8597646Y5144262D01*
G01X8592820Y5158994D01*
G01X8592820Y5168646D01*
G01X8680196Y5217414D02*
G01X8690102Y5222240D01*
G01X8704580Y5236972D01*
G01X8704580Y5134610D01*
G01X8628888Y4652772D02*
G01X8628888Y4574794D01*
G01X8624062Y4560062D01*
G01X8619236Y4555236D01*
G01X8609330Y4550410D01*
G01X8599678Y4550410D01*
G01X8589772Y4555236D01*
G01X8584946Y4560062D01*
G01X8580120Y4574794D01*
G01X8580120Y4584446D01*
G01X8672322Y4628388D02*
G01X8672322Y4633214D01*
G01X8677402Y4643120D01*
G01X8682228Y4647946D01*
G01X8691880Y4652772D01*
G01X8711438Y4652772D01*
G01X8721344Y4647946D01*
G01X8726170Y4643120D01*
G01X8730996Y4633214D01*
G01X8730996Y4623562D01*
G01X8726170Y4613656D01*
G01X8716264Y4599178D01*
G01X8667496Y4550410D01*
G01X8735822Y4550410D01*
G01X8760460Y2213102D02*
G01X8754110Y2210054D01*
G01X8748014Y2203704D01*
G01X8744966Y2197608D01*
G01X8744966Y2185162D01*
G01X8748014Y2179066D01*
G01X8754110Y2172716D01*
G01X8760460Y2169668D01*
G01X8769604Y2166620D01*
G01X8785098Y2166620D01*
G01X8794496Y2169668D01*
G01X8800592Y2172716D01*
G01X8806942Y2179066D01*
G01X8809990Y2185162D01*
G01X8809990Y2197608D01*
G01X8806942Y2203704D01*
G01X8800592Y2210054D01*
G01X8794496Y2213102D01*
G01X8744966Y2249424D02*
G01X8744966Y2283460D01*
G01X8769604Y2264918D01*
G01X8769604Y2274062D01*
G01X8772652Y2280412D01*
G01X8775954Y2283460D01*
G01X8785098Y2286508D01*
G01X8791448Y2286508D01*
G01X8800592Y2283460D01*
G01X8806942Y2277364D01*
G01X8809990Y2267966D01*
G01X8809990Y2258568D01*
G01X8806942Y2249424D01*
G01X8803640Y2246376D01*
G01X8797544Y2243328D01*
G01X6499860Y2784602D02*
G01X6493510Y2781554D01*
G01X6487414Y2775204D01*
G01X6484366Y2769108D01*
G01X6484366Y2756662D01*
G01X6487414Y2750566D01*
G01X6493510Y2744216D01*
G01X6499860Y2741168D01*
G01X6509004Y2738120D01*
G01X6524498Y2738120D01*
G01X6533896Y2741168D01*
G01X6539992Y2744216D01*
G01X6546342Y2750566D01*
G01X6549390Y2756662D01*
G01X6549390Y2769108D01*
G01X6546342Y2775204D01*
G01X6539992Y2781554D01*
G01X6533896Y2784602D01*
G01X6484366Y2845562D02*
G01X6527546Y2814828D01*
G01X6527546Y2861056D01*
G01X6484366Y2845562D02*
G01X6549390Y2845562D01*
G01X6880860Y2213102D02*
G01X6874510Y2210054D01*
G01X6868414Y2203704D01*
G01X6865366Y2197608D01*
G01X6865366Y2185162D01*
G01X6868414Y2179066D01*
G01X6874510Y2172716D01*
G01X6880860Y2169668D01*
G01X6890004Y2166620D01*
G01X6905498Y2166620D01*
G01X6914896Y2169668D01*
G01X6920992Y2172716D01*
G01X6927342Y2179066D01*
G01X6930390Y2185162D01*
G01X6930390Y2197608D01*
G01X6927342Y2203704D01*
G01X6920992Y2210054D01*
G01X6914896Y2213102D01*
G01X6865366Y2280412D02*
G01X6865366Y2249424D01*
G01X6893052Y2246376D01*
G01X6890004Y2249424D01*
G01X6886956Y2258568D01*
G01X6886956Y2267966D01*
G01X6890004Y2277364D01*
G01X6896354Y2283460D01*
G01X6905498Y2286508D01*
G01X6911848Y2286508D01*
G01X6920992Y2283460D01*
G01X6927342Y2277364D01*
G01X6930390Y2267966D01*
G01X6930390Y2258568D01*
G01X6927342Y2249424D01*
G01X6924040Y2246376D01*
G01X6917944Y2243328D01*
G01X4778502Y2948940D02*
G01X4775454Y2955290D01*
G01X4769104Y2961386D01*
G01X4763008Y2964434D01*
G01X4750562Y2964434D01*
G01X4744466Y2961386D01*
G01X4738116Y2955290D01*
G01X4735068Y2948940D01*
G01X4732020Y2939796D01*
G01X4732020Y2924302D01*
G01X4735068Y2914904D01*
G01X4738116Y2908808D01*
G01X4744466Y2902458D01*
G01X4750562Y2899410D01*
G01X4763008Y2899410D01*
G01X4769104Y2902458D01*
G01X4775454Y2908808D01*
G01X4778502Y2914904D01*
G01X4845812Y2955290D02*
G01X4842764Y2961386D01*
G01X4833366Y2964434D01*
G01X4827270Y2964434D01*
G01X4817872Y2961386D01*
G01X4811776Y2951988D01*
G01X4808728Y2936748D01*
G01X4808728Y2921254D01*
G01X4811776Y2908808D01*
G01X4817872Y2902458D01*
G01X4827270Y2899410D01*
G01X4830318Y2899410D01*
G01X4839462Y2902458D01*
G01X4845812Y2908808D01*
G01X4848860Y2917952D01*
G01X4848860Y2921254D01*
G01X4845812Y2930398D01*
G01X4839462Y2936748D01*
G01X4830318Y2939796D01*
G01X4827270Y2939796D01*
G01X4817872Y2936748D01*
G01X4811776Y2930398D01*
G01X4808728Y2921254D01*
G01X2016760Y1794002D02*
G01X2010410Y1790954D01*
G01X2004314Y1784604D01*
G01X2001266Y1778508D01*
G01X2001266Y1766062D01*
G01X2004314Y1759966D01*
G01X2010410Y1753616D01*
G01X2016760Y1750568D01*
G01X2025904Y1747520D01*
G01X2041398Y1747520D01*
G01X2050796Y1750568D01*
G01X2056892Y1753616D01*
G01X2063242Y1759966D01*
G01X2066290Y1766062D01*
G01X2066290Y1778508D01*
G01X2063242Y1784604D01*
G01X2056892Y1790954D01*
G01X2050796Y1794002D01*
G01X2001266Y1867408D02*
G01X2066290Y1836420D01*
G01X2001266Y1824228D02*
G01X2001266Y1867408D01*
G01X5001260Y2225802D02*
G01X4994910Y2222754D01*
G01X4988814Y2216404D01*
G01X4985766Y2210308D01*
G01X4985766Y2197862D01*
G01X4988814Y2191766D01*
G01X4994910Y2185416D01*
G01X5001260Y2182368D01*
G01X5010404Y2179320D01*
G01X5025898Y2179320D01*
G01X5035296Y2182368D01*
G01X5041392Y2185416D01*
G01X5047742Y2191766D01*
G01X5050790Y2197862D01*
G01X5050790Y2210308D01*
G01X5047742Y2216404D01*
G01X5041392Y2222754D01*
G01X5035296Y2225802D01*
G01X4998212Y2256028D02*
G01X4994910Y2262124D01*
G01X4985766Y2271268D01*
G01X5050790Y2271268D01*
G01X8379460Y2771902D02*
G01X8373110Y2768854D01*
G01X8367014Y2762504D01*
G01X8363966Y2756408D01*
G01X8363966Y2743962D01*
G01X8367014Y2737866D01*
G01X8373110Y2731516D01*
G01X8379460Y2728468D01*
G01X8388604Y2725420D01*
G01X8404098Y2725420D01*
G01X8413496Y2728468D01*
G01X8419592Y2731516D01*
G01X8425942Y2737866D01*
G01X8428990Y2743962D01*
G01X8428990Y2756408D01*
G01X8425942Y2762504D01*
G01X8419592Y2768854D01*
G01X8413496Y2771902D01*
G01X8379460Y2805176D02*
G01X8376412Y2805176D01*
G01X8370062Y2808224D01*
G01X8367014Y2811272D01*
G01X8363966Y2817368D01*
G01X8363966Y2829814D01*
G01X8367014Y2836164D01*
G01X8370062Y2839212D01*
G01X8376412Y2842260D01*
G01X8382508Y2842260D01*
G01X8388604Y2839212D01*
G01X8398002Y2832862D01*
G01X8428990Y2802128D01*
G01X8428990Y2845308D01*
G01X8884666Y4808220D02*
G01X8949690Y4808220D01*
G01X8884666Y4851654D02*
G01X8949690Y4851654D01*
G01X8915654Y4808220D02*
G01X8915654Y4851654D01*
G01X8900160Y4884928D02*
G01X8897112Y4884928D01*
G01X8890762Y4887976D01*
G01X8887714Y4891024D01*
G01X8884666Y4897120D01*
G01X8884666Y4909566D01*
G01X8887714Y4915916D01*
G01X8890762Y4918964D01*
G01X8897112Y4922012D01*
G01X8903208Y4922012D01*
G01X8909304Y4918964D01*
G01X8918702Y4912614D01*
G01X8949690Y4881880D01*
G01X8949690Y4925060D01*
G01X8900160Y4958334D02*
G01X8897112Y4958334D01*
G01X8890762Y4961382D01*
G01X8887714Y4964430D01*
G01X8884666Y4970526D01*
G01X8884666Y4982972D01*
G01X8887714Y4989322D01*
G01X8890762Y4992370D01*
G01X8897112Y4995418D01*
G01X8903208Y4995418D01*
G01X8909304Y4992370D01*
G01X8918702Y4986020D01*
G01X8949690Y4955286D01*
G01X8949690Y4998466D01*
G01X5747766Y2661920D02*
G01X5812790Y2661920D01*
G01X5747766Y2661920D02*
G01X5747766Y2689860D01*
G01X5750814Y2699004D01*
G01X5753862Y2702052D01*
G01X5760212Y2705354D01*
G01X5766308Y2705354D01*
G01X5772404Y2702052D01*
G01X5775452Y2699004D01*
G01X5778754Y2689860D01*
G01X5778754Y2661920D01*
G01X5778754Y2683510D02*
G01X5812790Y2705354D01*
G01X5763260Y2738628D02*
G01X5760212Y2738628D01*
G01X5753862Y2741676D01*
G01X5750814Y2744724D01*
G01X5747766Y2750820D01*
G01X5747766Y2763266D01*
G01X5750814Y2769616D01*
G01X5753862Y2772664D01*
G01X5760212Y2775712D01*
G01X5766308Y2775712D01*
G01X5772404Y2772664D01*
G01X5781802Y2766314D01*
G01X5812790Y2735580D01*
G01X5812790Y2778760D01*
G01X5747766Y2824226D02*
G01X5750814Y2815082D01*
G01X5756910Y2812034D01*
G01X5763260Y2812034D01*
G01X5769356Y2815082D01*
G01X5772404Y2821178D01*
G01X5775452Y2833624D01*
G01X5778754Y2843022D01*
G01X5784850Y2849118D01*
G01X5790946Y2852166D01*
G01X5800344Y2852166D01*
G01X5806440Y2849118D01*
G01X5809742Y2846070D01*
G01X5812790Y2836672D01*
G01X5812790Y2824226D01*
G01X5809742Y2815082D01*
G01X5806440Y2812034D01*
G01X5800344Y2808986D01*
G01X5790946Y2808986D01*
G01X5784850Y2812034D01*
G01X5778754Y2818130D01*
G01X5775452Y2827528D01*
G01X5772404Y2839720D01*
G01X5769356Y2846070D01*
G01X5763260Y2849118D01*
G01X5756910Y2849118D01*
G01X5750814Y2846070D01*
G01X5747766Y2836672D01*
G01X5747766Y2824226D01*
G01X5341620Y2697734D02*
G01X5341620Y2651252D01*
G01X5344668Y2642108D01*
G01X5351018Y2635758D01*
G01X5360162Y2632710D01*
G01X5366512Y2632710D01*
G01X5375656Y2635758D01*
G01X5381752Y2642108D01*
G01X5385054Y2651252D01*
G01X5385054Y2697734D01*
G01X5415280Y2685288D02*
G01X5421376Y2688590D01*
G01X5430520Y2697734D01*
G01X5430520Y2632710D01*
G01X5466842Y2697734D02*
G01X5500878Y2697734D01*
G01X5482336Y2673096D01*
G01X5491480Y2673096D01*
G01X5497830Y2670048D01*
G01X5500878Y2666746D01*
G01X5503926Y2657602D01*
G01X5503926Y2651252D01*
G01X5500878Y2642108D01*
G01X5494782Y2635758D01*
G01X5485384Y2632710D01*
G01X5475986Y2632710D01*
G01X5466842Y2635758D01*
G01X5463794Y2639060D01*
G01X5460746Y2645156D01*
G01X7106920Y2723134D02*
G01X7106920Y2658110D01*
G01X7106920Y2723134D02*
G01X7134860Y2723134D01*
G01X7144004Y2720086D01*
G01X7147052Y2717038D01*
G01X7150354Y2710688D01*
G01X7150354Y2704592D01*
G01X7147052Y2698496D01*
G01X7144004Y2695448D01*
G01X7134860Y2692146D01*
G01X7106920Y2692146D01*
G01X7128510Y2692146D02*
G01X7150354Y2658110D01*
G01X7183628Y2707640D02*
G01X7183628Y2710688D01*
G01X7186676Y2717038D01*
G01X7189724Y2720086D01*
G01X7195820Y2723134D01*
G01X7208266Y2723134D01*
G01X7214616Y2720086D01*
G01X7217664Y2717038D01*
G01X7220712Y2710688D01*
G01X7220712Y2704592D01*
G01X7217664Y2698496D01*
G01X7211314Y2689098D01*
G01X7180580Y2658110D01*
G01X7223760Y2658110D01*
G01X7294118Y2701544D02*
G01X7291070Y2692146D01*
G01X7284720Y2686050D01*
G01X7275576Y2683002D01*
G01X7272528Y2683002D01*
G01X7263130Y2686050D01*
G01X7257034Y2692146D01*
G01X7253986Y2701544D01*
G01X7253986Y2704592D01*
G01X7257034Y2713990D01*
G01X7263130Y2720086D01*
G01X7272528Y2723134D01*
G01X7275576Y2723134D01*
G01X7284720Y2720086D01*
G01X7291070Y2713990D01*
G01X7294118Y2701544D01*
G01X7294118Y2686050D01*
G01X7291070Y2670556D01*
G01X7284720Y2661158D01*
G01X7275576Y2658110D01*
G01X7269226Y2658110D01*
G01X7260082Y2661158D01*
G01X7257034Y2667508D01*
G01X7335520Y2913634D02*
G01X7335520Y2867152D01*
G01X7338568Y2858008D01*
G01X7344918Y2851658D01*
G01X7354062Y2848610D01*
G01X7360412Y2848610D01*
G01X7369556Y2851658D01*
G01X7375652Y2858008D01*
G01X7378954Y2867152D01*
G01X7378954Y2913634D01*
G01X7409180Y2901188D02*
G01X7415276Y2904490D01*
G01X7424420Y2913634D01*
G01X7424420Y2848610D01*
G01X7485380Y2913634D02*
G01X7454646Y2870454D01*
G01X7500874Y2870454D01*
G01X7485380Y2913634D02*
G01X7485380Y2848610D01*
G01X2394966Y1417320D02*
G01X2459990Y1417320D01*
G01X2394966Y1417320D02*
G01X2394966Y1438910D01*
G01X2398014Y1448308D01*
G01X2404110Y1454404D01*
G01X2410460Y1457452D01*
G01X2419604Y1460754D01*
G01X2435098Y1460754D01*
G01X2444496Y1457452D01*
G01X2450592Y1454404D01*
G01X2456942Y1448308D01*
G01X2459990Y1438910D01*
G01X2459990Y1417320D01*
G01X2407412Y1490980D02*
G01X2404110Y1497076D01*
G01X2394966Y1506220D01*
G01X2459990Y1506220D01*
G01X2979166Y2179320D02*
G01X3044190Y2179320D01*
G01X2979166Y2179320D02*
G01X2979166Y2200910D01*
G01X2982214Y2210308D01*
G01X2988310Y2216404D01*
G01X2994660Y2219452D01*
G01X3003804Y2222754D01*
G01X3019298Y2222754D01*
G01X3028696Y2219452D01*
G01X3034792Y2216404D01*
G01X3041142Y2210308D01*
G01X3044190Y2200910D01*
G01X3044190Y2179320D01*
G01X2994660Y2256028D02*
G01X2991612Y2256028D01*
G01X2985262Y2259076D01*
G01X2982214Y2262124D01*
G01X2979166Y2268220D01*
G01X2979166Y2280666D01*
G01X2982214Y2287016D01*
G01X2985262Y2290064D01*
G01X2991612Y2293112D01*
G01X2997708Y2293112D01*
G01X3003804Y2290064D01*
G01X3013202Y2283714D01*
G01X3044190Y2252980D01*
G01X3044190Y2296160D01*
G01X5087620Y780034D02*
G01X5087620Y715010D01*
G01X5087620Y780034D02*
G01X5109210Y780034D01*
G01X5118608Y776986D01*
G01X5124704Y770890D01*
G01X5127752Y764540D01*
G01X5131054Y755396D01*
G01X5131054Y739902D01*
G01X5127752Y730504D01*
G01X5124704Y724408D01*
G01X5118608Y718058D01*
G01X5109210Y715010D01*
G01X5087620Y715010D01*
G01X5167376Y780034D02*
G01X5201412Y780034D01*
G01X5182870Y755396D01*
G01X5192014Y755396D01*
G01X5198364Y752348D01*
G01X5201412Y749046D01*
G01X5204460Y739902D01*
G01X5204460Y733552D01*
G01X5201412Y724408D01*
G01X5195316Y718058D01*
G01X5185918Y715010D01*
G01X5176520Y715010D01*
G01X5167376Y718058D01*
G01X5164328Y721360D01*
G01X5161280Y727456D01*
G01X642678Y2408951D02*
G01X707702Y2408951D01*
G01X642678Y2408951D02*
G01X642678Y2436891D01*
G01X645726Y2446035D01*
G01X648774Y2449083D01*
G01X655124Y2452385D01*
G01X661220Y2452385D01*
G01X667316Y2449083D01*
G01X670364Y2446035D01*
G01X673666Y2436891D01*
G01X673666Y2408951D01*
G01X673666Y2430541D02*
G01X707702Y2452385D01*
G01X642678Y2488707D02*
G01X642678Y2522743D01*
G01X667316Y2504201D01*
G01X667316Y2513345D01*
G01X670364Y2519695D01*
G01X673666Y2522743D01*
G01X682810Y2525791D01*
G01X689160Y2525791D01*
G01X698304Y2522743D01*
G01X704654Y2516647D01*
G01X707702Y2507249D01*
G01X707702Y2497851D01*
G01X704654Y2488707D01*
G01X701352Y2485659D01*
G01X695256Y2482611D01*
G01X642678Y2574559D02*
G01X645726Y2565161D01*
G01X655124Y2559065D01*
G01X670364Y2556017D01*
G01X679762Y2556017D01*
G01X695256Y2559065D01*
G01X704654Y2565161D01*
G01X707702Y2574559D01*
G01X707702Y2580655D01*
G01X704654Y2590053D01*
G01X695256Y2596149D01*
G01X679762Y2599197D01*
G01X670364Y2599197D01*
G01X655124Y2596149D01*
G01X645726Y2590053D01*
G01X642678Y2580655D01*
G01X642678Y2574559D01*
G01X121978Y2408017D02*
G01X168460Y2408017D01*
G01X177604Y2411065D01*
G01X183954Y2417415D01*
G01X187002Y2426559D01*
G01X187002Y2432909D01*
G01X183954Y2442053D01*
G01X177604Y2448149D01*
G01X168460Y2451451D01*
G01X121978Y2451451D01*
G01X134424Y2481677D02*
G01X131122Y2487773D01*
G01X121978Y2496917D01*
G01X187002Y2496917D01*
G01X121978Y2564227D02*
G01X121978Y2533239D01*
G01X149664Y2530191D01*
G01X146616Y2533239D01*
G01X143568Y2542383D01*
G01X143568Y2551781D01*
G01X146616Y2561179D01*
G01X152966Y2567275D01*
G01X162110Y2570323D01*
G01X168460Y2570323D01*
G01X177604Y2567275D01*
G01X183954Y2561179D01*
G01X187002Y2551781D01*
G01X187002Y2542383D01*
G01X183954Y2533239D01*
G01X180652Y2530191D01*
G01X174556Y2527143D01*
G01X617278Y2828051D02*
G01X663760Y2828051D01*
G01X672904Y2831099D01*
G01X679254Y2837449D01*
G01X682302Y2846593D01*
G01X682302Y2852943D01*
G01X679254Y2862087D01*
G01X672904Y2868183D01*
G01X663760Y2871485D01*
G01X617278Y2871485D01*
G01X629724Y2901711D02*
G01X626422Y2907807D01*
G01X617278Y2916951D01*
G01X682302Y2916951D01*
G01X626422Y2984261D02*
G01X620326Y2981213D01*
G01X617278Y2971815D01*
G01X617278Y2965719D01*
G01X620326Y2956321D01*
G01X629724Y2950225D01*
G01X644964Y2947177D01*
G01X660458Y2947177D01*
G01X672904Y2950225D01*
G01X679254Y2956321D01*
G01X682302Y2965719D01*
G01X682302Y2968767D01*
G01X679254Y2977911D01*
G01X672904Y2984261D01*
G01X663760Y2987309D01*
G01X660458Y2987309D01*
G01X651314Y2984261D01*
G01X644964Y2977911D01*
G01X641916Y2968767D01*
G01X641916Y2965719D01*
G01X644964Y2956321D01*
G01X651314Y2950225D01*
G01X660458Y2947177D01*
G01X124772Y2760233D02*
G01X118422Y2757185D01*
G01X112326Y2750835D01*
G01X109278Y2744739D01*
G01X109278Y2732293D01*
G01X112326Y2726197D01*
G01X118422Y2719847D01*
G01X124772Y2716799D01*
G01X133916Y2713751D01*
G01X149410Y2713751D01*
G01X158808Y2716799D01*
G01X164904Y2719847D01*
G01X171254Y2726197D01*
G01X174302Y2732293D01*
G01X174302Y2744739D01*
G01X171254Y2750835D01*
G01X164904Y2757185D01*
G01X158808Y2760233D01*
G01X109278Y2805699D02*
G01X112326Y2796555D01*
G01X118422Y2793507D01*
G01X124772Y2793507D01*
G01X130868Y2796555D01*
G01X133916Y2802651D01*
G01X136964Y2815097D01*
G01X140266Y2824495D01*
G01X146362Y2830591D01*
G01X152458Y2833639D01*
G01X161856Y2833639D01*
G01X167952Y2830591D01*
G01X171254Y2827543D01*
G01X174302Y2818145D01*
G01X174302Y2805699D01*
G01X171254Y2796555D01*
G01X167952Y2793507D01*
G01X161856Y2790459D01*
G01X152458Y2790459D01*
G01X146362Y2793507D01*
G01X140266Y2799603D01*
G01X136964Y2809001D01*
G01X133916Y2821193D01*
G01X130868Y2827543D01*
G01X124772Y2830591D01*
G01X118422Y2830591D01*
G01X112326Y2827543D01*
G01X109278Y2818145D01*
G01X109278Y2805699D01*
G01X160078Y3202193D02*
G01X163126Y3196097D01*
G01X169222Y3189747D01*
G01X175572Y3186699D01*
G01X184716Y3183651D01*
G01X200210Y3183651D01*
G01X209608Y3186699D01*
G01X215704Y3189747D01*
G01X222054Y3196097D01*
G01X225102Y3202193D01*
G01X225102Y3214639D01*
G01X222054Y3220735D01*
G01X215704Y3227085D01*
G01X209608Y3230133D01*
G01X200210Y3233181D01*
G01X184716Y3233181D01*
G01X175572Y3230133D01*
G01X169222Y3227085D01*
G01X163126Y3220735D01*
G01X160078Y3214639D01*
G01X160078Y3202193D01*
G01X212656Y3211591D02*
G01X231198Y3230133D01*
G01X172524Y3263407D02*
G01X169222Y3269503D01*
G01X160078Y3278647D01*
G01X225102Y3278647D01*
G01X3868420Y614934D02*
G01X3868420Y568452D01*
G01X3871468Y559308D01*
G01X3877818Y552958D01*
G01X3886962Y549910D01*
G01X3893312Y549910D01*
G01X3902456Y552958D01*
G01X3908552Y559308D01*
G01X3911854Y568452D01*
G01X3911854Y614934D01*
G01X3957320Y614934D02*
G01X3948176Y611886D01*
G01X3945128Y605790D01*
G01X3945128Y599440D01*
G01X3948176Y593344D01*
G01X3954272Y590296D01*
G01X3966718Y587248D01*
G01X3976116Y583946D01*
G01X3982212Y577850D01*
G01X3985260Y571754D01*
G01X3985260Y562356D01*
G01X3982212Y556260D01*
G01X3979164Y552958D01*
G01X3969766Y549910D01*
G01X3957320Y549910D01*
G01X3948176Y552958D01*
G01X3945128Y556260D01*
G01X3942080Y562356D01*
G01X3942080Y571754D01*
G01X3945128Y577850D01*
G01X3951224Y583946D01*
G01X3960622Y587248D01*
G01X3972814Y590296D01*
G01X3979164Y593344D01*
G01X3982212Y599440D01*
G01X3982212Y605790D01*
G01X3979164Y611886D01*
G01X3969766Y614934D01*
G01X3957320Y614934D01*
G01X4922520Y500634D02*
G01X4922520Y454152D01*
G01X4925568Y445008D01*
G01X4931918Y438658D01*
G01X4941062Y435610D01*
G01X4947412Y435610D01*
G01X4956556Y438658D01*
G01X4962652Y445008D01*
G01X4965954Y454152D01*
G01X4965954Y500634D01*
G01X5036312Y479044D02*
G01X5033264Y469646D01*
G01X5026914Y463550D01*
G01X5017770Y460502D01*
G01X5014722Y460502D01*
G01X5005324Y463550D01*
G01X4999228Y469646D01*
G01X4996180Y479044D01*
G01X4996180Y482092D01*
G01X4999228Y491490D01*
G01X5005324Y497586D01*
G01X5014722Y500634D01*
G01X5017770Y500634D01*
G01X5026914Y497586D01*
G01X5033264Y491490D01*
G01X5036312Y479044D01*
G01X5036312Y463550D01*
G01X5033264Y448056D01*
G01X5026914Y438658D01*
G01X5017770Y435610D01*
G01X5011420Y435610D01*
G01X5002276Y438658D01*
G01X4999228Y445008D01*
G01X5240020Y703834D02*
G01X5240020Y657352D01*
G01X5243068Y648208D01*
G01X5249418Y641858D01*
G01X5258562Y638810D01*
G01X5264912Y638810D01*
G01X5274056Y641858D01*
G01X5280152Y648208D01*
G01X5283454Y657352D01*
G01X5283454Y703834D01*
G01X5313680Y691388D02*
G01X5319776Y694690D01*
G01X5328920Y703834D01*
G01X5328920Y638810D01*
G01X5377688Y703834D02*
G01X5368290Y700786D01*
G01X5362194Y691388D01*
G01X5359146Y676148D01*
G01X5359146Y666750D01*
G01X5362194Y651256D01*
G01X5368290Y641858D01*
G01X5377688Y638810D01*
G01X5383784Y638810D01*
G01X5393182Y641858D01*
G01X5399278Y651256D01*
G01X5402326Y666750D01*
G01X5402326Y676148D01*
G01X5399278Y691388D01*
G01X5393182Y700786D01*
G01X5383784Y703834D01*
G01X5377688Y703834D01*
G01X4338066Y2750820D02*
G01X4384548Y2750820D01*
G01X4393692Y2753868D01*
G01X4400042Y2760218D01*
G01X4403090Y2769362D01*
G01X4403090Y2775712D01*
G01X4400042Y2784856D01*
G01X4393692Y2790952D01*
G01X4384548Y2794254D01*
G01X4338066Y2794254D01*
G01X4350512Y2824480D02*
G01X4347210Y2830576D01*
G01X4338066Y2839720D01*
G01X4403090Y2839720D01*
G01X4353560Y2872994D02*
G01X4350512Y2872994D01*
G01X4344162Y2876042D01*
G01X4341114Y2879090D01*
G01X4338066Y2885186D01*
G01X4338066Y2897632D01*
G01X4341114Y2903982D01*
G01X4344162Y2907030D01*
G01X4350512Y2910078D01*
G01X4356608Y2910078D01*
G01X4362704Y2907030D01*
G01X4372102Y2900680D01*
G01X4403090Y2869946D01*
G01X4403090Y2913126D01*
G01X4147820Y3459734D02*
G01X4147820Y3394710D01*
G01X4147820Y3459734D02*
G01X4175760Y3459734D01*
G01X4184904Y3456686D01*
G01X4187952Y3453638D01*
G01X4191254Y3447288D01*
G01X4191254Y3441192D01*
G01X4187952Y3435096D01*
G01X4184904Y3432048D01*
G01X4175760Y3428746D01*
G01X4147820Y3428746D01*
G01X4169410Y3428746D02*
G01X4191254Y3394710D01*
G01X4224528Y3444240D02*
G01X4224528Y3447288D01*
G01X4227576Y3453638D01*
G01X4230624Y3456686D01*
G01X4236720Y3459734D01*
G01X4249166Y3459734D01*
G01X4255516Y3456686D01*
G01X4258564Y3453638D01*
G01X4261612Y3447288D01*
G01X4261612Y3441192D01*
G01X4258564Y3435096D01*
G01X4252214Y3425698D01*
G01X4221480Y3394710D01*
G01X4264660Y3394710D01*
G01X4338066Y3459734D02*
G01X4307078Y3394710D01*
G01X4294886Y3459734D02*
G01X4338066Y3459734D01*
G01X6319266Y210820D02*
G01X6384290Y210820D01*
G01X6319266Y210820D02*
G01X6319266Y232410D01*
G01X6322314Y241808D01*
G01X6328410Y247904D01*
G01X6334760Y250952D01*
G01X6343904Y254254D01*
G01X6359398Y254254D01*
G01X6368796Y250952D01*
G01X6374892Y247904D01*
G01X6381242Y241808D01*
G01X6384290Y232410D01*
G01X6384290Y210820D01*
G01X6319266Y315214D02*
G01X6362446Y284480D01*
G01X6362446Y330708D01*
G01X6319266Y315214D02*
G01X6384290Y315214D01*
G01X4805934Y233680D02*
G01X4740910Y233680D01*
G01X4805934Y233680D02*
G01X4805934Y212090D01*
G01X4802886Y202692D01*
G01X4796790Y196596D01*
G01X4790440Y193548D01*
G01X4781296Y190246D01*
G01X4765802Y190246D01*
G01X4756404Y193548D01*
G01X4750308Y196596D01*
G01X4743958Y202692D01*
G01X4740910Y212090D01*
G01X4740910Y233680D01*
G01X4805934Y122936D02*
G01X4805934Y153924D01*
G01X4778248Y156972D01*
G01X4781296Y153924D01*
G01X4784344Y144780D01*
G01X4784344Y135382D01*
G01X4781296Y125984D01*
G01X4774946Y119888D01*
G01X4765802Y116840D01*
G01X4759452Y116840D01*
G01X4750308Y119888D01*
G01X4743958Y125984D01*
G01X4740910Y135382D01*
G01X4740910Y144780D01*
G01X4743958Y153924D01*
G01X4747260Y156972D01*
G01X4753356Y160020D01*
G01X6637020Y602234D02*
G01X6637020Y537210D01*
G01X6637020Y602234D02*
G01X6664960Y602234D01*
G01X6674104Y599186D01*
G01X6677152Y596138D01*
G01X6680454Y589788D01*
G01X6680454Y583692D01*
G01X6677152Y577596D01*
G01X6674104Y574548D01*
G01X6664960Y571246D01*
G01X6637020Y571246D01*
G01X6658610Y571246D02*
G01X6680454Y537210D01*
G01X6716776Y602234D02*
G01X6750812Y602234D01*
G01X6732270Y577596D01*
G01X6741414Y577596D01*
G01X6747764Y574548D01*
G01X6750812Y571246D01*
G01X6753860Y562102D01*
G01X6753860Y555752D01*
G01X6750812Y546608D01*
G01X6744716Y540258D01*
G01X6735318Y537210D01*
G01X6725920Y537210D01*
G01X6716776Y540258D01*
G01X6713728Y543560D01*
G01X6710680Y549656D01*
G01X6784086Y589788D02*
G01X6790182Y593090D01*
G01X6799326Y602234D01*
G01X6799326Y537210D01*
G01X5011420Y373634D02*
G01X5011420Y308610D01*
G01X5011420Y373634D02*
G01X5039360Y373634D01*
G01X5048504Y370586D01*
G01X5051552Y367538D01*
G01X5054854Y361188D01*
G01X5054854Y355092D01*
G01X5051552Y348996D01*
G01X5048504Y345948D01*
G01X5039360Y342646D01*
G01X5011420Y342646D01*
G01X5033010Y342646D02*
G01X5054854Y308610D01*
G01X5091176Y373634D02*
G01X5125212Y373634D01*
G01X5106670Y348996D01*
G01X5115814Y348996D01*
G01X5122164Y345948D01*
G01X5125212Y342646D01*
G01X5128260Y333502D01*
G01X5128260Y327152D01*
G01X5125212Y318008D01*
G01X5119116Y311658D01*
G01X5109718Y308610D01*
G01X5100320Y308610D01*
G01X5091176Y311658D01*
G01X5088128Y314960D01*
G01X5085080Y321056D01*
G01X5161534Y358140D02*
G01X5161534Y361188D01*
G01X5164582Y367538D01*
G01X5167630Y370586D01*
G01X5173726Y373634D01*
G01X5186172Y373634D01*
G01X5192522Y370586D01*
G01X5195570Y367538D01*
G01X5198618Y361188D01*
G01X5198618Y355092D01*
G01X5195570Y348996D01*
G01X5189220Y339598D01*
G01X5158486Y308610D01*
G01X5201666Y308610D01*
G01X2951988Y1846072D02*
G01X2951988Y1768094D01*
G01X2947162Y1753362D01*
G01X2942336Y1748536D01*
G01X2932430Y1743710D01*
G01X2922778Y1743710D01*
G01X2912872Y1748536D01*
G01X2908046Y1753362D01*
G01X2903220Y1768094D01*
G01X2903220Y1777746D01*
G01X3000502Y1846072D02*
G01X3054096Y1846072D01*
G01X3024886Y1806956D01*
G01X3039364Y1806956D01*
G01X3049270Y1802130D01*
G01X3054096Y1797304D01*
G01X3058922Y1782572D01*
G01X3058922Y1772920D01*
G01X3054096Y1758188D01*
G01X3044444Y1748536D01*
G01X3029712Y1743710D01*
G01X3014980Y1743710D01*
G01X3000502Y1748536D01*
G01X2995422Y1753362D01*
G01X2990596Y1763014D01*
G01X2951988Y715772D02*
G01X2951988Y637794D01*
G01X2947162Y623062D01*
G01X2942336Y618236D01*
G01X2932430Y613410D01*
G01X2922778Y613410D01*
G01X2912872Y618236D01*
G01X2908046Y623062D01*
G01X2903220Y637794D01*
G01X2903220Y647446D01*
G01X3039364Y715772D02*
G01X2990596Y647446D01*
G01X3064002Y647446D01*
G01X3039364Y715772D02*
G01X3039364Y613410D01*
G01X693166Y58420D02*
G01X739648Y58420D01*
G01X748792Y61468D01*
G01X755142Y67818D01*
G01X758190Y76962D01*
G01X758190Y83312D01*
G01X755142Y92456D01*
G01X748792Y98552D01*
G01X739648Y101854D01*
G01X693166Y101854D01*
G01X705612Y132080D02*
G01X702310Y138176D01*
G01X693166Y147320D01*
G01X758190Y147320D01*
G01X693166Y220726D02*
G01X758190Y189738D01*
G01X693166Y177546D02*
G01X693166Y220726D01*
G01X1016166Y43495D02*
G01X1062648Y43495D01*
G01X1071792Y46543D01*
G01X1078142Y52893D01*
G01X1081190Y62037D01*
G01X1081190Y68387D01*
G01X1078142Y77531D01*
G01X1071792Y83627D01*
G01X1062648Y86929D01*
G01X1016166Y86929D01*
G01X1028612Y117155D02*
G01X1025310Y123251D01*
G01X1016166Y132395D01*
G01X1081190Y132395D01*
G01X1016166Y177861D02*
G01X1019214Y168717D01*
G01X1025310Y165669D01*
G01X1031660Y165669D01*
G01X1037756Y168717D01*
G01X1040804Y174813D01*
G01X1043852Y187259D01*
G01X1047154Y196657D01*
G01X1053250Y202753D01*
G01X1059346Y205801D01*
G01X1068744Y205801D01*
G01X1074840Y202753D01*
G01X1078142Y199705D01*
G01X1081190Y190307D01*
G01X1081190Y177861D01*
G01X1078142Y168717D01*
G01X1074840Y165669D01*
G01X1068744Y162621D01*
G01X1059346Y162621D01*
G01X1053250Y165669D01*
G01X1047154Y171765D01*
G01X1043852Y181163D01*
G01X1040804Y193355D01*
G01X1037756Y199705D01*
G01X1031660Y202753D01*
G01X1025310Y202753D01*
G01X1019214Y199705D01*
G01X1016166Y190307D01*
G01X1016166Y177861D01*
G01X1019810Y3365754D02*
G01X1013714Y3359404D01*
G01X1010666Y3350260D01*
G01X1010666Y3337814D01*
G01X1013714Y3328416D01*
G01X1019810Y3322320D01*
G01X1026160Y3322320D01*
G01X1032256Y3325368D01*
G01X1035304Y3328416D01*
G01X1038352Y3334766D01*
G01X1044702Y3353308D01*
G01X1047750Y3359404D01*
G01X1050798Y3362452D01*
G01X1057148Y3365754D01*
G01X1066292Y3365754D01*
G01X1072642Y3359404D01*
G01X1075690Y3350260D01*
G01X1075690Y3337814D01*
G01X1072642Y3328416D01*
G01X1066292Y3322320D01*
G01X1026160Y3442208D02*
G01X1019810Y3439160D01*
G01X1013714Y3433064D01*
G01X1010666Y3426714D01*
G01X1010666Y3414522D01*
G01X1013714Y3408172D01*
G01X1019810Y3402076D01*
G01X1026160Y3399028D01*
G01X1035304Y3395980D01*
G01X1050798Y3395980D01*
G01X1060196Y3399028D01*
G01X1066292Y3402076D01*
G01X1072642Y3408172D01*
G01X1075690Y3414522D01*
G01X1075690Y3426714D01*
G01X1072642Y3433064D01*
G01X1066292Y3439160D01*
G01X1060196Y3442208D01*
G01X1010666Y3472434D02*
G01X1075690Y3472434D01*
G01X1010666Y3472434D02*
G01X1010666Y3500120D01*
G01X1013714Y3509518D01*
G01X1016762Y3512566D01*
G01X1023112Y3515614D01*
G01X1029208Y3515614D01*
G01X1035304Y3512566D01*
G01X1038352Y3509518D01*
G01X1041654Y3500120D01*
G01X1041654Y3472434D01*
G01X1041654Y3494024D02*
G01X1075690Y3515614D01*
G01X1010666Y3545840D02*
G01X1075690Y3545840D01*
G01X1010666Y3545840D02*
G01X1010666Y3585972D01*
G01X1041654Y3545840D02*
G01X1041654Y3570478D01*
G01X1075690Y3545840D02*
G01X1075690Y3585972D01*
G01X1010666Y3616198D02*
G01X1075690Y3631438D01*
G01X1010666Y3646932D02*
G01X1075690Y3631438D01*
G01X1010666Y3646932D02*
G01X1075690Y3662426D01*
G01X1010666Y3677920D02*
G01X1075690Y3662426D01*
G01X1023112Y3708146D02*
G01X1019810Y3714242D01*
G01X1010666Y3723386D01*
G01X1075690Y3723386D01*
G01X8385810Y3330454D02*
G01X8379714Y3324104D01*
G01X8376666Y3314960D01*
G01X8376666Y3302514D01*
G01X8379714Y3293116D01*
G01X8385810Y3287020D01*
G01X8392160Y3287020D01*
G01X8398256Y3290068D01*
G01X8401304Y3293116D01*
G01X8404352Y3299466D01*
G01X8410702Y3318008D01*
G01X8413750Y3324104D01*
G01X8416798Y3327152D01*
G01X8423148Y3330454D01*
G01X8432292Y3330454D01*
G01X8438642Y3324104D01*
G01X8441690Y3314960D01*
G01X8441690Y3302514D01*
G01X8438642Y3293116D01*
G01X8432292Y3287020D01*
G01X8392160Y3406908D02*
G01X8385810Y3403860D01*
G01X8379714Y3397764D01*
G01X8376666Y3391414D01*
G01X8376666Y3379222D01*
G01X8379714Y3372872D01*
G01X8385810Y3366776D01*
G01X8392160Y3363728D01*
G01X8401304Y3360680D01*
G01X8416798Y3360680D01*
G01X8426196Y3363728D01*
G01X8432292Y3366776D01*
G01X8438642Y3372872D01*
G01X8441690Y3379222D01*
G01X8441690Y3391414D01*
G01X8438642Y3397764D01*
G01X8432292Y3403860D01*
G01X8426196Y3406908D01*
G01X8376666Y3437134D02*
G01X8441690Y3437134D01*
G01X8376666Y3437134D02*
G01X8376666Y3464820D01*
G01X8379714Y3474218D01*
G01X8382762Y3477266D01*
G01X8389112Y3480314D01*
G01X8395208Y3480314D01*
G01X8401304Y3477266D01*
G01X8404352Y3474218D01*
G01X8407654Y3464820D01*
G01X8407654Y3437134D01*
G01X8407654Y3458724D02*
G01X8441690Y3480314D01*
G01X8376666Y3510540D02*
G01X8441690Y3510540D01*
G01X8376666Y3510540D02*
G01X8376666Y3550672D01*
G01X8407654Y3510540D02*
G01X8407654Y3535178D01*
G01X8441690Y3510540D02*
G01X8441690Y3550672D01*
G01X8376666Y3580898D02*
G01X8441690Y3596138D01*
G01X8376666Y3611632D02*
G01X8441690Y3596138D01*
G01X8376666Y3611632D02*
G01X8441690Y3627126D01*
G01X8376666Y3642620D02*
G01X8441690Y3627126D01*
G01X8392160Y3675894D02*
G01X8389112Y3675894D01*
G01X8382762Y3678942D01*
G01X8379714Y3681990D01*
G01X8376666Y3688086D01*
G01X8376666Y3700532D01*
G01X8379714Y3706882D01*
G01X8382762Y3709930D01*
G01X8389112Y3712978D01*
G01X8395208Y3712978D01*
G01X8401304Y3709930D01*
G01X8410702Y3703580D01*
G01X8441690Y3672846D01*
G01X8441690Y3716026D01*
G01X1718310Y1130554D02*
G01X1712214Y1124204D01*
G01X1709166Y1115060D01*
G01X1709166Y1102614D01*
G01X1712214Y1093216D01*
G01X1718310Y1087120D01*
G01X1724660Y1087120D01*
G01X1730756Y1090168D01*
G01X1733804Y1093216D01*
G01X1736852Y1099566D01*
G01X1743202Y1118108D01*
G01X1746250Y1124204D01*
G01X1749298Y1127252D01*
G01X1755648Y1130554D01*
G01X1764792Y1130554D01*
G01X1771142Y1124204D01*
G01X1774190Y1115060D01*
G01X1774190Y1102614D01*
G01X1771142Y1093216D01*
G01X1764792Y1087120D01*
G01X1724660Y1207008D02*
G01X1718310Y1203960D01*
G01X1712214Y1197864D01*
G01X1709166Y1191514D01*
G01X1709166Y1179322D01*
G01X1712214Y1172972D01*
G01X1718310Y1166876D01*
G01X1724660Y1163828D01*
G01X1733804Y1160780D01*
G01X1749298Y1160780D01*
G01X1758696Y1163828D01*
G01X1764792Y1166876D01*
G01X1771142Y1172972D01*
G01X1774190Y1179322D01*
G01X1774190Y1191514D01*
G01X1771142Y1197864D01*
G01X1764792Y1203960D01*
G01X1758696Y1207008D01*
G01X1709166Y1237234D02*
G01X1774190Y1237234D01*
G01X1709166Y1237234D02*
G01X1709166Y1264920D01*
G01X1712214Y1274318D01*
G01X1715262Y1277366D01*
G01X1721612Y1280414D01*
G01X1727708Y1280414D01*
G01X1733804Y1277366D01*
G01X1736852Y1274318D01*
G01X1740154Y1264920D01*
G01X1740154Y1237234D01*
G01X1740154Y1258824D02*
G01X1774190Y1280414D01*
G01X1709166Y1310640D02*
G01X1774190Y1310640D01*
G01X1709166Y1310640D02*
G01X1709166Y1350772D01*
G01X1740154Y1310640D02*
G01X1740154Y1335278D01*
G01X1774190Y1310640D02*
G01X1774190Y1350772D01*
G01X1709166Y1380998D02*
G01X1774190Y1396238D01*
G01X1709166Y1411732D02*
G01X1774190Y1396238D01*
G01X1709166Y1411732D02*
G01X1774190Y1427226D01*
G01X1709166Y1442720D02*
G01X1774190Y1427226D01*
G01X1709166Y1503680D02*
G01X1752346Y1472946D01*
G01X1752346Y1519174D01*
G01X1709166Y1503680D02*
G01X1774190Y1503680D01*
G01X8398510Y327654D02*
G01X8392414Y321304D01*
G01X8389366Y312160D01*
G01X8389366Y299714D01*
G01X8392414Y290316D01*
G01X8398510Y284220D01*
G01X8404860Y284220D01*
G01X8410956Y287268D01*
G01X8414004Y290316D01*
G01X8417052Y296666D01*
G01X8423402Y315208D01*
G01X8426450Y321304D01*
G01X8429498Y324352D01*
G01X8435848Y327654D01*
G01X8444992Y327654D01*
G01X8451342Y321304D01*
G01X8454390Y312160D01*
G01X8454390Y299714D01*
G01X8451342Y290316D01*
G01X8444992Y284220D01*
G01X8404860Y404108D02*
G01X8398510Y401060D01*
G01X8392414Y394964D01*
G01X8389366Y388614D01*
G01X8389366Y376422D01*
G01X8392414Y370072D01*
G01X8398510Y363976D01*
G01X8404860Y360928D01*
G01X8414004Y357880D01*
G01X8429498Y357880D01*
G01X8438896Y360928D01*
G01X8444992Y363976D01*
G01X8451342Y370072D01*
G01X8454390Y376422D01*
G01X8454390Y388614D01*
G01X8451342Y394964D01*
G01X8444992Y401060D01*
G01X8438896Y404108D01*
G01X8389366Y434334D02*
G01X8454390Y434334D01*
G01X8389366Y434334D02*
G01X8389366Y462020D01*
G01X8392414Y471418D01*
G01X8395462Y474466D01*
G01X8401812Y477514D01*
G01X8407908Y477514D01*
G01X8414004Y474466D01*
G01X8417052Y471418D01*
G01X8420354Y462020D01*
G01X8420354Y434334D01*
G01X8420354Y455924D02*
G01X8454390Y477514D01*
G01X8389366Y507740D02*
G01X8454390Y507740D01*
G01X8389366Y507740D02*
G01X8389366Y547872D01*
G01X8420354Y507740D02*
G01X8420354Y532378D01*
G01X8454390Y507740D02*
G01X8454390Y547872D01*
G01X8389366Y578098D02*
G01X8454390Y593338D01*
G01X8389366Y608832D02*
G01X8454390Y593338D01*
G01X8389366Y608832D02*
G01X8454390Y624326D01*
G01X8389366Y639820D02*
G01X8454390Y624326D01*
G01X8389366Y676142D02*
G01X8389366Y710178D01*
G01X8414004Y691636D01*
G01X8414004Y700780D01*
G01X8417052Y707130D01*
G01X8420354Y710178D01*
G01X8429498Y713226D01*
G01X8435848Y713226D01*
G01X8444992Y710178D01*
G01X8451342Y704082D01*
G01X8454390Y694684D01*
G01X8454390Y685286D01*
G01X8451342Y676142D01*
G01X8448040Y673094D01*
G01X8441944Y670046D01*
G01X5198110Y5181854D02*
G01X5192014Y5175504D01*
G01X5188966Y5166360D01*
G01X5188966Y5153914D01*
G01X5192014Y5144516D01*
G01X5198110Y5138420D01*
G01X5204460Y5138420D01*
G01X5210556Y5141468D01*
G01X5213604Y5144516D01*
G01X5216652Y5150866D01*
G01X5223002Y5169408D01*
G01X5226050Y5175504D01*
G01X5229098Y5178552D01*
G01X5235448Y5181854D01*
G01X5244592Y5181854D01*
G01X5250942Y5175504D01*
G01X5253990Y5166360D01*
G01X5253990Y5153914D01*
G01X5250942Y5144516D01*
G01X5244592Y5138420D01*
G01X5204460Y5258308D02*
G01X5198110Y5255260D01*
G01X5192014Y5249164D01*
G01X5188966Y5242814D01*
G01X5188966Y5230622D01*
G01X5192014Y5224272D01*
G01X5198110Y5218176D01*
G01X5204460Y5215128D01*
G01X5213604Y5212080D01*
G01X5229098Y5212080D01*
G01X5238496Y5215128D01*
G01X5244592Y5218176D01*
G01X5250942Y5224272D01*
G01X5253990Y5230622D01*
G01X5253990Y5242814D01*
G01X5250942Y5249164D01*
G01X5244592Y5255260D01*
G01X5238496Y5258308D01*
G01X5188966Y5288534D02*
G01X5253990Y5288534D01*
G01X5188966Y5288534D02*
G01X5188966Y5316220D01*
G01X5192014Y5325618D01*
G01X5195062Y5328666D01*
G01X5201412Y5331714D01*
G01X5207508Y5331714D01*
G01X5213604Y5328666D01*
G01X5216652Y5325618D01*
G01X5219954Y5316220D01*
G01X5219954Y5288534D01*
G01X5219954Y5310124D02*
G01X5253990Y5331714D01*
G01X5188966Y5361940D02*
G01X5253990Y5361940D01*
G01X5188966Y5361940D02*
G01X5188966Y5402072D01*
G01X5219954Y5361940D02*
G01X5219954Y5386578D01*
G01X5253990Y5361940D02*
G01X5253990Y5402072D01*
G01X5188966Y5432298D02*
G01X5253990Y5447538D01*
G01X5188966Y5463032D02*
G01X5253990Y5447538D01*
G01X5188966Y5463032D02*
G01X5253990Y5478526D01*
G01X5188966Y5494020D02*
G01X5253990Y5478526D01*
G01X5188966Y5561330D02*
G01X5188966Y5530342D01*
G01X5216652Y5527294D01*
G01X5213604Y5530342D01*
G01X5210556Y5539486D01*
G01X5210556Y5548884D01*
G01X5213604Y5558282D01*
G01X5219954Y5564378D01*
G01X5229098Y5567426D01*
G01X5235448Y5567426D01*
G01X5244592Y5564378D01*
G01X5250942Y5558282D01*
G01X5253990Y5548884D01*
G01X5253990Y5539486D01*
G01X5250942Y5530342D01*
G01X5247640Y5527294D01*
G01X5241544Y5524246D01*
G01X502666Y4770120D02*
G01X549148Y4770120D01*
G01X558292Y4773168D01*
G01X564642Y4779518D01*
G01X567690Y4788662D01*
G01X567690Y4795012D01*
G01X564642Y4804156D01*
G01X558292Y4810252D01*
G01X549148Y4813554D01*
G01X502666Y4813554D01*
G01X515112Y4843780D02*
G01X511810Y4849876D01*
G01X502666Y4859020D01*
G01X567690Y4859020D01*
G01X524256Y4929378D02*
G01X533654Y4926330D01*
G01X539750Y4919980D01*
G01X542798Y4910836D01*
G01X542798Y4907788D01*
G01X539750Y4898390D01*
G01X533654Y4892294D01*
G01X524256Y4889246D01*
G01X521208Y4889246D01*
G01X511810Y4892294D01*
G01X505714Y4898390D01*
G01X502666Y4907788D01*
G01X502666Y4910836D01*
G01X505714Y4919980D01*
G01X511810Y4926330D01*
G01X524256Y4929378D01*
G01X539750Y4929378D01*
G01X555244Y4926330D01*
G01X564642Y4919980D01*
G01X567690Y4910836D01*
G01X567690Y4904486D01*
G01X564642Y4895342D01*
G01X558292Y4892294D01*
G01X515366Y4465320D02*
G01X580390Y4465320D01*
G01X515366Y4465320D02*
G01X515366Y4493260D01*
G01X518414Y4502404D01*
G01X521462Y4505452D01*
G01X527812Y4508754D01*
G01X533908Y4508754D01*
G01X540004Y4505452D01*
G01X543052Y4502404D01*
G01X546354Y4493260D01*
G01X546354Y4465320D01*
G01X546354Y4486910D02*
G01X580390Y4508754D01*
G01X515366Y4545076D02*
G01X515366Y4579112D01*
G01X540004Y4560570D01*
G01X540004Y4569714D01*
G01X543052Y4576064D01*
G01X546354Y4579112D01*
G01X555498Y4582160D01*
G01X561848Y4582160D01*
G01X570992Y4579112D01*
G01X577342Y4573016D01*
G01X580390Y4563618D01*
G01X580390Y4554220D01*
G01X577342Y4545076D01*
G01X574040Y4542028D01*
G01X567944Y4538980D01*
G01X515366Y4643120D02*
G01X558546Y4612386D01*
G01X558546Y4658614D01*
G01X515366Y4643120D02*
G01X580390Y4643120D01*
G01X41656Y4456430D02*
G01X106680Y4456430D01*
G01X106680Y4456430D02*
G01X106680Y4493514D01*
G01X41656Y4523740D02*
G01X106680Y4548378D01*
G01X41656Y4573270D02*
G01X106680Y4548378D01*
G01X45466Y5138420D02*
G01X110490Y5138420D01*
G01X45466Y5181854D02*
G01X110490Y5181854D01*
G01X76454Y5138420D02*
G01X76454Y5181854D01*
G01X45466Y5212080D02*
G01X110490Y5236718D01*
G01X45466Y5261610D02*
G01X110490Y5236718D01*
G01X1010666Y4770120D02*
G01X1057148Y4770120D01*
G01X1066292Y4773168D01*
G01X1072642Y4779518D01*
G01X1075690Y4788662D01*
G01X1075690Y4795012D01*
G01X1072642Y4804156D01*
G01X1066292Y4810252D01*
G01X1057148Y4813554D01*
G01X1010666Y4813554D01*
G01X1026160Y4846828D02*
G01X1023112Y4846828D01*
G01X1016762Y4849876D01*
G01X1013714Y4852924D01*
G01X1010666Y4859020D01*
G01X1010666Y4871466D01*
G01X1013714Y4877816D01*
G01X1016762Y4880864D01*
G01X1023112Y4883912D01*
G01X1029208Y4883912D01*
G01X1035304Y4880864D01*
G01X1044702Y4874514D01*
G01X1075690Y4843780D01*
G01X1075690Y4886960D01*
G01X1010666Y4935728D02*
G01X1013714Y4926330D01*
G01X1023112Y4920234D01*
G01X1038352Y4917186D01*
G01X1047750Y4917186D01*
G01X1063244Y4920234D01*
G01X1072642Y4926330D01*
G01X1075690Y4935728D01*
G01X1075690Y4941824D01*
G01X1072642Y4951222D01*
G01X1063244Y4957318D01*
G01X1047750Y4960366D01*
G01X1038352Y4960366D01*
G01X1023112Y4957318D01*
G01X1013714Y4951222D01*
G01X1010666Y4941824D01*
G01X1010666Y4935728D01*
G01X1023366Y4465320D02*
G01X1088390Y4465320D01*
G01X1023366Y4465320D02*
G01X1023366Y4493260D01*
G01X1026414Y4502404D01*
G01X1029462Y4505452D01*
G01X1035812Y4508754D01*
G01X1041908Y4508754D01*
G01X1048004Y4505452D01*
G01X1051052Y4502404D01*
G01X1054354Y4493260D01*
G01X1054354Y4465320D01*
G01X1054354Y4486910D02*
G01X1088390Y4508754D01*
G01X1023366Y4545076D02*
G01X1023366Y4579112D01*
G01X1048004Y4560570D01*
G01X1048004Y4569714D01*
G01X1051052Y4576064D01*
G01X1054354Y4579112D01*
G01X1063498Y4582160D01*
G01X1069848Y4582160D01*
G01X1078992Y4579112D01*
G01X1085342Y4573016D01*
G01X1088390Y4563618D01*
G01X1088390Y4554220D01*
G01X1085342Y4545076D01*
G01X1082040Y4542028D01*
G01X1075944Y4538980D01*
G01X1032510Y4649470D02*
G01X1026414Y4646422D01*
G01X1023366Y4637024D01*
G01X1023366Y4630928D01*
G01X1026414Y4621530D01*
G01X1035812Y4615434D01*
G01X1051052Y4612386D01*
G01X1066546Y4612386D01*
G01X1078992Y4615434D01*
G01X1085342Y4621530D01*
G01X1088390Y4630928D01*
G01X1088390Y4633976D01*
G01X1085342Y4643120D01*
G01X1078992Y4649470D01*
G01X1069848Y4652518D01*
G01X1066546Y4652518D01*
G01X1057402Y4649470D01*
G01X1051052Y4643120D01*
G01X1048004Y4633976D01*
G01X1048004Y4630928D01*
G01X1051052Y4621530D01*
G01X1057402Y4615434D01*
G01X1066546Y4612386D01*
G01X1518666Y4770120D02*
G01X1565148Y4770120D01*
G01X1574292Y4773168D01*
G01X1580642Y4779518D01*
G01X1583690Y4788662D01*
G01X1583690Y4795012D01*
G01X1580642Y4804156D01*
G01X1574292Y4810252D01*
G01X1565148Y4813554D01*
G01X1518666Y4813554D01*
G01X1534160Y4846828D02*
G01X1531112Y4846828D01*
G01X1524762Y4849876D01*
G01X1521714Y4852924D01*
G01X1518666Y4859020D01*
G01X1518666Y4871466D01*
G01X1521714Y4877816D01*
G01X1524762Y4880864D01*
G01X1531112Y4883912D01*
G01X1537208Y4883912D01*
G01X1543304Y4880864D01*
G01X1552702Y4874514D01*
G01X1583690Y4843780D01*
G01X1583690Y4886960D01*
G01X1531112Y4917186D02*
G01X1527810Y4923282D01*
G01X1518666Y4932426D01*
G01X1583690Y4932426D01*
G01X1531366Y4465320D02*
G01X1596390Y4465320D01*
G01X1531366Y4465320D02*
G01X1531366Y4493260D01*
G01X1534414Y4502404D01*
G01X1537462Y4505452D01*
G01X1543812Y4508754D01*
G01X1549908Y4508754D01*
G01X1556004Y4505452D01*
G01X1559052Y4502404D01*
G01X1562354Y4493260D01*
G01X1562354Y4465320D01*
G01X1562354Y4486910D02*
G01X1596390Y4508754D01*
G01X1531366Y4545076D02*
G01X1531366Y4579112D01*
G01X1556004Y4560570D01*
G01X1556004Y4569714D01*
G01X1559052Y4576064D01*
G01X1562354Y4579112D01*
G01X1571498Y4582160D01*
G01X1577848Y4582160D01*
G01X1586992Y4579112D01*
G01X1593342Y4573016D01*
G01X1596390Y4563618D01*
G01X1596390Y4554220D01*
G01X1593342Y4545076D01*
G01X1590040Y4542028D01*
G01X1583944Y4538980D01*
G01X1531366Y4627626D02*
G01X1534414Y4618482D01*
G01X1540510Y4615434D01*
G01X1546860Y4615434D01*
G01X1552956Y4618482D01*
G01X1556004Y4624578D01*
G01X1559052Y4637024D01*
G01X1562354Y4646422D01*
G01X1568450Y4652518D01*
G01X1574546Y4655566D01*
G01X1583944Y4655566D01*
G01X1590040Y4652518D01*
G01X1593342Y4649470D01*
G01X1596390Y4640072D01*
G01X1596390Y4627626D01*
G01X1593342Y4618482D01*
G01X1590040Y4615434D01*
G01X1583944Y4612386D01*
G01X1574546Y4612386D01*
G01X1568450Y4615434D01*
G01X1562354Y4621530D01*
G01X1559052Y4630928D01*
G01X1556004Y4643120D01*
G01X1552956Y4649470D01*
G01X1546860Y4652518D01*
G01X1540510Y4652518D01*
G01X1534414Y4649470D01*
G01X1531366Y4640072D01*
G01X1531366Y4627626D01*
G01X2026666Y4770120D02*
G01X2073148Y4770120D01*
G01X2082292Y4773168D01*
G01X2088642Y4779518D01*
G01X2091690Y4788662D01*
G01X2091690Y4795012D01*
G01X2088642Y4804156D01*
G01X2082292Y4810252D01*
G01X2073148Y4813554D01*
G01X2026666Y4813554D01*
G01X2042160Y4846828D02*
G01X2039112Y4846828D01*
G01X2032762Y4849876D01*
G01X2029714Y4852924D01*
G01X2026666Y4859020D01*
G01X2026666Y4871466D01*
G01X2029714Y4877816D01*
G01X2032762Y4880864D01*
G01X2039112Y4883912D01*
G01X2045208Y4883912D01*
G01X2051304Y4880864D01*
G01X2060702Y4874514D01*
G01X2091690Y4843780D01*
G01X2091690Y4886960D01*
G01X2042160Y4920234D02*
G01X2039112Y4920234D01*
G01X2032762Y4923282D01*
G01X2029714Y4926330D01*
G01X2026666Y4932426D01*
G01X2026666Y4944872D01*
G01X2029714Y4951222D01*
G01X2032762Y4954270D01*
G01X2039112Y4957318D01*
G01X2045208Y4957318D01*
G01X2051304Y4954270D01*
G01X2060702Y4947920D01*
G01X2091690Y4917186D01*
G01X2091690Y4960366D01*
G01X2051642Y4468397D02*
G01X2116666Y4468397D01*
G01X2051642Y4468397D02*
G01X2051642Y4496337D01*
G01X2054690Y4505481D01*
G01X2057738Y4508529D01*
G01X2064088Y4511831D01*
G01X2070184Y4511831D01*
G01X2076280Y4508529D01*
G01X2079328Y4505481D01*
G01X2082630Y4496337D01*
G01X2082630Y4468397D01*
G01X2082630Y4489987D02*
G01X2116666Y4511831D01*
G01X2051642Y4572791D02*
G01X2094822Y4542057D01*
G01X2094822Y4588285D01*
G01X2051642Y4572791D02*
G01X2116666Y4572791D01*
G01X2051642Y4637053D02*
G01X2054690Y4627655D01*
G01X2064088Y4621559D01*
G01X2079328Y4618511D01*
G01X2088726Y4618511D01*
G01X2104220Y4621559D01*
G01X2113618Y4627655D01*
G01X2116666Y4637053D01*
G01X2116666Y4643149D01*
G01X2113618Y4652547D01*
G01X2104220Y4658643D01*
G01X2088726Y4661691D01*
G01X2079328Y4661691D01*
G01X2064088Y4658643D01*
G01X2054690Y4652547D01*
G01X2051642Y4643149D01*
G01X2051642Y4637053D01*
G01X520573Y5080127D02*
G01X585597Y5080127D01*
G01X520573Y5080127D02*
G01X520573Y5108067D01*
G01X523621Y5117211D01*
G01X526669Y5120259D01*
G01X533019Y5123561D01*
G01X539115Y5123561D01*
G01X545211Y5120259D01*
G01X548259Y5117211D01*
G01X551561Y5108067D01*
G01X551561Y5080127D01*
G01X551561Y5101717D02*
G01X585597Y5123561D01*
G01X520573Y5159883D02*
G01X520573Y5193919D01*
G01X545211Y5175377D01*
G01X545211Y5184521D01*
G01X548259Y5190871D01*
G01X551561Y5193919D01*
G01X560705Y5196967D01*
G01X567055Y5196967D01*
G01X576199Y5193919D01*
G01X582549Y5187823D01*
G01X585597Y5178425D01*
G01X585597Y5169027D01*
G01X582549Y5159883D01*
G01X579247Y5156835D01*
G01X573151Y5153787D01*
G01X520573Y5233289D02*
G01X520573Y5267325D01*
G01X545211Y5248783D01*
G01X545211Y5257927D01*
G01X548259Y5264277D01*
G01X551561Y5267325D01*
G01X560705Y5270373D01*
G01X567055Y5270373D01*
G01X576199Y5267325D01*
G01X582549Y5261229D01*
G01X585597Y5251831D01*
G01X585597Y5242433D01*
G01X582549Y5233289D01*
G01X579247Y5230241D01*
G01X573151Y5227193D01*
G01X1023366Y5074920D02*
G01X1088390Y5074920D01*
G01X1023366Y5074920D02*
G01X1023366Y5102860D01*
G01X1026414Y5112004D01*
G01X1029462Y5115052D01*
G01X1035812Y5118354D01*
G01X1041908Y5118354D01*
G01X1048004Y5115052D01*
G01X1051052Y5112004D01*
G01X1054354Y5102860D01*
G01X1054354Y5074920D01*
G01X1054354Y5096510D02*
G01X1088390Y5118354D01*
G01X1023366Y5154676D02*
G01X1023366Y5188712D01*
G01X1048004Y5170170D01*
G01X1048004Y5179314D01*
G01X1051052Y5185664D01*
G01X1054354Y5188712D01*
G01X1063498Y5191760D01*
G01X1069848Y5191760D01*
G01X1078992Y5188712D01*
G01X1085342Y5182616D01*
G01X1088390Y5173218D01*
G01X1088390Y5163820D01*
G01X1085342Y5154676D01*
G01X1082040Y5151628D01*
G01X1075944Y5148580D01*
G01X1023366Y5259070D02*
G01X1023366Y5228082D01*
G01X1051052Y5225034D01*
G01X1048004Y5228082D01*
G01X1044956Y5237226D01*
G01X1044956Y5246624D01*
G01X1048004Y5256022D01*
G01X1054354Y5262118D01*
G01X1063498Y5265166D01*
G01X1069848Y5265166D01*
G01X1078992Y5262118D01*
G01X1085342Y5256022D01*
G01X1088390Y5246624D01*
G01X1088390Y5237226D01*
G01X1085342Y5228082D01*
G01X1082040Y5225034D01*
G01X1075944Y5221986D01*
G01X1518666Y5074920D02*
G01X1583690Y5074920D01*
G01X1518666Y5074920D02*
G01X1518666Y5102860D01*
G01X1521714Y5112004D01*
G01X1524762Y5115052D01*
G01X1531112Y5118354D01*
G01X1537208Y5118354D01*
G01X1543304Y5115052D01*
G01X1546352Y5112004D01*
G01X1549654Y5102860D01*
G01X1549654Y5074920D01*
G01X1549654Y5096510D02*
G01X1583690Y5118354D01*
G01X1518666Y5154676D02*
G01X1518666Y5188712D01*
G01X1543304Y5170170D01*
G01X1543304Y5179314D01*
G01X1546352Y5185664D01*
G01X1549654Y5188712D01*
G01X1558798Y5191760D01*
G01X1565148Y5191760D01*
G01X1574292Y5188712D01*
G01X1580642Y5182616D01*
G01X1583690Y5173218D01*
G01X1583690Y5163820D01*
G01X1580642Y5154676D01*
G01X1577340Y5151628D01*
G01X1571244Y5148580D01*
G01X1518666Y5265166D02*
G01X1583690Y5234178D01*
G01X1518666Y5221986D02*
G01X1518666Y5265166D01*
G01X2052066Y5074920D02*
G01X2117090Y5074920D01*
G01X2052066Y5074920D02*
G01X2052066Y5102860D01*
G01X2055114Y5112004D01*
G01X2058162Y5115052D01*
G01X2064512Y5118354D01*
G01X2070608Y5118354D01*
G01X2076704Y5115052D01*
G01X2079752Y5112004D01*
G01X2083054Y5102860D01*
G01X2083054Y5074920D01*
G01X2083054Y5096510D02*
G01X2117090Y5118354D01*
G01X2052066Y5154676D02*
G01X2052066Y5188712D01*
G01X2076704Y5170170D01*
G01X2076704Y5179314D01*
G01X2079752Y5185664D01*
G01X2083054Y5188712D01*
G01X2092198Y5191760D01*
G01X2098548Y5191760D01*
G01X2107692Y5188712D01*
G01X2114042Y5182616D01*
G01X2117090Y5173218D01*
G01X2117090Y5163820D01*
G01X2114042Y5154676D01*
G01X2110740Y5151628D01*
G01X2104644Y5148580D01*
G01X2073656Y5262118D02*
G01X2083054Y5259070D01*
G01X2089150Y5252720D01*
G01X2092198Y5243576D01*
G01X2092198Y5240528D01*
G01X2089150Y5231130D01*
G01X2083054Y5225034D01*
G01X2073656Y5221986D01*
G01X2070608Y5221986D01*
G01X2061210Y5225034D01*
G01X2055114Y5231130D01*
G01X2052066Y5240528D01*
G01X2052066Y5243576D01*
G01X2055114Y5252720D01*
G01X2061210Y5259070D01*
G01X2073656Y5262118D01*
G01X2089150Y5262118D01*
G01X2104644Y5259070D01*
G01X2114042Y5252720D01*
G01X2117090Y5243576D01*
G01X2117090Y5237226D01*
G01X2114042Y5228082D01*
G01X2107692Y5225034D01*
G01X2384016Y5219195D02*
G01X2384016Y5154171D01*
G01X2384016Y5154171D02*
G01X2421100Y5154171D01*
G01X2451326Y5219195D02*
G01X2451326Y5154171D01*
G01X2451326Y5219195D02*
G01X2491458Y5219195D01*
G01X2451326Y5188207D02*
G01X2475964Y5188207D01*
G01X2451326Y5154171D02*
G01X2491458Y5154171D01*
G01X2521684Y5219195D02*
G01X2521684Y5154171D01*
G01X2521684Y5219195D02*
G01X2543274Y5219195D01*
G01X2552418Y5216147D01*
G01X2558768Y5210051D01*
G01X2561816Y5203701D01*
G01X2564864Y5194557D01*
G01X2564864Y5179063D01*
G01X2561816Y5169665D01*
G01X2558768Y5163569D01*
G01X2552418Y5157219D01*
G01X2543274Y5154171D01*
G01X2521684Y5154171D01*
G01X2632174Y5219195D02*
G01X2601186Y5219195D01*
G01X2598138Y5191509D01*
G01X2601186Y5194557D01*
G01X2610330Y5197605D01*
G01X2619728Y5197605D01*
G01X2629126Y5194557D01*
G01X2635222Y5188207D01*
G01X2638270Y5179063D01*
G01X2638270Y5172713D01*
G01X2635222Y5163569D01*
G01X2629126Y5157219D01*
G01X2619728Y5154171D01*
G01X2610330Y5154171D01*
G01X2601186Y5157219D01*
G01X2598138Y5160521D01*
G01X2595090Y5166617D01*
G01X3106166Y5036820D02*
G01X3171190Y5036820D01*
G01X3106166Y5036820D02*
G01X3106166Y5058410D01*
G01X3109214Y5067808D01*
G01X3115310Y5073904D01*
G01X3121660Y5076952D01*
G01X3130804Y5080254D01*
G01X3146298Y5080254D01*
G01X3155696Y5076952D01*
G01X3161792Y5073904D01*
G01X3168142Y5067808D01*
G01X3171190Y5058410D01*
G01X3171190Y5036820D01*
G01X3106166Y5153660D02*
G01X3171190Y5122672D01*
G01X3106166Y5110480D02*
G01X3106166Y5153660D01*
G01X3131566Y4808220D02*
G01X3178048Y4808220D01*
G01X3187192Y4811268D01*
G01X3193542Y4817618D01*
G01X3196590Y4826762D01*
G01X3196590Y4833112D01*
G01X3193542Y4842256D01*
G01X3187192Y4848352D01*
G01X3178048Y4851654D01*
G01X3131566Y4851654D01*
G01X3147060Y4884928D02*
G01X3144012Y4884928D01*
G01X3137662Y4887976D01*
G01X3134614Y4891024D01*
G01X3131566Y4897120D01*
G01X3131566Y4909566D01*
G01X3134614Y4915916D01*
G01X3137662Y4918964D01*
G01X3144012Y4922012D01*
G01X3150108Y4922012D01*
G01X3156204Y4918964D01*
G01X3165602Y4912614D01*
G01X3196590Y4881880D01*
G01X3196590Y4925060D01*
G01X3131566Y4961382D02*
G01X3131566Y4995418D01*
G01X3156204Y4976876D01*
G01X3156204Y4986020D01*
G01X3159252Y4992370D01*
G01X3162554Y4995418D01*
G01X3171698Y4998466D01*
G01X3178048Y4998466D01*
G01X3187192Y4995418D01*
G01X3193542Y4989322D01*
G01X3196590Y4979924D01*
G01X3196590Y4970526D01*
G01X3193542Y4961382D01*
G01X3190240Y4958334D01*
G01X3184144Y4955286D01*
G01X2987802Y4472940D02*
G01X2984754Y4479290D01*
G01X2978404Y4485386D01*
G01X2972308Y4488434D01*
G01X2959862Y4488434D01*
G01X2953766Y4485386D01*
G01X2947416Y4479290D01*
G01X2944368Y4472940D01*
G01X2941320Y4463796D01*
G01X2941320Y4448302D01*
G01X2944368Y4438904D01*
G01X2947416Y4432808D01*
G01X2953766Y4426458D01*
G01X2959862Y4423410D01*
G01X2972308Y4423410D01*
G01X2978404Y4426458D01*
G01X2984754Y4432808D01*
G01X2987802Y4438904D01*
G01X3018028Y4475988D02*
G01X3024124Y4479290D01*
G01X3033268Y4488434D01*
G01X3033268Y4423410D01*
G01X3082036Y4488434D02*
G01X3072638Y4485386D01*
G01X3066542Y4475988D01*
G01X3063494Y4460748D01*
G01X3063494Y4451350D01*
G01X3066542Y4435856D01*
G01X3072638Y4426458D01*
G01X3082036Y4423410D01*
G01X3088132Y4423410D01*
G01X3097530Y4426458D01*
G01X3103626Y4435856D01*
G01X3106674Y4451350D01*
G01X3106674Y4460748D01*
G01X3103626Y4475988D01*
G01X3097530Y4485386D01*
G01X3088132Y4488434D01*
G01X3082036Y4488434D01*
G01X3626866Y4871720D02*
G01X3691890Y4871720D01*
G01X3626866Y4871720D02*
G01X3626866Y4899660D01*
G01X3629914Y4908804D01*
G01X3632962Y4911852D01*
G01X3639312Y4915154D01*
G01X3645408Y4915154D01*
G01X3651504Y4911852D01*
G01X3654552Y4908804D01*
G01X3657854Y4899660D01*
G01X3657854Y4871720D01*
G01X3657854Y4893310D02*
G01X3691890Y4915154D01*
G01X3626866Y4976114D02*
G01X3670046Y4945380D01*
G01X3670046Y4991608D01*
G01X3626866Y4976114D02*
G01X3691890Y4976114D01*
G01X3639312Y5021834D02*
G01X3636010Y5027930D01*
G01X3626866Y5037074D01*
G01X3691890Y5037074D01*
G01X3697450Y5161283D02*
G01X3691100Y5158235D01*
G01X3685004Y5151885D01*
G01X3681956Y5145789D01*
G01X3681956Y5133343D01*
G01X3685004Y5127247D01*
G01X3691100Y5120897D01*
G01X3697450Y5117849D01*
G01X3706594Y5114801D01*
G01X3722088Y5114801D01*
G01X3731486Y5117849D01*
G01X3737582Y5120897D01*
G01X3743932Y5127247D01*
G01X3746980Y5133343D01*
G01X3746980Y5145789D01*
G01X3743932Y5151885D01*
G01X3737582Y5158235D01*
G01X3731486Y5161283D01*
G01X3703546Y5231641D02*
G01X3712944Y5228593D01*
G01X3719040Y5222243D01*
G01X3722088Y5213099D01*
G01X3722088Y5210051D01*
G01X3719040Y5200653D01*
G01X3712944Y5194557D01*
G01X3703546Y5191509D01*
G01X3700498Y5191509D01*
G01X3691100Y5194557D01*
G01X3685004Y5200653D01*
G01X3681956Y5210051D01*
G01X3681956Y5213099D01*
G01X3685004Y5222243D01*
G01X3691100Y5228593D01*
G01X3703546Y5231641D01*
G01X3719040Y5231641D01*
G01X3734534Y5228593D01*
G01X3743932Y5222243D01*
G01X3746980Y5213099D01*
G01X3746980Y5206749D01*
G01X3743932Y5197605D01*
G01X3737582Y5194557D01*
G01X3728466Y4617720D02*
G01X3793490Y4617720D01*
G01X3728466Y4617720D02*
G01X3728466Y4645660D01*
G01X3731514Y4654804D01*
G01X3734562Y4657852D01*
G01X3740912Y4661154D01*
G01X3747008Y4661154D01*
G01X3753104Y4657852D01*
G01X3756152Y4654804D01*
G01X3759454Y4645660D01*
G01X3759454Y4617720D01*
G01X3759454Y4639310D02*
G01X3793490Y4661154D01*
G01X3728466Y4722114D02*
G01X3771646Y4691380D01*
G01X3771646Y4737608D01*
G01X3728466Y4722114D02*
G01X3793490Y4722114D01*
G01X3743960Y4770882D02*
G01X3740912Y4770882D01*
G01X3734562Y4773930D01*
G01X3731514Y4776978D01*
G01X3728466Y4783074D01*
G01X3728466Y4795520D01*
G01X3731514Y4801870D01*
G01X3734562Y4804918D01*
G01X3740912Y4807966D01*
G01X3747008Y4807966D01*
G01X3753104Y4804918D01*
G01X3762502Y4798568D01*
G01X3793490Y4767834D01*
G01X3793490Y4811014D01*
G01X2458720Y4488434D02*
G01X2458720Y4423410D01*
G01X2502154Y4488434D02*
G01X2502154Y4423410D01*
G01X2458720Y4457446D02*
G01X2502154Y4457446D01*
G01X2535428Y4472940D02*
G01X2535428Y4475988D01*
G01X2538476Y4482338D01*
G01X2541524Y4485386D01*
G01X2547620Y4488434D01*
G01X2560066Y4488434D01*
G01X2566416Y4485386D01*
G01X2569464Y4482338D01*
G01X2572512Y4475988D01*
G01X2572512Y4469892D01*
G01X2569464Y4463796D01*
G01X2563114Y4454398D01*
G01X2532380Y4423410D01*
G01X2575560Y4423410D01*
G01X2642870Y4488434D02*
G01X2611882Y4488434D01*
G01X2608834Y4460748D01*
G01X2611882Y4463796D01*
G01X2621026Y4466844D01*
G01X2630424Y4466844D01*
G01X2639822Y4463796D01*
G01X2645918Y4457446D01*
G01X2648966Y4448302D01*
G01X2648966Y4441952D01*
G01X2645918Y4432808D01*
G01X2639822Y4426458D01*
G01X2630424Y4423410D01*
G01X2621026Y4423410D01*
G01X2611882Y4426458D01*
G01X2608834Y4429760D01*
G01X2605786Y4435856D01*
G01X2700020Y4488434D02*
G01X2700020Y4423410D01*
G01X2700020Y4488434D02*
G01X2727960Y4488434D01*
G01X2737104Y4485386D01*
G01X2740152Y4482338D01*
G01X2743454Y4475988D01*
G01X2743454Y4469892D01*
G01X2740152Y4463796D01*
G01X2737104Y4460748D01*
G01X2727960Y4457446D01*
G01X2700020Y4457446D01*
G01X2721610Y4457446D02*
G01X2743454Y4423410D01*
G01X2804414Y4488434D02*
G01X2773680Y4445254D01*
G01X2819908Y4445254D01*
G01X2804414Y4488434D02*
G01X2804414Y4423410D01*
G01X2856230Y4488434D02*
G01X2890266Y4488434D01*
G01X2871724Y4463796D01*
G01X2880868Y4463796D01*
G01X2887218Y4460748D01*
G01X2890266Y4457446D01*
G01X2893314Y4448302D01*
G01X2893314Y4441952D01*
G01X2890266Y4432808D01*
G01X2884170Y4426458D01*
G01X2874772Y4423410D01*
G01X2865374Y4423410D01*
G01X2856230Y4426458D01*
G01X2853182Y4429760D01*
G01X2850134Y4435856D01*
G04 Text End*

G04 PolygonModel Start*
G54D13*
G01X4362592Y1977601D02*
G01X4300151Y1977601D01*
G01X4300151Y1977601D02*
G01X4300151Y1925574D01*
G01X4770150Y1925157D02*
G01X4770150Y1977601D01*
G01X4770150Y1977601D02*
G01X4707707Y1977601D01*
G01X4707707Y1527599D02*
G01X4770150Y1527599D01*
G01X4770150Y1527599D02*
G01X4770150Y1580043D01*
G01X4300151Y1579626D02*
G01X4300151Y1527599D01*
G01X4300151Y1527599D02*
G01X4362592Y1527599D01*
G01X6242192Y1977601D02*
G01X6179751Y1977601D01*
G01X6179751Y1977601D02*
G01X6179751Y1925574D01*
G01X6649750Y1925157D02*
G01X6649750Y1977601D01*
G01X6649750Y1977601D02*
G01X6587307Y1977601D01*
G01X6587307Y1527599D02*
G01X6649750Y1527599D01*
G01X6649750Y1527599D02*
G01X6649750Y1580043D01*
G01X6179751Y1579626D02*
G01X6179751Y1527599D01*
G01X6179751Y1527599D02*
G01X6242192Y1527599D01*
G01X8121792Y1977601D02*
G01X8059351Y1977601D01*
G01X8059351Y1977601D02*
G01X8059351Y1925574D01*
G01X8529350Y1925157D02*
G01X8529350Y1977601D01*
G01X8529350Y1977601D02*
G01X8466907Y1977601D01*
G01X8466907Y1527599D02*
G01X8529350Y1527599D01*
G01X8529350Y1527599D02*
G01X8529350Y1580043D01*
G01X8059351Y1579626D02*
G01X8059351Y1527599D01*
G01X8059351Y1527599D02*
G01X8121792Y1527599D01*
G01X4438899Y2958292D02*
G01X4437901Y3106301D01*
G01X4627900Y2972300D02*
G01X4627900Y3106301D01*
G01X4437901Y3106301D02*
G01X4627903Y3106301D01*
G01X4628901Y2733289D02*
G01X4628896Y2733289D01*
G01X4628896Y2733289D02*
G01X4593902Y2698295D01*
G01X4438899Y2733289D02*
G01X4438904Y2733289D01*
G01X4438904Y2733289D02*
G01X4473898Y2698295D01*
G01X4438899Y2858292D02*
G01X4438899Y2733289D01*
G01X4628901Y2858292D02*
G01X4628901Y2733289D01*
G01X4473898Y2698295D02*
G01X4593902Y2698295D01*
G01X4483900Y2938300D02*
G01X4583900Y2938300D01*
G01X4534405Y2938300D02*
G01X4534405Y2888300D01*
G54D12*
G01X4923191Y3087680D02*
G01X4923191Y2959186D01*
G01X4923191Y2959186D02*
G01X5106609Y2959186D01*
G01X5106609Y2959186D02*
G01X5106609Y3087680D01*
G01X4923191Y3182920D02*
G01X4923191Y3311413D01*
G01X4923191Y3311413D02*
G01X5106609Y3311413D01*
G01X5106609Y3311413D02*
G01X5106609Y3182920D01*
G01X4854209Y3222620D02*
G01X4854209Y3351113D01*
G01X4854209Y3351113D02*
G01X4670791Y3351113D01*
G01X4670791Y3351113D02*
G01X4670791Y3222620D01*
G01X4854209Y3127380D02*
G01X4854209Y2998887D01*
G01X4854209Y2998887D02*
G01X4670791Y2998887D01*
G01X4670791Y2998887D02*
G01X4670791Y3127380D01*
G54D13*
G01X5475889Y3634402D02*
G01X5475889Y3274400D01*
G01X6385885Y3634402D02*
G01X6385885Y3274400D01*
G01X5475889Y3634402D02*
G01X6375387Y3634402D01*
G01X5475889Y3274400D02*
G01X6385885Y3274400D01*
G01X5995327Y3634402D02*
G01X5995327Y3835400D01*
G01X5995327Y3835400D02*
G01X6095987Y3835400D01*
G01X6095987Y3835400D02*
G01X6095987Y3634402D01*
G01X5150099Y2958292D02*
G01X5149101Y3106301D01*
G01X5339100Y2972300D02*
G01X5339100Y3106301D01*
G01X5149101Y3106301D02*
G01X5339103Y3106301D01*
G01X5340101Y2733289D02*
G01X5340096Y2733289D01*
G01X5340096Y2733289D02*
G01X5305102Y2698295D01*
G01X5150099Y2733289D02*
G01X5150104Y2733289D01*
G01X5150104Y2733289D02*
G01X5185098Y2698295D01*
G01X5150099Y2858292D02*
G01X5150099Y2733289D01*
G01X5340101Y2858292D02*
G01X5340101Y2733289D01*
G01X5185098Y2698295D02*
G01X5305102Y2698295D01*
G01X5195100Y2938300D02*
G01X5295100Y2938300D01*
G01X5245605Y2938300D02*
G01X5245605Y2888300D01*
G54D12*
G01X8142963Y4996377D02*
G01X8142963Y5160118D01*
G01X8142963Y5160118D02*
G01X7935237Y5160118D01*
G01X7935237Y5160118D02*
G01X7935237Y4996377D01*
G01X8142963Y4831140D02*
G01X8142963Y4682641D01*
G01X8142963Y4682641D02*
G01X8127721Y4667399D01*
G01X8127721Y4667399D02*
G01X7950479Y4667399D01*
G01X7950479Y4667399D02*
G01X7935237Y4682641D01*
G01X7935237Y4682641D02*
G01X7935237Y4831140D01*
G36*
G01X8127723Y4652156D02*
G01X7950482Y4652156D01*
G01X7950482Y4636916D01*
G01X8127723Y4636916D01*
G01X8127723Y4652156D01*
G37*
G01X1740159Y2424321D02*
G01X2044441Y2424321D01*
G01X2044441Y2424321D02*
G01X2044441Y1919079D01*
G01X2044441Y1919079D02*
G01X1740159Y1919079D01*
G01X1740159Y1919079D02*
G01X1740159Y2424321D01*
G01X3908791Y2835280D02*
G01X3908791Y2706787D01*
G01X3908791Y2706787D02*
G01X4092209Y2706787D01*
G01X4092209Y2706787D02*
G01X4092209Y2835280D01*
G01X3908791Y2930520D02*
G01X3908791Y3059013D01*
G01X3908791Y3059013D02*
G01X4092209Y3059013D01*
G01X4092209Y3059013D02*
G01X4092209Y2930520D01*
G01X3451220Y2181591D02*
G01X3579713Y2181591D01*
G01X3579713Y2181591D02*
G01X3579713Y2365009D01*
G01X3579713Y2365009D02*
G01X3451220Y2365009D01*
G01X3355980Y2181591D02*
G01X3227487Y2181591D01*
G01X3227487Y2181591D02*
G01X3227487Y2365009D01*
G01X3227487Y2365009D02*
G01X3355980Y2365009D01*
G01X3451220Y1940291D02*
G01X3579713Y1940291D01*
G01X3579713Y1940291D02*
G01X3579713Y2123709D01*
G01X3579713Y2123709D02*
G01X3451220Y2123709D01*
G01X3355980Y1940291D02*
G01X3227487Y1940291D01*
G01X3227487Y1940291D02*
G01X3227487Y2123709D01*
G01X3227487Y2123709D02*
G01X3355980Y2123709D01*
G01X4866909Y682620D02*
G01X4866909Y811113D01*
G01X4866909Y811113D02*
G01X4683491Y811113D01*
G01X4683491Y811113D02*
G01X4683491Y682620D01*
G01X4866909Y587380D02*
G01X4866909Y458887D01*
G01X4866909Y458887D02*
G01X4683491Y458887D01*
G01X4683491Y458887D02*
G01X4683491Y587380D01*
G01X5597520Y2841991D02*
G01X5726013Y2841991D01*
G01X5726013Y2841991D02*
G01X5726013Y3025409D01*
G01X5726013Y3025409D02*
G01X5597520Y3025409D01*
G01X5502280Y2841991D02*
G01X5373787Y2841991D01*
G01X5373787Y2841991D02*
G01X5373787Y3025409D01*
G01X5373787Y3025409D02*
G01X5502280Y3025409D01*
G01X4384680Y802909D02*
G01X4256187Y802909D01*
G01X4256187Y802909D02*
G01X4256187Y619491D01*
G01X4256187Y619491D02*
G01X4384680Y619491D01*
G01X4479920Y802909D02*
G01X4608413Y802909D01*
G01X4608413Y802909D02*
G01X4608413Y619491D01*
G01X4608413Y619491D02*
G01X4479920Y619491D01*
G01X2651491Y2352680D02*
G01X2651491Y2224187D01*
G01X2651491Y2224187D02*
G01X2834909Y2224187D01*
G01X2834909Y2224187D02*
G01X2834909Y2352680D01*
G01X2651491Y2447920D02*
G01X2651491Y2576413D01*
G01X2651491Y2576413D02*
G01X2834909Y2576413D01*
G01X2834909Y2576413D02*
G01X2834909Y2447920D01*
G01X1965320Y2575291D02*
G01X2093813Y2575291D01*
G01X2093813Y2575291D02*
G01X2093813Y2758709D01*
G01X2093813Y2758709D02*
G01X1965320Y2758709D01*
G01X1870080Y2575291D02*
G01X1741587Y2575291D01*
G01X1741587Y2575291D02*
G01X1741587Y2758709D01*
G01X1741587Y2758709D02*
G01X1870080Y2758709D01*
G01X6575420Y632191D02*
G01X6703913Y632191D01*
G01X6703913Y632191D02*
G01X6703913Y815609D01*
G01X6703913Y815609D02*
G01X6575420Y815609D01*
G01X6480180Y632191D02*
G01X6351687Y632191D01*
G01X6351687Y632191D02*
G01X6351687Y815609D01*
G01X6351687Y815609D02*
G01X6480180Y815609D01*
G01X6873880Y815609D02*
G01X6745387Y815609D01*
G01X6745387Y815609D02*
G01X6745387Y632191D01*
G01X6745387Y632191D02*
G01X6873880Y632191D01*
G01X6969120Y815609D02*
G01X7097613Y815609D01*
G01X7097613Y815609D02*
G01X7097613Y632191D01*
G01X7097613Y632191D02*
G01X6969120Y632191D01*
G01X6975480Y536209D02*
G01X6846987Y536209D01*
G01X6846987Y536209D02*
G01X6846987Y352791D01*
G01X6846987Y352791D02*
G01X6975480Y352791D01*
G01X7070720Y536209D02*
G01X7199213Y536209D01*
G01X7199213Y536209D02*
G01X7199213Y352791D01*
G01X7199213Y352791D02*
G01X7070720Y352791D01*
G01X5540380Y282209D02*
G01X5411887Y282209D01*
G01X5411887Y282209D02*
G01X5411887Y98791D01*
G01X5411887Y98791D02*
G01X5540380Y98791D01*
G01X5635620Y282209D02*
G01X5764113Y282209D01*
G01X5764113Y282209D02*
G01X5764113Y98791D01*
G01X5764113Y98791D02*
G01X5635620Y98791D01*
G01X3387720Y2460991D02*
G01X3516213Y2460991D01*
G01X3516213Y2460991D02*
G01X3516213Y2644409D01*
G01X3516213Y2644409D02*
G01X3387720Y2644409D01*
G01X3292480Y2460991D02*
G01X3163987Y2460991D01*
G01X3163987Y2460991D02*
G01X3163987Y2644409D01*
G01X3163987Y2644409D02*
G01X3292480Y2644409D01*
G01X5547091Y841380D02*
G01X5547091Y712887D01*
G01X5547091Y712887D02*
G01X5730509Y712887D01*
G01X5730509Y712887D02*
G01X5730509Y841380D01*
G01X5547091Y936620D02*
G01X5547091Y1065113D01*
G01X5547091Y1065113D02*
G01X5730509Y1065113D01*
G01X5730509Y1065113D02*
G01X5730509Y936620D01*
G01X5997580Y815609D02*
G01X5869087Y815609D01*
G01X5869087Y815609D02*
G01X5869087Y632191D01*
G01X5869087Y632191D02*
G01X5997580Y632191D01*
G01X6092820Y815609D02*
G01X6221313Y815609D01*
G01X6221313Y815609D02*
G01X6221313Y632191D01*
G01X6221313Y632191D02*
G01X6092820Y632191D01*
G01X7439020Y822691D02*
G01X7567513Y822691D01*
G01X7567513Y822691D02*
G01X7567513Y1006109D01*
G01X7567513Y1006109D02*
G01X7439020Y1006109D01*
G01X7343780Y822691D02*
G01X7215287Y822691D01*
G01X7215287Y822691D02*
G01X7215287Y1006109D01*
G01X7215287Y1006109D02*
G01X7343780Y1006109D01*
G01X7889880Y802909D02*
G01X7761387Y802909D01*
G01X7761387Y802909D02*
G01X7761387Y619491D01*
G01X7761387Y619491D02*
G01X7889880Y619491D01*
G01X7985120Y802909D02*
G01X8113613Y802909D01*
G01X8113613Y802909D02*
G01X8113613Y619491D01*
G01X8113613Y619491D02*
G01X7985120Y619491D01*
G54D11*
G01X6191852Y4929199D02*
G01X6191852Y4928203D01*
G01X6191852Y4928203D02*
G01X6158847Y4895198D01*
G01X6123849Y4929199D02*
G01X6124847Y4929199D01*
G01X6124847Y4929199D02*
G01X6158847Y4895198D01*
G01X6123849Y4929199D02*
G01X6191852Y4929199D01*
G01X6083841Y4931203D02*
G01X6083841Y5046204D01*
G01X6233853Y4931203D02*
G01X6233853Y5046204D01*
G01X6083851Y5046204D02*
G01X6231844Y5046204D01*
G01X6234085Y4893202D02*
G01X6234085Y4788191D01*
G01X6194077Y4758196D02*
G01X6204080Y4758196D01*
G01X6204080Y4758196D02*
G01X6234085Y4788191D01*
G01X6124082Y4758196D02*
G01X6194077Y4758196D01*
G01X6124082Y4758196D02*
G01X6114067Y4758196D01*
G01X6114067Y4758196D02*
G01X6084072Y4788191D01*
G01X6084072Y4893202D02*
G01X6084072Y4788191D01*
G01X6158847Y4929199D02*
G01X6158847Y4895198D01*
G54D14*
G01X4398615Y4726201D02*
G01X4415201Y4726201D01*
G01X4415201Y4726201D02*
G01X4415201Y5061199D01*
G01X4415201Y5061199D02*
G01X4396199Y5080201D01*
G01X4118201Y4726201D02*
G01X4135785Y4726201D01*
G01X4118201Y4726201D02*
G01X4118201Y5060201D01*
G01X4118201Y5060201D02*
G01X4137200Y5079200D01*
G36*
G01X4407200Y4977201D02*
G01X4407200Y4913701D01*
G01X4343700Y4977201D01*
G01X4407200Y4977201D01*
G37*
G54D12*
G01X7656891Y4857937D02*
G01X7656891Y4729443D01*
G01X7656891Y4729443D02*
G01X7840309Y4729443D01*
G01X7840309Y4729443D02*
G01X7840309Y4857937D01*
G01X7656891Y4953177D02*
G01X7656891Y5081670D01*
G01X7656891Y5081670D02*
G01X7840309Y5081670D01*
G01X7840309Y5081670D02*
G01X7840309Y4953177D01*
G01X6613891Y4859537D02*
G01X6613891Y4731043D01*
G01X6613891Y4731043D02*
G01X6797309Y4731043D01*
G01X6797309Y4731043D02*
G01X6797309Y4859537D01*
G01X6613891Y4954777D02*
G01X6613891Y5083270D01*
G01X6613891Y5083270D02*
G01X6797309Y5083270D01*
G01X6797309Y5083270D02*
G01X6797309Y4954777D01*
G01X5343520Y4645391D02*
G01X5472013Y4645391D01*
G01X5472013Y4645391D02*
G01X5472013Y4828809D01*
G01X5472013Y4828809D02*
G01X5343520Y4828809D01*
G01X5248280Y4645391D02*
G01X5119787Y4645391D01*
G01X5119787Y4645391D02*
G01X5119787Y4828809D01*
G01X5119787Y4828809D02*
G01X5248280Y4828809D01*
G01X8702820Y2312861D02*
G01X8561819Y2312861D01*
G01X8561819Y2132140D02*
G01X8702820Y2132140D01*
G01X8718060Y2147380D02*
G01X8718060Y2297621D01*
G01X8340580Y2312861D02*
G01X8481581Y2312861D01*
G01X8481581Y2132140D02*
G01X8340580Y2132140D01*
G01X8325340Y2147380D02*
G01X8325340Y2297621D01*
G01X8702820Y2132140D02*
G03X8718060Y2147380I0J15240D01*
G01X8718060Y2297621D02*
G03X8702820Y2312861I-15240J0D01*
G01X8340580Y2132140D02*
G02X8325340Y2147380I0J15240D01*
G01X8325340Y2297621D02*
G02X8340580Y2312861I15240J0D01*
G01X6950220Y2884361D02*
G01X6809219Y2884361D01*
G01X6809219Y2703640D02*
G01X6950220Y2703640D01*
G01X6965460Y2718880D02*
G01X6965460Y2869121D01*
G01X6587980Y2884361D02*
G01X6728981Y2884361D01*
G01X6728981Y2703640D02*
G01X6587980Y2703640D01*
G01X6572740Y2718880D02*
G01X6572740Y2869121D01*
G01X6950220Y2703640D02*
G03X6965460Y2718880I0J15240D01*
G01X6965460Y2869121D02*
G03X6950220Y2884361I-15240J0D01*
G01X6587980Y2703640D02*
G02X6572740Y2718880I0J15240D01*
G01X6572740Y2869121D02*
G02X6587980Y2884361I15240J0D01*
G01X6823220Y2312861D02*
G01X6682219Y2312861D01*
G01X6682219Y2132140D02*
G01X6823220Y2132140D01*
G01X6838460Y2147380D02*
G01X6838460Y2297621D01*
G01X6460980Y2312861D02*
G01X6601981Y2312861D01*
G01X6601981Y2132140D02*
G01X6460980Y2132140D01*
G01X6445740Y2147380D02*
G01X6445740Y2297621D01*
G01X6823220Y2132140D02*
G03X6838460Y2147380I0J15240D01*
G01X6838460Y2297621D02*
G03X6823220Y2312861I-15240J0D01*
G01X6460980Y2132140D02*
G02X6445740Y2147380I0J15240D01*
G01X6445740Y2297621D02*
G02X6460980Y2312861I15240J0D01*
G01X5096020Y2871661D02*
G01X4955019Y2871661D01*
G01X4955019Y2690940D02*
G01X5096020Y2690940D01*
G01X5111260Y2706180D02*
G01X5111260Y2856421D01*
G01X4733780Y2871661D02*
G01X4874781Y2871661D01*
G01X4874781Y2690940D02*
G01X4733780Y2690940D01*
G01X4718540Y2706180D02*
G01X4718540Y2856421D01*
G01X5096020Y2690940D02*
G03X5111260Y2706180I0J15240D01*
G01X5111260Y2856421D02*
G03X5096020Y2871661I-15240J0D01*
G01X4733780Y2690940D02*
G02X4718540Y2706180I0J15240D01*
G01X4718540Y2856421D02*
G02X4733780Y2871661I15240J0D01*
G01X1595280Y1701940D02*
G01X1736281Y1701940D01*
G01X1736281Y1882661D02*
G01X1595280Y1882661D01*
G01X1580040Y1867421D02*
G01X1580040Y1717180D01*
G01X1957520Y1701940D02*
G01X1816519Y1701940D01*
G01X1816519Y1882661D02*
G01X1957520Y1882661D01*
G01X1972760Y1867421D02*
G01X1972760Y1717180D01*
G01X1595280Y1882661D02*
G03X1580040Y1867421I0J-15240D01*
G01X1580040Y1717180D02*
G03X1595280Y1701940I15240J0D01*
G01X1957520Y1882661D02*
G02X1972760Y1867421I0J-15240D01*
G01X1972760Y1717180D02*
G02X1957520Y1701940I-15240J0D01*
G01X4943620Y2312861D02*
G01X4802619Y2312861D01*
G01X4802619Y2132140D02*
G01X4943620Y2132140D01*
G01X4958860Y2147380D02*
G01X4958860Y2297621D01*
G01X4581380Y2312861D02*
G01X4722381Y2312861D01*
G01X4722381Y2132140D02*
G01X4581380Y2132140D01*
G01X4566140Y2147380D02*
G01X4566140Y2297621D01*
G01X4943620Y2132140D02*
G03X4958860Y2147380I0J15240D01*
G01X4958860Y2297621D02*
G03X4943620Y2312861I-15240J0D01*
G01X4581380Y2132140D02*
G02X4566140Y2147380I0J15240D01*
G01X4566140Y2297621D02*
G02X4581380Y2312861I15240J0D01*
G01X8829820Y2871661D02*
G01X8688819Y2871661D01*
G01X8688819Y2690940D02*
G01X8829820Y2690940D01*
G01X8845060Y2706180D02*
G01X8845060Y2856421D01*
G01X8467580Y2871661D02*
G01X8608581Y2871661D01*
G01X8608581Y2690940D02*
G01X8467580Y2690940D01*
G01X8452340Y2706180D02*
G01X8452340Y2856421D01*
G01X8829820Y2690940D02*
G03X8845060Y2706180I0J15240D01*
G01X8845060Y2856421D02*
G03X8829820Y2871661I-15240J0D01*
G01X8467580Y2690940D02*
G02X8452340Y2706180I0J15240D01*
G01X8452340Y2856421D02*
G02X8467580Y2871661I15240J0D01*
G54D13*
G01X9004300Y5567155D02*
G01X9004300Y4247156D01*
G01X9004300Y4247156D02*
G01X9258300Y4247156D01*
G01X9258300Y4247156D02*
G01X9258300Y5567158D01*
G01X9258300Y5567158D02*
G01X9004300Y5567158D01*
G01X9004300Y4531001D02*
G01X9258300Y4531001D01*
G54D12*
G01X5709325Y2677222D02*
G01X5709325Y2805716D01*
G01X5709325Y2805716D02*
G01X5525907Y2805716D01*
G01X5525907Y2805716D02*
G01X5525907Y2677222D01*
G01X5709325Y2581982D02*
G01X5709325Y2453489D01*
G01X5709325Y2453489D02*
G01X5525907Y2453489D01*
G01X5525907Y2453489D02*
G01X5525907Y2581982D01*
G01X7343780Y2631709D02*
G01X7215287Y2631709D01*
G01X7215287Y2631709D02*
G01X7215287Y2448291D01*
G01X7215287Y2448291D02*
G01X7343780Y2448291D01*
G01X7439020Y2631709D02*
G01X7567513Y2631709D01*
G01X7567513Y2631709D02*
G01X7567513Y2448291D01*
G01X7567513Y2448291D02*
G01X7439020Y2448291D01*
G54D15*
G01X2353272Y1510500D02*
G01X2358700Y1510500D01*
G01X2358700Y1510500D02*
G01X2358700Y1505072D01*
G01X2358700Y1415928D02*
G01X2358700Y1410500D01*
G01X2358700Y1410500D02*
G01X2353272Y1410500D01*
G01X2309127Y1410500D02*
G01X2288273Y1410500D01*
G01X2244128Y1410500D02*
G01X2238700Y1410500D01*
G01X2238700Y1410500D02*
G01X2238700Y1415918D01*
G01X2238700Y1505072D02*
G01X2238700Y1510500D01*
G01X2238700Y1510500D02*
G01X2244128Y1510500D01*
G01X2288273Y1510500D02*
G01X2309127Y1510500D01*
G01X3082328Y2185200D02*
G01X3076900Y2185200D01*
G01X3076900Y2185200D02*
G01X3076900Y2190628D01*
G01X3076900Y2279772D02*
G01X3076900Y2285200D01*
G01X3076900Y2285200D02*
G01X3082328Y2285200D01*
G01X3126473Y2285200D02*
G01X3147327Y2285200D01*
G01X3191472Y2285200D02*
G01X3196900Y2285200D01*
G01X3196900Y2285200D02*
G01X3196900Y2279782D01*
G01X3196900Y2190628D02*
G01X3196900Y2185200D01*
G01X3196900Y2185200D02*
G01X3191472Y2185200D01*
G01X3147327Y2185200D02*
G01X3126473Y2185200D01*
G01X5080800Y664172D02*
G01X5080800Y669600D01*
G01X5080800Y669600D02*
G01X5086228Y669600D01*
G01X5175372Y669600D02*
G01X5180800Y669600D01*
G01X5180800Y669600D02*
G01X5180800Y664172D01*
G01X5180800Y620027D02*
G01X5180800Y599173D01*
G01X5180800Y555028D02*
G01X5180800Y549600D01*
G01X5180800Y549600D02*
G01X5175382Y549600D01*
G01X5086228Y549600D02*
G01X5080800Y549600D01*
G01X5080800Y549600D02*
G01X5080800Y555028D01*
G01X5080800Y599173D02*
G01X5080800Y620027D01*
G54D12*
G01X612721Y2626751D02*
G01X612721Y2755244D01*
G01X612721Y2755244D02*
G01X429303Y2755244D01*
G01X429303Y2755244D02*
G01X429303Y2626751D01*
G01X612721Y2531511D02*
G01X612721Y2403018D01*
G01X612721Y2403018D02*
G01X429303Y2403018D01*
G01X429303Y2403018D02*
G01X429303Y2531511D01*
G01X583572Y2944652D02*
G01X583572Y3023661D01*
G01X583572Y3023661D02*
G01X568332Y3038901D01*
G01X568332Y3038901D02*
G01X499092Y3038901D01*
G01X499092Y3038901D02*
G01X483852Y3023661D01*
G01X483852Y3023661D02*
G01X483852Y2944652D01*
G01X583572Y2899410D02*
G01X583572Y2820401D01*
G01X583572Y2820401D02*
G01X568332Y2805161D01*
G01X568332Y2805161D02*
G01X499092Y2805161D01*
G01X499092Y2805161D02*
G01X483852Y2820401D01*
G01X483852Y2820401D02*
G01X483852Y2899410D01*
G01X395472Y2702811D02*
G01X395472Y2843812D01*
G01X214751Y2843812D02*
G01X214751Y2702811D01*
G01X229991Y2687571D02*
G01X380232Y2687571D01*
G01X395472Y3065051D02*
G01X395472Y2924050D01*
G01X214751Y2924050D02*
G01X214751Y3065051D01*
G01X229991Y3080291D02*
G01X380232Y3080291D01*
G01X214751Y2702811D02*
G03X229991Y2687571I15240J0D01*
G01X380232Y2687571D02*
G03X395472Y2702811I0J15240D01*
G01X214751Y3065051D02*
G02X229991Y3080291I15240J0D01*
G01X380232Y3080291D02*
G02X395472Y3065051I0J-15240D01*
G01X481233Y3182112D02*
G01X481233Y3322350D01*
G01X481233Y3322350D02*
G01X409671Y3322350D01*
G01X255991Y3182112D02*
G01X255991Y3322350D01*
G01X255991Y3322350D02*
G01X327553Y3322350D01*
G01X392551Y3182112D02*
G01X344672Y3182112D01*
G01X4150091Y3127380D02*
G01X4150091Y2998887D01*
G01X4150091Y2998887D02*
G01X4333509Y2998887D01*
G01X4333509Y2998887D02*
G01X4333509Y3127380D01*
G01X4150091Y3222620D02*
G01X4150091Y3351113D01*
G01X4150091Y3351113D02*
G01X4333509Y3351113D01*
G01X4333509Y3351113D02*
G01X4333509Y3222620D01*
G54D15*
G01X6447828Y216700D02*
G01X6442400Y216700D01*
G01X6442400Y216700D02*
G01X6442400Y222128D01*
G01X6442400Y311272D02*
G01X6442400Y316700D01*
G01X6442400Y316700D02*
G01X6447828Y316700D01*
G01X6491973Y316700D02*
G01X6512827Y316700D01*
G01X6556972Y316700D02*
G01X6562400Y316700D01*
G01X6562400Y316700D02*
G01X6562400Y311282D01*
G01X6562400Y222128D02*
G01X6562400Y216700D01*
G01X6562400Y216700D02*
G01X6556972Y216700D01*
G01X6512827Y216700D02*
G01X6491973Y216700D01*
G01X4964900Y123228D02*
G01X4964900Y117800D01*
G01X4964900Y117800D02*
G01X4959472Y117800D01*
G01X4870328Y117800D02*
G01X4864900Y117800D01*
G01X4864900Y117800D02*
G01X4864900Y123228D01*
G01X4864900Y167373D02*
G01X4864900Y188227D01*
G01X4864900Y232372D02*
G01X4864900Y237800D01*
G01X4864900Y237800D02*
G01X4870318Y237800D01*
G01X4959472Y237800D02*
G01X4964900Y237800D01*
G01X4964900Y237800D02*
G01X4964900Y232372D01*
G01X4964900Y188227D02*
G01X4964900Y167373D01*
G54D12*
G01X6677020Y340091D02*
G01X6805513Y340091D01*
G01X6805513Y340091D02*
G01X6805513Y523509D01*
G01X6805513Y523509D02*
G01X6677020Y523509D01*
G01X6581780Y340091D02*
G01X6453287Y340091D01*
G01X6453287Y340091D02*
G01X6453287Y523509D01*
G01X6453287Y523509D02*
G01X6581780Y523509D01*
G01X5212631Y93301D02*
G01X5341124Y93301D01*
G01X5341124Y93301D02*
G01X5341124Y276720D01*
G01X5341124Y276720D02*
G01X5212631Y276720D01*
G01X5117391Y93301D02*
G01X4988897Y93301D01*
G01X4988897Y93301D02*
G01X4988897Y276720D01*
G01X4988897Y276720D02*
G01X5117391Y276720D01*
G54D13*
G01X1584150Y3684150D02*
G01X1215850Y3315850D01*
G01X1203150Y3684150D02*
G01X1571450Y3315850D01*
G01X8984150Y3684150D02*
G01X8615850Y3315850D01*
G01X8603150Y3684150D02*
G01X8971450Y3315850D01*
G01X1584150Y1484150D02*
G01X1215850Y1115850D01*
G01X1203150Y1484150D02*
G01X1571450Y1115850D01*
G01X8984150Y684150D02*
G01X8615850Y315850D01*
G01X8603150Y684150D02*
G01X8971450Y315850D01*
G01X5784850Y5518150D02*
G01X5416550Y5149850D01*
G01X5403850Y5518150D02*
G01X5772150Y5149850D01*
G54D12*
G01X471119Y4776493D02*
G01X471119Y4951733D01*
G01X471119Y4951733D02*
G01X366959Y4951733D01*
G01X163881Y4776493D02*
G01X163881Y4951733D01*
G01X163881Y4951733D02*
G01X268041Y4951733D01*
G01X363040Y4776493D02*
G01X271960Y4776493D01*
G01X365120Y4467591D02*
G01X493613Y4467591D01*
G01X493613Y4467591D02*
G01X493613Y4651009D01*
G01X493613Y4651009D02*
G01X365120Y4651009D01*
G01X269880Y4467591D02*
G01X141387Y4467591D01*
G01X141387Y4467591D02*
G01X141387Y4651009D01*
G01X141387Y4651009D02*
G01X269880Y4651009D01*
G54D13*
G01X38504Y4414596D02*
G01X2120499Y4414596D01*
G01X2120496Y4414596D02*
G01X2120499Y4170604D01*
G01X2120499Y4170604D02*
G01X38504Y4170604D01*
G01X38504Y4170604D02*
G01X38501Y4414596D01*
G01X38504Y5532196D02*
G01X2120499Y5532196D01*
G01X2120496Y5532196D02*
G01X2120499Y5288204D01*
G01X2120499Y5288204D02*
G01X38504Y5288204D01*
G01X38504Y5288204D02*
G01X38501Y5532196D01*
G54D12*
G01X979119Y4776493D02*
G01X979119Y4951733D01*
G01X979119Y4951733D02*
G01X874959Y4951733D01*
G01X671881Y4776493D02*
G01X671881Y4951733D01*
G01X671881Y4951733D02*
G01X776041Y4951733D01*
G01X871040Y4776493D02*
G01X779960Y4776493D01*
G01X873120Y4467591D02*
G01X1001613Y4467591D01*
G01X1001613Y4467591D02*
G01X1001613Y4651009D01*
G01X1001613Y4651009D02*
G01X873120Y4651009D01*
G01X777880Y4467591D02*
G01X649387Y4467591D01*
G01X649387Y4467591D02*
G01X649387Y4651009D01*
G01X649387Y4651009D02*
G01X777880Y4651009D01*
G01X1487119Y4776493D02*
G01X1487119Y4951733D01*
G01X1487119Y4951733D02*
G01X1382959Y4951733D01*
G01X1179881Y4776493D02*
G01X1179881Y4951733D01*
G01X1179881Y4951733D02*
G01X1284041Y4951733D01*
G01X1379040Y4776493D02*
G01X1287960Y4776493D01*
G01X1381120Y4467591D02*
G01X1509613Y4467591D01*
G01X1509613Y4467591D02*
G01X1509613Y4651009D01*
G01X1509613Y4651009D02*
G01X1381120Y4651009D01*
G01X1285880Y4467591D02*
G01X1157387Y4467591D01*
G01X1157387Y4467591D02*
G01X1157387Y4651009D01*
G01X1157387Y4651009D02*
G01X1285880Y4651009D01*
G01X1995119Y4776493D02*
G01X1995119Y4951733D01*
G01X1995119Y4951733D02*
G01X1890959Y4951733D01*
G01X1687881Y4776493D02*
G01X1687881Y4951733D01*
G01X1687881Y4951733D02*
G01X1792041Y4951733D01*
G01X1887040Y4776493D02*
G01X1795960Y4776493D01*
G01X1889120Y4467591D02*
G01X2017613Y4467591D01*
G01X2017613Y4467591D02*
G01X2017613Y4651009D01*
G01X2017613Y4651009D02*
G01X1889120Y4651009D01*
G01X1793880Y4467591D02*
G01X1665387Y4467591D01*
G01X1665387Y4467591D02*
G01X1665387Y4651009D01*
G01X1665387Y4651009D02*
G01X1793880Y4651009D01*
G01X269880Y5260609D02*
G01X141387Y5260609D01*
G01X141387Y5260609D02*
G01X141387Y5077191D01*
G01X141387Y5077191D02*
G01X269880Y5077191D01*
G01X365120Y5260609D02*
G01X493613Y5260609D01*
G01X493613Y5260609D02*
G01X493613Y5077191D01*
G01X493613Y5077191D02*
G01X365120Y5077191D01*
G01X777880Y5260609D02*
G01X649387Y5260609D01*
G01X649387Y5260609D02*
G01X649387Y5077191D01*
G01X649387Y5077191D02*
G01X777880Y5077191D01*
G01X873120Y5260609D02*
G01X1001613Y5260609D01*
G01X1001613Y5260609D02*
G01X1001613Y5077191D01*
G01X1001613Y5077191D02*
G01X873120Y5077191D01*
G01X1273180Y5260609D02*
G01X1144687Y5260609D01*
G01X1144687Y5260609D02*
G01X1144687Y5077191D01*
G01X1144687Y5077191D02*
G01X1273180Y5077191D01*
G01X1368420Y5260609D02*
G01X1496913Y5260609D01*
G01X1496913Y5260609D02*
G01X1496913Y5077191D01*
G01X1496913Y5077191D02*
G01X1368420Y5077191D01*
G01X1806580Y5260609D02*
G01X1678087Y5260609D01*
G01X1678087Y5260609D02*
G01X1678087Y5077191D01*
G01X1678087Y5077191D02*
G01X1806580Y5077191D01*
G01X1901820Y5260609D02*
G01X2030313Y5260609D01*
G01X2030313Y5260609D02*
G01X2030313Y5077191D01*
G01X2030313Y5077191D02*
G01X1901820Y5077191D01*
G01X2820670Y5551170D02*
G01X3072130Y5551170D01*
G01X3072130Y5551170D02*
G01X3072130Y5582627D01*
G01X3072130Y5802630D02*
G01X2820670Y5802630D01*
G01X2820670Y5802630D02*
G01X2820670Y5771173D01*
G01X2820670Y5582627D02*
G01X2820670Y5551170D01*
G01X3072130Y5771173D02*
G01X3072130Y5802630D01*
G54D16*
G01X3328400Y5659900D02*
G01X3328400Y5693900D01*
G01X3453400Y5659900D02*
G01X3453400Y5693900D01*
G54D12*
G01X2640250Y5107470D02*
G01X2388790Y5107470D01*
G01X2388790Y5107470D02*
G01X2388790Y5076014D01*
G01X2388790Y4856011D02*
G01X2640250Y4856011D01*
G01X2640250Y4856011D02*
G01X2640250Y4887467D01*
G01X2640250Y5076014D02*
G01X2640250Y5107470D01*
G01X2388790Y4887467D02*
G01X2388790Y4856011D01*
G54D16*
G01X2908290Y5073161D02*
G01X2942290Y5073161D01*
G01X2908290Y4948161D02*
G01X2942290Y4948161D01*
G54D12*
G01X3471644Y4704591D02*
G01X3471644Y4529331D01*
G01X3166336Y4704591D02*
G01X3166336Y4529331D01*
G01X3372520Y4529331D02*
G01X3265459Y4529331D01*
G01X3104550Y4524742D02*
G01X3104550Y4665742D01*
G01X2923829Y4665742D02*
G01X2923829Y4524742D01*
G01X2939069Y4509502D02*
G01X3089310Y4509502D01*
G01X3104550Y4886981D02*
G01X3104550Y4745981D01*
G01X2923829Y4745981D02*
G01X2923829Y4886981D01*
G01X2939069Y4902221D02*
G01X3089310Y4902221D01*
G01X2923829Y4524742D02*
G03X2939069Y4509502I15240J0D01*
G01X3089310Y4509502D02*
G03X3104550Y4524742I0J15240D01*
G01X2923829Y4886981D02*
G02X2939069Y4902221I15240J0D01*
G01X3089310Y4902221D02*
G02X3104550Y4886981I0J-15240D01*
G01X3372970Y5051571D02*
G01X3244476Y5051571D01*
G01X3244476Y5051571D02*
G01X3244476Y4868152D01*
G01X3244476Y4868152D02*
G01X3372970Y4868152D01*
G01X3468210Y5051571D02*
G01X3596703Y5051571D01*
G01X3596703Y5051571D02*
G01X3596703Y4868152D01*
G01X3596703Y4868152D02*
G01X3468210Y4868152D01*
G01X3264870Y5085401D02*
G01X3405871Y5085401D01*
G01X3405871Y5266122D02*
G01X3264870Y5266122D01*
G01X3249630Y5250882D02*
G01X3249630Y5100641D01*
G01X3627110Y5085401D02*
G01X3486109Y5085401D01*
G01X3486109Y5266122D02*
G01X3627110Y5266122D01*
G01X3642350Y5250882D02*
G01X3642350Y5100641D01*
G01X3264870Y5266122D02*
G03X3249630Y5250882I0J-15240D01*
G01X3249630Y5100641D02*
G03X3264870Y5085401I15240J0D01*
G01X3627110Y5266122D02*
G02X3642350Y5250882I0J-15240D01*
G01X3642350Y5100641D02*
G02X3627110Y5085401I-15240J0D01*
G01X3702799Y4677281D02*
G01X3702799Y4805775D01*
G01X3702799Y4805775D02*
G01X3519381Y4805775D01*
G01X3519381Y4805775D02*
G01X3519381Y4677281D01*
G01X3702799Y4582041D02*
G01X3702799Y4453548D01*
G01X3702799Y4453548D02*
G01X3519381Y4453548D01*
G01X3519381Y4453548D02*
G01X3519381Y4582041D01*
G54D13*
G01X2468090Y4134361D02*
G01X2468090Y4388361D01*
G01X2468090Y4388361D02*
G01X3738090Y4388361D01*
G01X3738090Y4388361D02*
G01X3738090Y4134361D01*
G01X3738090Y4134361D02*
G01X2468090Y4134361D01*
G01X3481738Y4134361D02*
G01X3481738Y4388361D01*
G54D12*
G01X2889999Y4740781D02*
G01X2889999Y4869275D01*
G01X2889999Y4869275D02*
G01X2706581Y4869275D01*
G01X2706581Y4869275D02*
G01X2706581Y4740781D01*
G01X2889999Y4645541D02*
G01X2889999Y4517048D01*
G01X2889999Y4517048D02*
G01X2706581Y4517048D01*
G01X2706581Y4517048D02*
G01X2706581Y4645541D01*

G04 Circle Start*
G54D13*
G01X4257451Y1882597D02*
G03X4282851Y1882597I12700J0D01*
G03X4257451Y1882597I-12700J0D01*
G01X6137051Y1882597D02*
G03X6162451Y1882597I12700J0D01*
G03X6137051Y1882597I-12700J0D01*
G01X8016651Y1882597D02*
G03X8042051Y1882597I12700J0D01*
G03X8016651Y1882597I-12700J0D01*
G54D17*
G01X1800377Y2362200D02*
G03X1830400Y2362200I15011J0D01*
G03X1800377Y2362200I-15011J0D01*
G01X1600048Y2436851D02*
G03X1630070Y2436851I15011J0D01*
G03X1600048Y2436851I-15011J0D01*
G54D15*
G01X2366175Y1510513D02*
G03X2371204Y1510513I2515J0D01*
G03X2366175Y1510513I-2515J0D01*
G01X3064396Y2185187D02*
G03X3069425Y2185187I2515J0D01*
G03X3064396Y2185187I-2515J0D01*
G01X5078273Y679590D02*
G03X5083302Y679590I2515J0D01*
G03X5078273Y679590I-2515J0D01*
G01X6429896Y216687D02*
G03X6434925Y216687I2515J0D01*
G03X6429896Y216687I-2515J0D01*
G01X4962398Y107810D02*
G03X4967427Y107810I2515J0D01*
G03X4962398Y107810I-2515J0D01*
G54D13*
G01X1126950Y3506350D02*
G03X1660350Y3506350I266700J0D01*
G03X1126950Y3506350I-266700J0D01*
G01X8526950Y3506350D02*
G03X9060350Y3506350I266700J0D01*
G03X8526950Y3506350I-266700J0D01*
G01X1126950Y1306350D02*
G03X1660350Y1306350I266700J0D01*
G03X1126950Y1306350I-266700J0D01*
G01X8526950Y506350D02*
G03X9060350Y506350I266700J0D01*
G03X8526950Y506350I-266700J0D01*
G01X5327650Y5340350D02*
G03X5861050Y5340350I266700J0D01*
G03X5327650Y5340350I-266700J0D01*
G54D18*
G01X3380900Y5486300D02*
G03X3400900Y5486300I10000J0D01*
G03X3380900Y5486300I-10000J0D01*
G01X2724690Y5010661D02*
G03X2744690Y5010661I10000J0D01*
G03X2724690Y5010661I-10000J0D01*
G54D20*
G01X3494264Y4727211D03*
G04 Circle End*

M02*

