G04 Layer: BottomLayer*
G04 EasyEDA Pro v2.2.28.1, 2024-09-17 23:40:12*
G04 Gerber Generator version 0.3*
G04 Scale: 100 percent, Rotated: No, Reflected: No*
G04 Dimensions in millimeters*
G04 Leading zeros omitted, absolute positions, 3 integers and 5 decimals*
%FSLAX35Y35*%
%MOMM*%
%ADD10C,0.2032*%
%ADD11C,0.254*%
%ADD12C,0.15*%
%ADD13R,1.7X1.7*%
%ADD14C,1.7*%
%ADD15R,1.7X1.7*%
%ADD16O,2.0X2.75*%
%ADD17R,1.7005X1.7*%
%ADD18R,1.7X1.7*%
%ADD19R,1.7X1.7*%
%ADD20R,1.6X1.7*%
%ADD21C,1.6*%
%ADD22O,4.5X2.5*%
%ADD23C,1.5748*%
%ADD24R,1.5748X1.5748*%
%ADD25R,1.5748X1.5748*%
%ADD26R,1.5748X1.5748*%
%ADD27R,1.5748X1.5748*%
%ADD28R,1.8X1.8*%
%ADD29C,1.8*%
%ADD30O,2.5X4.5*%
%ADD31R,5.0X10.0*%
%ADD32C,3.2004*%
%ADD33R,1.8X1.8*%
%ADD34C,1.524*%
%ADD35C,0.61*%
G75*


G04 Copper Start*
G36*
G01X9247886Y3897336D02*
G01X9247886Y35814D01*
G01X1658914Y35814D01*
G01X1658914Y35875D01*
G01X1658914Y35875D01*
G01X1658914Y1035875D01*
G01X1658914Y1035875D01*
G03X1623100Y1071689I-35814J0D01*
G01X1623100Y1071689D01*
G01X1123100Y1071689D01*
G01X1123100Y1071689D01*
G03X1087286Y1035875I0J-35814D01*
G01X1087286Y1035875D01*
G01X1087286Y35875D01*
G01X1087286Y35875D01*
G01X1087286Y35814D01*
G01X680794Y35814D01*
G03X681014Y39775I-35594J3961D01*
G01X681014Y39775D01*
G01X681014Y1039775D01*
G01X681014Y1039775D01*
G03X645200Y1075589I-35814J0D01*
G01X645200Y1075589D01*
G01X145200Y1075589D01*
G01X145200Y1075589D01*
G03X109386Y1039775I0J-35814D01*
G01X109386Y1039775D01*
G01X109386Y39775D01*
G01X109386Y39775D01*
G03X109605Y35814I35814J0D01*
G01X35814Y35814D01*
G01X35814Y3875786D01*
G01X571500Y3875786D01*
G01X571500Y3875786D01*
G03X605843Y3901440I0J35814D01*
G01X1580917Y3901440D01*
G03X1615260Y3875786I34343J10160D01*
G01X1615260Y3875786D01*
G01X2555421Y3875786D01*
G01X2555421Y3875786D01*
G03X2589764Y3901440I0J35814D01*
G01X2882236Y3901440D01*
G03X2893694Y3900672I11458J85046D01*
G03X2905152Y3901440I0J85814D01*
G01X3074540Y3901440D01*
G03X3085998Y3900672I11458J85046D01*
G03X3097456Y3901440I0J85814D01*
G01X3257788Y3901440D01*
G03X3269246Y3900672I11458J85046D01*
G03X3280704Y3901440I0J85814D01*
G01X3450092Y3901440D01*
G03X3461550Y3900672I11458J85046D01*
G03X3473008Y3901440I0J85814D01*
G01X3585157Y3901440D01*
G03X3619500Y3875786I34343J10160D01*
G01X3619500Y3875786D01*
G01X6806359Y3875786D01*
G01X6806359Y3875786D01*
G03X6840701Y3901440I0J35814D01*
G01X8228055Y3901440D01*
G03X8244702Y3897336I16647J31710D01*
G01X8244702Y3897336D01*
G01X9247886Y3897336D01*
G37*
%LPC*%
G36*
G01X1900186Y356200D02*
G03X2036000Y220386I135814J0D01*
G03X2171814Y356200I0J135814D01*
G01X2171814Y356200D01*
G01X2171814Y431200D01*
G01X2171814Y431200D01*
G03X2127277Y531768I-135814J0D01*
G02X2156059Y566425I201507J-138068D01*
G01X2156059Y566425D01*
G01X2613558Y1023924D01*
G03X2631186Y983490I66142J4776D01*
G01X2631186Y850900D01*
G01X2631186Y850900D01*
G03X2645395Y816595I48514J0D01*
G01X2645395Y816595D01*
G01X2886695Y575295D01*
G01X2886695Y575295D01*
G03X2921000Y561086I34305J34305D01*
G01X2921000Y561086D01*
G01X3111500Y561086D01*
G01X3111500Y561086D01*
G03X3145805Y575295I0J48514D01*
G01X3145805Y575295D01*
G01X3487195Y916686D01*
G01X3911346Y916686D01*
G01X3911346Y886460D01*
G01X3911346Y886460D01*
G03X3947160Y850646I35814J0D01*
G01X3947160Y850646D01*
G01X4104640Y850646D01*
G01X4104640Y850646D01*
G03X4140454Y886460I0J35814D01*
G01X4140454Y886460D01*
G01X4140454Y1043940D01*
G01X4140454Y1043940D01*
G03X4104640Y1079754I-35814J0D01*
G01X4104640Y1079754D01*
G01X3954830Y1079754D01*
G01X4054391Y1179315D01*
G01X4054391Y1179315D01*
G02X5218945Y1701160I1266909J-1266909D01*
G03X5321300Y1638046I102355J51440D01*
G03X5435854Y1752600I0J114554D01*
G03X5321300Y1867154I-114554J0D01*
G03X5285347Y1861366I0J-114554D01*
G02X5241454Y1924459I415303J335734D01*
G03X5321300Y1892046I79846J82141D01*
G03X5435854Y2006600I0J114554D01*
G03X5428984Y2045675I-114554J0D01*
G01X5431805Y2048495D01*
G01X5431805Y2048495D01*
G02X5520142Y2085086I88338J-88338D01*
G01X5520142Y2085086D01*
G01X5542658Y2085086D01*
G03X5511546Y2006600I83442J-78486D01*
G03X5626100Y1892046I114554J0D01*
G03X5740654Y2006600I0J114554D01*
G03X5709542Y2085086I-114554J0D01*
G01X6894295Y2085086D01*
G01X6894295Y2085086D01*
G02X7088266Y2032666I0J-385091D01*
G03X6993153Y1969063I112634J-271350D01*
G01X6993153Y1969063D01*
G01X6824598Y1800507D01*
G01X6824598Y1800507D01*
G03X6720586Y1549400I251107J-251107D01*
G02X6636013Y1345222I-288752J0D01*
G01X6636013Y1345222D01*
G01X6525464Y1234673D01*
G03X6461486Y1168400I2336J-66273D01*
G03X6470976Y1134216I66314J0D01*
G03X6330234Y1153414I-140741J-506281D01*
G01X6330234Y1153414D01*
G01X5880100Y1153414D01*
G01X5880100Y1153414D01*
G03X5319111Y921045I0J-793358D01*
G01X5319111Y921045D01*
G01X4958186Y560119D01*
G03X4894208Y493846I2336J-66273D01*
G03X4960522Y427532I66314J0D01*
G03X5026795Y491510I0J66314D01*
G01X5387720Y852436D01*
G01X5387721Y852436D01*
G02X5791597Y1050739I492379J-492379D01*
G03X5790946Y1043940I35163J-6799D01*
G01X5790946Y1043940D01*
G01X5790946Y886460D01*
G01X5790946Y886460D01*
G03X5826760Y850646I35814J0D01*
G01X5826760Y850646D01*
G01X5984240Y850646D01*
G01X5984240Y850646D01*
G03X6020054Y886460I0J35814D01*
G01X6020054Y886460D01*
G01X6020054Y1043940D01*
G01X6020054Y1043940D01*
G03X6017822Y1056386I-35814J0D01*
G01X6090162Y1056386D01*
G03X6044946Y965200I69338J-91186D01*
G03X6159500Y850646I114554J0D01*
G03X6274054Y965200I0J114554D01*
G03X6228838Y1056386I-114554J0D01*
G01X6330234Y1056386D01*
G01X6330234Y1056386D01*
G02X6343877Y1056169I0J-428451D01*
G03X6298946Y965200I69623J-90969D01*
G03X6413500Y850646I114554J0D01*
G03X6528054Y965200I0J114554D01*
G03X6517460Y1013314I-114554J0D01*
G02X6556125Y992001I-187226J-385379D01*
G01X6556125Y992001D01*
G03X6552946Y965200I111375J-26801D01*
G03X6650021Y851987I114554J0D01*
G01X6650021Y851987D01*
G02X6527800Y835914I-122221J456641D01*
G01X6527800Y835914D01*
G01X5635345Y835914D01*
G01X5635345Y835914D01*
G03X5360794Y739399I0J-438759D01*
G01X5360794Y739399D01*
G01X5359400Y739414D01*
G03X5293086Y673100I0J-66314D01*
G03X5359400Y606786I66314J0D01*
G03X5425414Y666802I0J66314D01*
G01X5425414Y666802D01*
G02X5635345Y738886I209930J-269646D01*
G01X5635345Y738886D01*
G01X6527800Y738886D01*
G01X6527800Y738886D01*
G03X6878004Y859225I0J569743D01*
G01X6878004Y859225D01*
G03X6921500Y850646I43496J105975D01*
G03X7025274Y916686I0J114554D01*
G01X7369455Y916686D01*
G01X7369455Y916686D01*
G02X7611095Y816595I0J-341731D01*
G03X7829363Y726186I218268J218268D01*
G01X7829363Y726186D01*
G01X8341192Y726186D01*
G01X8341192Y726186D01*
G03X8753710Y860908I0J698922D01*
G01X8753710Y860908D01*
G03X8801100Y850646I47390J104292D01*
G03X8915654Y965200I0J114554D01*
G03X8801100Y1079754I-114554J0D01*
G03X8686546Y965200I0J-114554D01*
G03X8690595Y935012I114554J0D01*
G01X8690595Y935012D01*
G02X8644808Y905403I-349403J490095D01*
G01X8644808Y905403D01*
G03X8661654Y965200I-97708J59797D01*
G03X8547100Y1079754I-114554J0D01*
G03X8499136Y1069229I0J-114554D01*
G03X8117853Y1191514I-381283J-533276D01*
G01X8117853Y1191514D01*
G01X7782921Y1191514D01*
G01X7782921Y1191514D01*
G03X7687295Y1151905I0J-135235D01*
G01X7687295Y1151905D01*
G02X7629618Y1128014I-57677J57677D01*
G01X7629618Y1128014D01*
G01X6908800Y1128014D01*
G01X6908800Y1128014D01*
G03X6714068Y1069861I0J-355119D01*
G01X6714068Y1069861D01*
G03X6667500Y1079754I-46568J-104661D01*
G03X6617216Y1068128I0J-114554D01*
G03X6549182Y1105628I-286982J-440193D01*
G03X6594073Y1166064I-21382J62772D01*
G01X6594073Y1166064D01*
G01X6704622Y1276613D01*
G01X6704622Y1276613D01*
G03X6817614Y1549400I-272787J272787D01*
G01X6817614Y1549400D01*
G02X6893207Y1731898I258091J0D01*
G01X6893207Y1731898D01*
G01X7061763Y1900453D01*
G01X7061763Y1900453D01*
G02X7110583Y1936134I139137J-139137D01*
G03X7200900Y1892046I90317J70466D01*
G03X7315454Y2006600I0J114554D01*
G03X7284342Y2085086I-114554J0D01*
G01X7422258Y2085086D01*
G03X7391146Y2006600I83442J-78486D01*
G03X7505700Y1892046I114554J0D01*
G03X7620254Y2006600I0J114554D01*
G03X7589142Y2085086I-114554J0D01*
G01X8773895Y2085086D01*
G01X8773895Y2085086D01*
G02X8968822Y2032107I0J-385091D01*
G01X8968822Y2032107D01*
G03X8965946Y2006600I111678J-25507D01*
G03X9080500Y1892046I114554J0D01*
G03X9195054Y2006600I0J114554D01*
G03X9080500Y2121154I-114554J0D01*
G03X9029148Y2108999I0J-114554D01*
G03X8773895Y2182114I-255253J-409004D01*
G01X8773895Y2182114D01*
G01X7620254Y2182114D01*
G01X7620254Y2339340D01*
G01X7620254Y2339340D01*
G03X7584440Y2375154I-35814J0D01*
G01X7584440Y2375154D01*
G01X7426960Y2375154D01*
G01X7426960Y2375154D01*
G03X7391146Y2339340I0J-35814D01*
G01X7391146Y2339340D01*
G01X7391146Y2182114D01*
G01X7315454Y2182114D01*
G01X7315454Y2339340D01*
G01X7315454Y2339340D01*
G03X7279640Y2375154I-35814J0D01*
G01X7279640Y2375154D01*
G01X7122160Y2375154D01*
G01X7122160Y2375154D01*
G03X7086346Y2339340I0J-35814D01*
G01X7086346Y2339340D01*
G01X7086346Y2182114D01*
G01X6894295Y2182114D01*
G01X6894295Y2182114D01*
G01X5740654Y2182114D01*
G01X5740654Y2339340D01*
G01X5740654Y2339340D01*
G03X5704840Y2375154I-35814J0D01*
G01X5704840Y2375154D01*
G01X5547360Y2375154D01*
G01X5547360Y2375154D01*
G03X5511546Y2339340I0J-35814D01*
G01X5511546Y2339340D01*
G01X5511546Y2181947D01*
G03X5430654Y2163275I8596J-221790D01*
G03X5435854Y2181860I-30614J18585D01*
G01X5435854Y2181860D01*
G01X5435854Y2306545D01*
G01X5642180Y2512871D01*
G01X5642180Y2512871D01*
G02X5790946Y2617765I377620J-377620D01*
G01X5790946Y2461260D01*
G01X5790946Y2461260D01*
G03X5826760Y2425446I35814J0D01*
G01X5826760Y2425446D01*
G01X5984240Y2425446D01*
G01X5984240Y2425446D01*
G03X6020054Y2461260I0J35814D01*
G01X6020054Y2461260D01*
G01X6020054Y2618740D01*
G01X6020054Y2618740D01*
G03X5984240Y2654554I-35814J0D01*
G01X5984240Y2654554D01*
G01X5895229Y2654554D01*
G02X6019800Y2669286I124570J-519304D01*
G01X6019800Y2669286D01*
G01X6124327Y2669286D01*
G01X6124327Y2669286D01*
G03X6467760Y2720556I0J1175887D01*
G01X6467760Y2720556D01*
G03X6461486Y2692400I60040J-28156D01*
G03X6527800Y2626086I66314J0D01*
G03X6573010Y2643886I0J66314D01*
G01X6619227Y2643886D01*
G03X6552946Y2540000I48273J-103886D01*
G03X6667500Y2425446I114554J0D01*
G03X6782054Y2540000I0J114554D01*
G03X6715773Y2643886I-114554J0D01*
G01X6873227Y2643886D01*
G03X6806946Y2540000I48273J-103886D01*
G03X6921500Y2425446I114554J0D01*
G03X7036054Y2540000I0J114554D01*
G03X6969773Y2643886I-114554J0D01*
G01X7219190Y2643886D01*
G03X7264400Y2626086I45210J48514D01*
G03X7330714Y2692400I0J66314D01*
G03X7264400Y2758714I-66314J0D01*
G03X7219190Y2740914I0J-66314D01*
G01X6573010Y2740914D01*
G03X6557177Y2751852I-45210J-48514D01*
G01X6557177Y2751852D01*
G03X6877562Y2942207I-432850J1093321D01*
G01X6877562Y2942207D01*
G03X6921500Y2933446I43938J105793D01*
G03X7036054Y3048000I0J114554D01*
G03X6990838Y3139186I-114554J0D01*
G01X7106162Y3139186D01*
G03X7060946Y3048000I69338J-91186D01*
G03X7175500Y2933446I114554J0D01*
G03X7238942Y2952618I0J114554D01*
G01X7238942Y2952618D01*
G03X7236186Y2933700I63558J-18918D01*
G03X7302500Y2867386I66314J0D01*
G03X7368814Y2933700I0J66314D01*
G03X7366058Y2952618I-66314J0D01*
G01X7366058Y2952618D01*
G03X7429500Y2933446I63442J95382D01*
G03X7474059Y2942467I0J114554D01*
G03X8134692Y2707386I660633J810724D01*
G01X8134692Y2707386D01*
G01X8820337Y2707386D01*
G01X8820337Y2707386D01*
G02X8969995Y2645395I0J-211649D01*
G01X8969995Y2645395D01*
G02X9031986Y2495737I-149658J-149658D01*
G01X9031986Y2495737D01*
G01X9031986Y2375154D01*
G01X9001760Y2375154D01*
G01X9001760Y2375154D01*
G03X8965946Y2339340I0J-35814D01*
G01X8965946Y2339340D01*
G01X8965946Y2181860D01*
G01X8965946Y2181860D01*
G03X9001760Y2146046I35814J0D01*
G01X9001760Y2146046D01*
G01X9159240Y2146046D01*
G01X9159240Y2146046D01*
G03X9195054Y2181860I0J35814D01*
G01X9195054Y2181860D01*
G01X9195054Y2339340D01*
G01X9195054Y2339340D01*
G03X9159240Y2375154I-35814J0D01*
G01X9159240Y2375154D01*
G01X9129014Y2375154D01*
G01X9129014Y2495737D01*
G01X9129014Y2495737D01*
G03X9038605Y2714005I-308677J0D01*
G01X9038605Y2714005D01*
G03X8820337Y2804414I-218268J-218268D01*
G01X8820337Y2804414D01*
G01X8134692Y2804414D01*
G01X8134692Y2804414D01*
G02X7646752Y2939500I0J948778D01*
G01X7646752Y2939500D01*
G03X7683500Y2933446I36748J108500D01*
G03X7798054Y3048000I0J114554D01*
G03X7683500Y3162554I-114554J0D01*
G03X7568946Y3048000I0J-114554D01*
G03X7600388Y2969164I114554J0D01*
G01X7600388Y2969164D01*
G02X7539093Y3014652I534304J784028D01*
G01X7539093Y3014652D01*
G03X7544054Y3048000I-109593J33348D01*
G03X7429500Y3162554I-114554J0D01*
G03X7336650Y3115093I0J-114554D01*
G03X7298705Y3171205I-164231J-70174D01*
G01X7298705Y3171205D01*
G03X7141758Y3236214I-156947J-156947D01*
G01X7141758Y3236214D01*
G01X4486182Y3236214D01*
G01X4486182Y3236214D01*
G03X4402495Y3215393I0J-178596D01*
G03X4394200Y3215914I-8295J-65793D01*
G03X4327886Y3149600I0J-66314D01*
G03X4394200Y3083286I66314J0D01*
G03X4458757Y3134438I0J66314D01*
G02X4486182Y3139186I27424J-76819D01*
G01X4486182Y3139186D01*
G01X6555178Y3139186D01*
G03X6552946Y3126740I33582J-12446D01*
G01X6552946Y3126740D01*
G01X6552946Y2969260D01*
G01X6552946Y2969260D01*
G03X6588760Y2933446I35814J0D01*
G01X6588760Y2933446D01*
G01X6701120Y2933446D01*
G02X6124327Y2766314I-576794J911727D01*
G01X6124327Y2766314D01*
G01X6019800Y2766314D01*
G01X6019800Y2766314D01*
G03X5573571Y2581480I0J-631064D01*
G01X5573571Y2581480D01*
G01X5367245Y2375154D01*
G01X5263163Y2375154D01*
G01X5358422Y2470412D01*
G01X5358422Y2470413D01*
G03X5468384Y2694943I-272787J272788D01*
G01X5468384Y2694943D01*
G03X5489214Y2743200I-45484J48257D01*
G03X5422900Y2809514I-66314J0D01*
G03X5356586Y2743200I0J-66314D01*
G03X5371356Y2701478I66314J0D01*
G02X5289813Y2539022I-285722J41722D01*
G01X5289813Y2539022D01*
G01X5260189Y2509398D01*
G03X5194300Y2568214I-65889J-7498D01*
G03X5155387Y2555597I0J-66314D01*
G03X5041900Y2654554I-113487J-15597D01*
G03X4927346Y2540000I0J-114554D01*
G03X4958458Y2461514I114554J0D01*
G01X4871342Y2461514D01*
G03X4902454Y2540000I-83442J78486D01*
G03X4787900Y2654554I-114554J0D01*
G03X4673346Y2540000I0J-114554D01*
G03X4704458Y2461514I114554J0D01*
G01X4617342Y2461514D01*
G03X4648454Y2540000I-83442J78486D01*
G03X4533900Y2654554I-114554J0D01*
G03X4419346Y2540000I0J-114554D01*
G03X4450458Y2461514I114554J0D01*
G01X4363342Y2461514D01*
G03X4394454Y2540000I-83442J78486D01*
G03X4279900Y2654554I-114554J0D01*
G03X4165346Y2540000I0J-114554D01*
G03X4196458Y2461514I114554J0D01*
G01X4140454Y2461514D01*
G01X4140454Y2618740D01*
G01X4140454Y2618740D01*
G03X4104640Y2654554I-35814J0D01*
G01X4104640Y2654554D01*
G01X3947160Y2654554D01*
G01X3947160Y2654554D01*
G03X3911346Y2618740I0J-35814D01*
G01X3911346Y2618740D01*
G01X3911346Y2475622D01*
G02X3796322Y2546087I89154J274644D01*
G01X3796322Y2546087D01*
G01X3647673Y2694736D01*
G03X3581400Y2758714I-66273J-2336D01*
G03X3550550Y2751101I0J-66314D01*
G02X3620552Y2810976I102007J-48402D01*
G01X3620552Y2810976D01*
G02X3750005Y2834513I173727J-587736D01*
G01X3750005Y2834513D01*
G01X3750005Y2834513D01*
G02X5158314Y2885448I1408310J-19443771D01*
G01X5158314Y2885448D01*
G02X6111917Y2862111I0J-19494706D01*
G01X6111917Y2862111D01*
G03X6159500Y2841986I47583J46189D01*
G03X6225814Y2908300I0J66314D01*
G03X6159500Y2974614I-66314J0D01*
G03X6116776Y2959017I0J-66314D01*
G03X5158314Y2982476I-958462J-19568275D01*
G01X5158314Y2982476D01*
G03X3885530Y2941089I0J-19591734D01*
G01X3885530Y2941089D01*
G03X3901714Y2984500I-50130J43411D01*
G03X3835400Y3050814I-66314J0D01*
G03X3788383Y3031265I0J-66314D01*
G03X3202686Y2400300I47017J-630965D01*
G01X3202686Y2400300D01*
G01X3202686Y1950210D01*
G03X3190811Y1932399I48514J-45210D01*
G01X3121914Y2001295D01*
G01X3121914Y2050290D01*
G03X3139714Y2095500I-48514J45210D01*
G03X3073400Y2161814I-66314J0D01*
G03X3007086Y2095500I0J-66314D01*
G03X3024886Y2050290I66314J0D01*
G01X3024886Y1981200D01*
G01X3024886Y1981200D01*
G03X3039095Y1946895I48514J0D01*
G01X3039095Y1946895D01*
G01X3070577Y1915414D01*
G01X2839495Y1915414D01*
G01X2697804Y2057105D01*
G03X2746014Y2120900I-18104J63795D01*
G03X2682036Y2187173I-66314J0D01*
G01X2663205Y2206005D01*
G01X2663205Y2206005D01*
G03X2628900Y2220214I-34305J-34305D01*
G01X2628900Y2220214D01*
G01X2581047Y2220214D01*
G03X2610014Y2298700I-91847J78486D01*
G03X2489200Y2419514I-120814J0D01*
G03X2368386Y2298700I0J-120814D01*
G03X2397353Y2220214I120814J0D01*
G01X2344195Y2220214D01*
G01X1977405Y2587005D01*
G01X1977405Y2587005D01*
G03X1943100Y2601214I-34305J-34305D01*
G01X1943100Y2601214D01*
G01X1416214Y2601214D01*
G01X1416214Y2637700D01*
G01X1416214Y2637700D01*
G03X1380400Y2673514I-35814J0D01*
G01X1380400Y2673514D01*
G01X1210400Y2673514D01*
G01X1210400Y2673514D01*
G03X1174586Y2637700I0J-35814D01*
G01X1174586Y2637700D01*
G01X1174586Y2602245D01*
G01X1005396Y2602245D01*
G03X889312Y2679545I-116084J-48514D01*
G03X763498Y2553731I0J-125814D01*
G03X889312Y2427917I125814J0D01*
G03X1005396Y2505217I0J125814D01*
G01X1174586Y2505217D01*
G01X1174586Y2467700D01*
G01X1174586Y2467700D01*
G03X1210400Y2431886I35814J0D01*
G01X1210400Y2431886D01*
G01X1380400Y2431886D01*
G01X1380400Y2431886D01*
G03X1416214Y2467700I0J35814D01*
G01X1416214Y2467700D01*
G01X1416214Y2504186D01*
G01X1923005Y2504186D01*
G01X2289795Y2137395D01*
G01X2289795Y2137395D01*
G03X2324100Y2123186I34305J34305D01*
G01X2324100Y2123186D01*
G01X2397353Y2123186D01*
G03X2378555Y2093214I91847J-78486D01*
G01X2332442Y2093214D01*
G01X2332442Y2093214D01*
G02X2244105Y2129805I0J124928D01*
G01X2244105Y2129805D01*
G03X2025837Y2220214I-218268J-218268D01*
G01X2025837Y2220214D01*
G01X1387247Y2220214D01*
G03X1416214Y2298700I-91847J78486D01*
G03X1295400Y2419514I-120814J0D01*
G03X1185213Y2348245I0J-120814D01*
G01X1005396Y2348245D01*
G03X889312Y2425545I-116084J-48514D01*
G03X763498Y2299731I0J-125814D01*
G03X889312Y2173917I125814J0D01*
G03X1005396Y2251217I0J125814D01*
G01X1184308Y2251217D01*
G03X1204086Y2219594I111092J47483D01*
G03X1121395Y2180605I12935J-134615D01*
G01X1121395Y2180605D01*
G02X999125Y2107133I-208490J208490D01*
G03X889312Y2171545I-109813J-61402D01*
G03X763498Y2045731I0J-125814D01*
G03X889312Y1919917I125814J0D01*
G03X1009758Y2009374I0J125814D01*
G03X1190005Y2111995I-96853J379720D01*
G01X1190005Y2111995D01*
G02X1200454Y2119407I27016J-27016D01*
G03X1174586Y2044700I94946J-74707D01*
G03X1207741Y1961563I120814J0D01*
G03X1095995Y1901205I45201J-217305D01*
G01X1095995Y1901205D01*
G02X1002231Y1847213I-147169J147169D01*
G03X889312Y1917545I-112919J-55482D01*
G03X763498Y1791731I0J-125814D01*
G03X889312Y1665917I125814J0D01*
G03X1007623Y1748935I0J125814D01*
G03X1164605Y1832595I-58797J299439D01*
G01X1164605Y1832595D01*
G02X1192117Y1853379I88338J-88338D01*
G03X1174586Y1790700I103283J-62679D01*
G03X1295400Y1669886I120814J0D01*
G03X1416214Y1790700I0J120814D01*
G03X1387247Y1869186I-120814J0D01*
G01X2181705Y1869186D01*
G02X2371980Y1819947I-17277J-459024D01*
G01X2371980Y1819947D01*
G03X2368386Y1790700I117220J-29247D01*
G03X2489200Y1669886I120814J0D01*
G03X2539217Y1680726I0J120814D01*
G01X2494505Y1636014D01*
G01X1226595Y1636014D01*
G01X1196573Y1666036D01*
G03X1130300Y1730014I-66273J-2336D01*
G03X1063986Y1663700I0J-66314D01*
G03X1127964Y1597427I66314J0D01*
G01X1139146Y1586245D01*
G01X1005396Y1586245D01*
G03X889312Y1663545I-116084J-48514D01*
G03X763498Y1537731I0J-125814D01*
G03X889312Y1411917I125814J0D01*
G03X1005396Y1489217I0J125814D01*
G01X1323574Y1489217D01*
G03X1197816Y1306350I70076J-182867D01*
G03X1393650Y1110516I195834J0D01*
G03X1589484Y1306350I0J195834D01*
G03X1463726Y1489217I-195834J0D01*
G01X2382029Y1489217D01*
G01X2382029Y1489217D01*
G02X2411854Y1483819I0J-85088D01*
G01X2411854Y1483819D01*
G03X2476500Y1432286I64646J14781D01*
G03X2542814Y1498600I0J66314D01*
G03X2527670Y1540780I-66314J0D01*
G03X2548905Y1553195I-13070J46720D01*
G01X2548905Y1553195D01*
G01X2619311Y1623601D01*
G03X2631186Y1605790I60389J27399D01*
G01X2631186Y1467610D01*
G03X2613386Y1422400I48514J-45210D01*
G03X2679700Y1356086I66314J0D01*
G03X2746014Y1422400I0J66314D01*
G03X2728214Y1467610I-66314J0D01*
G01X2728214Y1605790D01*
G03X2746014Y1651000I-48514J45210D01*
G03X2732298Y1691386I-66314J0D01*
G01X2886125Y1691386D01*
G03X2827086Y1566875I101775J-124511D01*
G01X2827086Y1566875D01*
G01X2827086Y1374670D01*
G01X2087450Y635034D01*
G01X2087450Y635034D01*
G03X2034763Y567008I241334J-241334D01*
G01X2034763Y567008D01*
G03X1900186Y431200I1237J-135808D01*
G01X1900186Y431200D01*
G01X1900186Y356200D01*
G01X1900186Y356200D01*
G37*
G36*
G01X4639295Y486395D02*
G03X5317471Y205486I678175J678175D01*
G01X5317471Y205486D01*
G01X5571402Y205486D01*
G01X5571402Y205486D01*
G03X5965261Y330918I-0J681078D01*
G03X6018693Y318460I53432J108356D01*
G03X6139506Y439274I0J120814D01*
G03X6018693Y560088I-120814J0D01*
G03X5897879Y439274I0J-120814D01*
G03X5902680Y405555I120814J0D01*
G02X5873463Y386690I-331278J481009D01*
G03X5885506Y439274I-108770J52584D01*
G03X5764693Y560088I-120814J0D01*
G03X5643879Y439274I0J-120814D01*
G03X5728449Y324025I120814J0D01*
G02X5571402Y302514I-157047J562540D01*
G01X5571402Y302514D01*
G01X5317471Y302514D01*
G01X5317471Y302514D01*
G02X4707905Y555005I0J862057D01*
G03X4489637Y645414I-218268J-218268D01*
G01X4489637Y645414D01*
G01X4452110Y645414D01*
G03X4406900Y663214I-45210J-48514D01*
G03X4340586Y596900I0J-66314D01*
G03X4365761Y544889I66314J0D01*
G03X4362286Y529500I32339J-15389D01*
G01X4362286Y529500D01*
G01X4362286Y359500D01*
G01X4362286Y359500D01*
G03X4398100Y323686I35814J0D01*
G01X4398100Y323686D01*
G01X4568100Y323686D01*
G01X4568100Y323686D01*
G03X4603914Y359500I0J35814D01*
G01X4603914Y359500D01*
G01X4603914Y514883D01*
G02X4639295Y486395I-114277J-178146D01*
G37*
G36*
G01X4327886Y3289300D02*
G03X4394200Y3222986I66314J0D01*
G03X4460322Y3284254I0J66314D01*
G01X4460322Y3284254D01*
G02X4793608Y3406226I333286J-394362D01*
G01X4793608Y3406226D01*
G01X4976236Y3406226D01*
G03X5021446Y3388426I45210J48514D01*
G03X5087760Y3454740I0J66314D01*
G03X5021446Y3521054I-66314J0D01*
G03X4976236Y3503254I0J-66314D01*
G01X4793608Y3503254D01*
G01X4793608Y3503254D01*
G03X4394463Y3355614I0J-613362D01*
G01X4394463Y3355614D01*
G01X4394200Y3355614D01*
G03X4327886Y3289300I0J-66314D01*
G37*
G36*
G01X8793650Y310516D02*
G03X8989484Y506350I0J195834D01*
G03X8793650Y702184I-195834J0D01*
G03X8597816Y506350I0J-195834D01*
G03X8793650Y310516I195834J0D01*
G37*
G36*
G01X8597816Y3506350D02*
G03X8793650Y3310516I195834J0D01*
G03X8989484Y3506350I0J195834D01*
G03X8793650Y3702184I-195834J0D01*
G03X8597816Y3506350I0J-195834D01*
G37*
G36*
G01X1197816Y3506350D02*
G03X1393650Y3310516I195834J0D01*
G03X1589484Y3506350I0J195834D01*
G03X1393650Y3702184I-195834J0D01*
G03X1197816Y3506350I0J-195834D01*
G37*
G36*
G01X2593992Y3698215D02*
G03X2598032Y3697986I4040J35585D01*
G01X2598032Y3697986D01*
G01X2717800Y3697986D01*
G01X2717800Y3697986D01*
G03X2721840Y3698215I0J35814D01*
G01X2895600Y3698215D01*
G01X2895600Y3698215D01*
G03X2905785Y3708400I0J10185D01*
G01X2905785Y3708400D01*
G01X2905785Y3860800D01*
G01X2905785Y3860800D01*
G03X2895600Y3870985I-10185J0D01*
G01X2895600Y3870985D01*
G01X2286000Y3870985D01*
G01X2286000Y3870985D01*
G03X2275815Y3860800I0J-10185D01*
G01X2275815Y3860800D01*
G01X2275815Y3708400D01*
G01X2275815Y3708400D01*
G03X2286000Y3698215I10185J0D01*
G01X2286000Y3698215D01*
G01X2593992Y3698215D01*
G37*
G36*
G01X2536000Y220386D02*
G03X2671814Y356200I0J135814D01*
G01X2671814Y356200D01*
G01X2671814Y431200D01*
G01X2671814Y431200D01*
G03X2536000Y567014I-135814J0D01*
G03X2400186Y431200I0J-135814D01*
G01X2400186Y431200D01*
G01X2400186Y356200D01*
G01X2400186Y356200D01*
G03X2536000Y220386I135814J0D01*
G37*
G36*
G01X979312Y2681917D02*
G03X1015126Y2717731I0J35814D01*
G01X1015126Y2717731D01*
G01X1015126Y2897731D01*
G01X1015126Y2897731D01*
G03X979312Y2933545I-35814J0D01*
G01X979312Y2933545D01*
G01X799312Y2933545D01*
G01X799312Y2933545D01*
G03X763498Y2897731I0J-35814D01*
G01X763498Y2897731D01*
G01X763498Y2717731D01*
G01X763498Y2717731D01*
G03X799312Y2681917I35814J0D01*
G01X799312Y2681917D01*
G01X979312Y2681917D01*
G01X979312Y2681917D01*
G37*
G36*
G01X889312Y903917D02*
G03X1015126Y1029731I0J125814D01*
G03X889312Y1155545I-125814J0D01*
G03X763498Y1029731I0J-125814D01*
G03X889312Y903917I125814J0D01*
G37*
G36*
G01X889312Y1157917D02*
G03X1015126Y1283731I0J125814D01*
G03X889312Y1409545I-125814J0D01*
G03X763498Y1283731I0J-125814D01*
G03X889312Y1157917I125814J0D01*
G37*
G36*
G01X2368386Y2467700D02*
G03X2404200Y2431886I35814J0D01*
G01X2404200Y2431886D01*
G01X2574200Y2431886D01*
G01X2574200Y2431886D01*
G03X2610014Y2467700I0J35814D01*
G01X2610014Y2467700D01*
G01X2610014Y2637700D01*
G01X2610014Y2637700D01*
G03X2574200Y2673514I-35814J0D01*
G01X2574200Y2673514D01*
G01X2404200Y2673514D01*
G01X2404200Y2673514D01*
G03X2368386Y2637700I0J-35814D01*
G01X2368386Y2637700D01*
G01X2368386Y2467700D01*
G01X2368386Y2467700D01*
G37*
G36*
G01X5595692Y318460D02*
G03X5631506Y354274I0J35814D01*
G01X5631506Y354274D01*
G01X5631506Y524274D01*
G01X5631506Y524274D01*
G03X5595692Y560088I-35814J0D01*
G01X5595692Y560088D01*
G01X5425693Y560088D01*
G01X5425693Y560088D01*
G03X5389879Y524274I0J-35814D01*
G01X5389879Y524274D01*
G01X5389879Y354274D01*
G01X5389879Y354274D01*
G03X5425693Y318460I35814J0D01*
G01X5425693Y318460D01*
G01X5595692Y318460D01*
G01X5595692Y318460D01*
G37*
G36*
G01X4229100Y323686D02*
G03X4349914Y444500I0J120814D01*
G03X4229100Y565314I-120814J0D01*
G03X4108286Y444500I0J-120814D01*
G03X4229100Y323686I120814J0D01*
G37*
G36*
G01X6151879Y439274D02*
G03X6272693Y318460I120814J0D01*
G03X6393506Y439274I0J120814D01*
G03X6272693Y560088I-120814J0D01*
G03X6151879Y439274I0J-120814D01*
G37*
G36*
G01X459897Y2126485D02*
G03X495711Y2090671I35814J0D01*
G01X495711Y2090671D01*
G01X655711Y2090671D01*
G01X655711Y2090671D01*
G03X691525Y2126485I0J35814D01*
G01X691525Y2126485D01*
G01X691525Y2296485D01*
G01X691525Y2296485D01*
G03X655711Y2332299I-35814J0D01*
G01X655711Y2332299D01*
G01X495711Y2332299D01*
G01X495711Y2332299D01*
G03X459897Y2296485I0J-35814D01*
G01X459897Y2296485D01*
G01X459897Y2126485D01*
G01X459897Y2126485D01*
G37*
G36*
G01X205897Y1703485D02*
G03X321711Y1587671I115814J0D01*
G03X437525Y1703485I0J115814D01*
G03X321711Y1819299I-115814J0D01*
G03X205897Y1703485I0J-115814D01*
G37*
G36*
G01X459897Y1957485D02*
G03X575711Y1841671I115814J0D01*
G03X691525Y1957485I0J115814D01*
G03X575711Y2073299I-115814J0D01*
G03X459897Y1957485I0J-115814D01*
G37*
G36*
G01X575711Y1587671D02*
G03X691525Y1703485I0J115814D01*
G03X575711Y1819299I-115814J0D01*
G03X459897Y1703485I0J-115814D01*
G03X575711Y1587671I115814J0D01*
G37*
G36*
G01X321711Y1841671D02*
G03X437525Y1957485I0J115814D01*
G03X321711Y2073299I-115814J0D01*
G03X205897Y1957485I0J-115814D01*
G03X321711Y1841671I115814J0D01*
G37*
G36*
G01X321711Y2095671D02*
G03X437525Y2211485I0J115814D01*
G03X321711Y2327299I-115814J0D01*
G03X205897Y2211485I0J-115814D01*
G03X321711Y2095671I115814J0D01*
G37*
G36*
G01X8178546Y2540000D02*
G03X8293100Y2425446I114554J0D01*
G03X8407654Y2540000I0J114554D01*
G03X8293100Y2654554I-114554J0D01*
G03X8178546Y2540000I0J-114554D01*
G37*
G36*
G01X7924546Y2540000D02*
G03X8039100Y2425446I114554J0D01*
G03X8153654Y2540000I0J114554D01*
G03X8039100Y2654554I-114554J0D01*
G03X7924546Y2540000I0J-114554D01*
G37*
G36*
G01X8547100Y2425446D02*
G03X8661654Y2540000I0J114554D01*
G03X8547100Y2654554I-114554J0D01*
G03X8432546Y2540000I0J-114554D01*
G03X8547100Y2425446I114554J0D01*
G37*
G36*
G01X7863840Y2425446D02*
G03X7899654Y2461260I0J35814D01*
G01X7899654Y2461260D01*
G01X7899654Y2618740D01*
G01X7899654Y2618740D01*
G03X7863840Y2654554I-35814J0D01*
G01X7863840Y2654554D01*
G01X7706360Y2654554D01*
G01X7706360Y2654554D01*
G03X7670546Y2618740I0J-35814D01*
G01X7670546Y2618740D01*
G01X7670546Y2461260D01*
G01X7670546Y2461260D01*
G03X7706360Y2425446I35814J0D01*
G01X7706360Y2425446D01*
G01X7863840Y2425446D01*
G01X7863840Y2425446D01*
G37*
G36*
G01X6044946Y2540000D02*
G03X6159500Y2425446I114554J0D01*
G03X6274054Y2540000I0J114554D01*
G03X6159500Y2654554I-114554J0D01*
G03X6044946Y2540000I0J-114554D01*
G37*
G36*
G01X8686546Y2540000D02*
G03X8801100Y2425446I114554J0D01*
G03X8915654Y2540000I0J114554D01*
G03X8801100Y2654554I-114554J0D01*
G03X8686546Y2540000I0J-114554D01*
G37*
G36*
G01X6413500Y2425446D02*
G03X6528054Y2540000I0J114554D01*
G03X6413500Y2654554I-114554J0D01*
G03X6298946Y2540000I0J-114554D01*
G03X6413500Y2425446I114554J0D01*
G37*
G36*
G01X4927346Y965200D02*
G03X5041900Y850646I114554J0D01*
G03X5156454Y965200I0J114554D01*
G03X5041900Y1079754I-114554J0D01*
G03X4927346Y965200I0J-114554D01*
G37*
G36*
G01X7086346Y1498600D02*
G03X7200900Y1384046I114554J0D01*
G03X7315454Y1498600I0J114554D01*
G03X7200900Y1613154I-114554J0D01*
G03X7086346Y1498600I0J-114554D01*
G37*
G36*
G01X5511546Y1498600D02*
G03X5626100Y1384046I114554J0D01*
G03X5740654Y1498600I0J114554D01*
G03X5626100Y1613154I-114554J0D01*
G03X5511546Y1498600I0J-114554D01*
G37*
G36*
G01X5511546Y1752600D02*
G03X5626100Y1638046I114554J0D01*
G03X5740654Y1752600I0J114554D01*
G03X5626100Y1867154I-114554J0D01*
G03X5511546Y1752600I0J-114554D01*
G37*
G36*
G01X7086346Y1752600D02*
G03X7200900Y1638046I114554J0D01*
G03X7315454Y1752600I0J114554D01*
G03X7200900Y1867154I-114554J0D01*
G03X7086346Y1752600I0J-114554D01*
G37*
G36*
G01X8965946Y1752600D02*
G03X9080500Y1638046I114554J0D01*
G03X9195054Y1752600I0J114554D01*
G03X9080500Y1867154I-114554J0D01*
G03X8965946Y1752600I0J-114554D01*
G37*
G36*
G01X5321300Y1384046D02*
G03X5435854Y1498600I0J114554D01*
G03X5321300Y1613154I-114554J0D01*
G03X5206746Y1498600I0J-114554D01*
G03X5321300Y1384046I114554J0D01*
G37*
G36*
G01X7200900Y1130046D02*
G03X7315454Y1244600I0J114554D01*
G03X7200900Y1359154I-114554J0D01*
G03X7086346Y1244600I0J-114554D01*
G03X7200900Y1130046I114554J0D01*
G37*
G36*
G01X7505700Y1130046D02*
G03X7620254Y1244600I0J114554D01*
G03X7505700Y1359154I-114554J0D01*
G03X7391146Y1244600I0J-114554D01*
G03X7505700Y1130046I114554J0D01*
G37*
G36*
G01X5511546Y1244600D02*
G03X5626100Y1130046I114554J0D01*
G03X5740654Y1244600I0J114554D01*
G03X5626100Y1359154I-114554J0D01*
G03X5511546Y1244600I0J-114554D01*
G37*
G36*
G01X8965946Y1498600D02*
G03X9080500Y1384046I114554J0D01*
G03X9195054Y1498600I0J114554D01*
G03X9080500Y1613154I-114554J0D01*
G03X8965946Y1498600I0J-114554D01*
G37*
G36*
G01X7505700Y1384046D02*
G03X7620254Y1498600I0J114554D01*
G03X7505700Y1613154I-114554J0D01*
G03X7391146Y1498600I0J-114554D01*
G03X7505700Y1384046I114554J0D01*
G37*
G36*
G01X7505700Y1638046D02*
G03X7620254Y1752600I0J114554D01*
G03X7505700Y1867154I-114554J0D01*
G03X7391146Y1752600I0J-114554D01*
G03X7505700Y1638046I114554J0D01*
G37*
G36*
G01X4787900Y850646D02*
G03X4902454Y965200I0J114554D01*
G03X4787900Y1079754I-114554J0D01*
G03X4673346Y965200I0J-114554D01*
G03X4787900Y850646I114554J0D01*
G37*
G36*
G01X4419346Y965200D02*
G03X4533900Y850646I114554J0D01*
G03X4648454Y965200I0J114554D01*
G03X4533900Y1079754I-114554J0D01*
G03X4419346Y965200I0J-114554D01*
G37*
G36*
G01X5321300Y1130046D02*
G03X5435854Y1244600I0J114554D01*
G03X5321300Y1359154I-114554J0D01*
G03X5206746Y1244600I0J-114554D01*
G03X5321300Y1130046I114554J0D01*
G37*
G36*
G01X4165346Y965200D02*
G03X4279900Y850646I114554J0D01*
G03X4394454Y965200I0J114554D01*
G03X4279900Y1079754I-114554J0D01*
G03X4165346Y965200I0J-114554D01*
G37*
G36*
G01X8965946Y1244600D02*
G03X9080500Y1130046I114554J0D01*
G03X9195054Y1244600I0J114554D01*
G03X9080500Y1359154I-114554J0D01*
G03X8965946Y1244600I0J-114554D01*
G37*
%LPD*%
G36*
G01X2941095Y658114D02*
G01X2728214Y870995D01*
G01X2728214Y983490D01*
G03X2746014Y1028700I-48514J45210D01*
G03X2684476Y1094842I-66314J0D01*
G01X2859580Y1269946D01*
G03X2914820Y1223625I128320J96929D01*
G03X2827086Y1080375I73079J-143250D01*
G01X2827086Y1080375D01*
G01X2827086Y880375D01*
G01X2827086Y880375D01*
G03X2987900Y719561I160814J0D01*
G03X3148714Y880375I0J160814D01*
G01X3148714Y880375D01*
G01X3148714Y1080375D01*
G01X3148714Y1080375D01*
G03X3060979Y1223625I-160814J0D01*
G03X3148714Y1366875I-73079J143250D01*
G01X3148714Y1366875D01*
G01X3148714Y1566875D01*
G01X3148714Y1566875D01*
G03X3132168Y1637923I-160814J0D01*
G01X3559795Y1210295D01*
G01X3559795Y1210295D01*
G03X3594100Y1196086I34305J34305D01*
G01X3594100Y1196086D01*
G01X3642726Y1196086D01*
G03X3746500Y1130046I103774J48514D01*
G03X3861054Y1244600I0J114554D01*
G03X3746500Y1359154I-114554J0D01*
G03X3642726Y1293114I0J-114554D01*
G01X3614195Y1293114D01*
G01X3246223Y1661086D01*
G01X3515405Y1661086D01*
G01X3638816Y1537675D01*
G03X3631946Y1498600I107684J-39075D01*
G03X3746500Y1384046I114554J0D01*
G03X3861054Y1498600I0J114554D01*
G03X3746500Y1613154I-114554J0D01*
G03X3707425Y1606284I0J-114554D01*
G01X3609623Y1704086D01*
G01X3642726Y1704086D01*
G03X3746500Y1638046I103774J48514D01*
G03X3861054Y1752600I0J114554D01*
G03X3746500Y1867154I-114554J0D01*
G03X3642726Y1801114I0J-114554D01*
G01X3303481Y1801114D01*
G03X3310905Y1807195I-26881J40386D01*
G01X3310905Y1807195D01*
G01X3461795Y1958086D01*
G01X3642726Y1958086D01*
G03X3746500Y1892046I103774J48514D01*
G03X3861054Y2006600I0J114554D01*
G03X3746500Y2121154I-114554J0D01*
G03X3713045Y2116160I0J-114554D01*
G02X3689798Y2146046I751799J608784D01*
G01X3825240Y2146046D01*
G01X3825240Y2146046D01*
G03X3861054Y2181860I0J35814D01*
G01X3861054Y2181860D01*
G01X3861054Y2309931D01*
G03X3909421Y2300986I48367J126290D01*
G01X3909421Y2300986D01*
G01X4679190Y2300986D01*
G03X4724400Y2283186I45210J48514D01*
G03X4790714Y2349500I0J66314D01*
G03X4788999Y2364486I-66314J0D01*
G01X4979676Y2364486D01*
G01X4979676Y2364486D01*
G03X5173321Y2422530I0J352038D01*
G01X5155638Y2404847D01*
G01X5155638Y2404847D01*
G03X5069586Y2197100I207747J-207747D01*
G01X5069586Y2197100D01*
G03X5211862Y1797941I631064J0D01*
G03X3985782Y1247924I109438J-1885534D01*
G01X3985782Y1247924D01*
G01X3883631Y1145773D01*
G03X3819653Y1079500I2336J-66273D01*
G03X3877615Y1013714I66314J0D01*
G01X3467100Y1013714D01*
G01X3467100Y1013714D01*
G03X3432795Y999505I0J-48514D01*
G01X3432795Y999505D01*
G01X3091405Y658114D01*
G01X2941095Y658114D01*
G37*
G36*
G01X3911346Y1018235D02*
G01X3911346Y1013714D01*
G01X3894319Y1013714D01*
G03X3911346Y1018235I-8352J65786D01*
G37*
G54D10*
G01X9247886Y3897336D02*
G01X9247886Y35814D01*
G01X1658914Y35814D01*
G01X1658914Y35875D01*
G01X1658914Y35875D01*
G01X1658914Y1035875D01*
G01X1658914Y1035875D01*
G03X1623100Y1071689I-35814J0D01*
G01X1623100Y1071689D01*
G01X1123100Y1071689D01*
G01X1123100Y1071689D01*
G03X1087286Y1035875I0J-35814D01*
G01X1087286Y1035875D01*
G01X1087286Y35875D01*
G01X1087286Y35875D01*
G01X1087286Y35814D01*
G01X680794Y35814D01*
G03X681014Y39775I-35594J3961D01*
G01X681014Y39775D01*
G01X681014Y1039775D01*
G01X681014Y1039775D01*
G03X645200Y1075589I-35814J0D01*
G01X645200Y1075589D01*
G01X145200Y1075589D01*
G01X145200Y1075589D01*
G03X109386Y1039775I0J-35814D01*
G01X109386Y1039775D01*
G01X109386Y39775D01*
G01X109386Y39775D01*
G03X109605Y35814I35814J0D01*
G01X35814Y35814D01*
G01X35814Y3875786D01*
G01X571500Y3875786D01*
G01X571500Y3875786D01*
G03X605843Y3901440I0J35814D01*
G01X1580917Y3901440D01*
G03X1615260Y3875786I34343J10160D01*
G01X1615260Y3875786D01*
G01X2555421Y3875786D01*
G01X2555421Y3875786D01*
G03X2589764Y3901440I0J35814D01*
G01X2882236Y3901440D01*
G03X2893694Y3900672I11458J85046D01*
G03X2905152Y3901440I0J85814D01*
G01X3074540Y3901440D01*
G03X3085998Y3900672I11458J85046D01*
G03X3097456Y3901440I0J85814D01*
G01X3257788Y3901440D01*
G03X3269246Y3900672I11458J85046D01*
G03X3280704Y3901440I0J85814D01*
G01X3450092Y3901440D01*
G03X3461550Y3900672I11458J85046D01*
G03X3473008Y3901440I0J85814D01*
G01X3585157Y3901440D01*
G03X3619500Y3875786I34343J10160D01*
G01X3619500Y3875786D01*
G01X6806359Y3875786D01*
G01X6806359Y3875786D01*
G03X6840701Y3901440I0J35814D01*
G01X8228055Y3901440D01*
G03X8244702Y3897336I16647J31710D01*
G01X8244702Y3897336D01*
G01X9247886Y3897336D01*
G01X1900186Y356200D02*
G03X2036000Y220386I135814J0D01*
G03X2171814Y356200I0J135814D01*
G01X2171814Y356200D01*
G01X2171814Y431200D01*
G01X2171814Y431200D01*
G03X2127277Y531768I-135814J0D01*
G02X2156059Y566425I201507J-138068D01*
G01X2156059Y566425D01*
G01X2613558Y1023924D01*
G03X2631186Y983490I66142J4776D01*
G01X2631186Y850900D01*
G01X2631186Y850900D01*
G03X2645395Y816595I48514J0D01*
G01X2645395Y816595D01*
G01X2886695Y575295D01*
G01X2886695Y575295D01*
G03X2921000Y561086I34305J34305D01*
G01X2921000Y561086D01*
G01X3111500Y561086D01*
G01X3111500Y561086D01*
G03X3145805Y575295I0J48514D01*
G01X3145805Y575295D01*
G01X3487195Y916686D01*
G01X3911346Y916686D01*
G01X3911346Y886460D01*
G01X3911346Y886460D01*
G03X3947160Y850646I35814J0D01*
G01X3947160Y850646D01*
G01X4104640Y850646D01*
G01X4104640Y850646D01*
G03X4140454Y886460I0J35814D01*
G01X4140454Y886460D01*
G01X4140454Y1043940D01*
G01X4140454Y1043940D01*
G03X4104640Y1079754I-35814J0D01*
G01X4104640Y1079754D01*
G01X3954830Y1079754D01*
G01X4054391Y1179315D01*
G01X4054391Y1179315D01*
G02X5218945Y1701160I1266909J-1266909D01*
G03X5321300Y1638046I102355J51440D01*
G03X5435854Y1752600I0J114554D01*
G03X5321300Y1867154I-114554J0D01*
G03X5285347Y1861366I0J-114554D01*
G02X5241454Y1924459I415303J335734D01*
G03X5321300Y1892046I79846J82141D01*
G03X5435854Y2006600I0J114554D01*
G03X5428984Y2045675I-114554J0D01*
G01X5431805Y2048495D01*
G01X5431805Y2048495D01*
G02X5520142Y2085086I88338J-88338D01*
G01X5520142Y2085086D01*
G01X5542658Y2085086D01*
G03X5511546Y2006600I83442J-78486D01*
G03X5626100Y1892046I114554J0D01*
G03X5740654Y2006600I0J114554D01*
G03X5709542Y2085086I-114554J0D01*
G01X6894295Y2085086D01*
G01X6894295Y2085086D01*
G02X7088266Y2032666I0J-385091D01*
G03X6993153Y1969063I112634J-271350D01*
G01X6993153Y1969063D01*
G01X6824598Y1800507D01*
G01X6824598Y1800507D01*
G03X6720586Y1549400I251107J-251107D01*
G02X6636013Y1345222I-288752J0D01*
G01X6636013Y1345222D01*
G01X6525464Y1234673D01*
G03X6461486Y1168400I2336J-66273D01*
G03X6470976Y1134216I66314J0D01*
G03X6330234Y1153414I-140741J-506281D01*
G01X6330234Y1153414D01*
G01X5880100Y1153414D01*
G01X5880100Y1153414D01*
G03X5319111Y921045I0J-793358D01*
G01X5319111Y921045D01*
G01X4958186Y560119D01*
G03X4894208Y493846I2336J-66273D01*
G03X4960522Y427532I66314J0D01*
G03X5026795Y491510I0J66314D01*
G01X5387720Y852436D01*
G01X5387721Y852436D01*
G02X5791597Y1050739I492379J-492379D01*
G03X5790946Y1043940I35163J-6799D01*
G01X5790946Y1043940D01*
G01X5790946Y886460D01*
G01X5790946Y886460D01*
G03X5826760Y850646I35814J0D01*
G01X5826760Y850646D01*
G01X5984240Y850646D01*
G01X5984240Y850646D01*
G03X6020054Y886460I0J35814D01*
G01X6020054Y886460D01*
G01X6020054Y1043940D01*
G01X6020054Y1043940D01*
G03X6017822Y1056386I-35814J0D01*
G01X6090162Y1056386D01*
G03X6044946Y965200I69338J-91186D01*
G03X6159500Y850646I114554J0D01*
G03X6274054Y965200I0J114554D01*
G03X6228838Y1056386I-114554J0D01*
G01X6330234Y1056386D01*
G01X6330234Y1056386D01*
G02X6343877Y1056169I0J-428451D01*
G03X6298946Y965200I69623J-90969D01*
G03X6413500Y850646I114554J0D01*
G03X6528054Y965200I0J114554D01*
G03X6517460Y1013314I-114554J0D01*
G02X6556125Y992001I-187226J-385379D01*
G01X6556125Y992001D01*
G03X6552946Y965200I111375J-26801D01*
G03X6650021Y851987I114554J0D01*
G01X6650021Y851987D01*
G02X6527800Y835914I-122221J456641D01*
G01X6527800Y835914D01*
G01X5635345Y835914D01*
G01X5635345Y835914D01*
G03X5360794Y739399I0J-438759D01*
G01X5360794Y739399D01*
G01X5359400Y739414D01*
G03X5293086Y673100I0J-66314D01*
G03X5359400Y606786I66314J0D01*
G03X5425414Y666802I0J66314D01*
G01X5425414Y666802D01*
G02X5635345Y738886I209930J-269646D01*
G01X5635345Y738886D01*
G01X6527800Y738886D01*
G01X6527800Y738886D01*
G03X6878004Y859225I0J569743D01*
G01X6878004Y859225D01*
G03X6921500Y850646I43496J105975D01*
G03X7025274Y916686I0J114554D01*
G01X7369455Y916686D01*
G01X7369455Y916686D01*
G02X7611095Y816595I0J-341731D01*
G03X7829363Y726186I218268J218268D01*
G01X7829363Y726186D01*
G01X8341192Y726186D01*
G01X8341192Y726186D01*
G03X8753710Y860908I0J698922D01*
G01X8753710Y860908D01*
G03X8801100Y850646I47390J104292D01*
G03X8915654Y965200I0J114554D01*
G03X8801100Y1079754I-114554J0D01*
G03X8686546Y965200I0J-114554D01*
G03X8690595Y935012I114554J0D01*
G01X8690595Y935012D01*
G02X8644808Y905403I-349403J490095D01*
G01X8644808Y905403D01*
G03X8661654Y965200I-97708J59797D01*
G03X8547100Y1079754I-114554J0D01*
G03X8499136Y1069229I0J-114554D01*
G03X8117853Y1191514I-381283J-533276D01*
G01X8117853Y1191514D01*
G01X7782921Y1191514D01*
G01X7782921Y1191514D01*
G03X7687295Y1151905I0J-135235D01*
G01X7687295Y1151905D01*
G02X7629618Y1128014I-57677J57677D01*
G01X7629618Y1128014D01*
G01X6908800Y1128014D01*
G01X6908800Y1128014D01*
G03X6714068Y1069861I0J-355119D01*
G01X6714068Y1069861D01*
G03X6667500Y1079754I-46568J-104661D01*
G03X6617216Y1068128I0J-114554D01*
G03X6549182Y1105628I-286982J-440193D01*
G03X6594073Y1166064I-21382J62772D01*
G01X6594073Y1166064D01*
G01X6704622Y1276613D01*
G01X6704622Y1276613D01*
G03X6817614Y1549400I-272787J272787D01*
G01X6817614Y1549400D01*
G02X6893207Y1731898I258091J0D01*
G01X6893207Y1731898D01*
G01X7061763Y1900453D01*
G01X7061763Y1900453D01*
G02X7110583Y1936134I139137J-139137D01*
G03X7200900Y1892046I90317J70466D01*
G03X7315454Y2006600I0J114554D01*
G03X7284342Y2085086I-114554J0D01*
G01X7422258Y2085086D01*
G03X7391146Y2006600I83442J-78486D01*
G03X7505700Y1892046I114554J0D01*
G03X7620254Y2006600I0J114554D01*
G03X7589142Y2085086I-114554J0D01*
G01X8773895Y2085086D01*
G01X8773895Y2085086D01*
G02X8968822Y2032107I0J-385091D01*
G01X8968822Y2032107D01*
G03X8965946Y2006600I111678J-25507D01*
G03X9080500Y1892046I114554J0D01*
G03X9195054Y2006600I0J114554D01*
G03X9080500Y2121154I-114554J0D01*
G03X9029148Y2108999I0J-114554D01*
G03X8773895Y2182114I-255253J-409004D01*
G01X8773895Y2182114D01*
G01X7620254Y2182114D01*
G01X7620254Y2339340D01*
G01X7620254Y2339340D01*
G03X7584440Y2375154I-35814J0D01*
G01X7584440Y2375154D01*
G01X7426960Y2375154D01*
G01X7426960Y2375154D01*
G03X7391146Y2339340I0J-35814D01*
G01X7391146Y2339340D01*
G01X7391146Y2182114D01*
G01X7315454Y2182114D01*
G01X7315454Y2339340D01*
G01X7315454Y2339340D01*
G03X7279640Y2375154I-35814J0D01*
G01X7279640Y2375154D01*
G01X7122160Y2375154D01*
G01X7122160Y2375154D01*
G03X7086346Y2339340I0J-35814D01*
G01X7086346Y2339340D01*
G01X7086346Y2182114D01*
G01X6894295Y2182114D01*
G01X6894295Y2182114D01*
G01X5740654Y2182114D01*
G01X5740654Y2339340D01*
G01X5740654Y2339340D01*
G03X5704840Y2375154I-35814J0D01*
G01X5704840Y2375154D01*
G01X5547360Y2375154D01*
G01X5547360Y2375154D01*
G03X5511546Y2339340I0J-35814D01*
G01X5511546Y2339340D01*
G01X5511546Y2181947D01*
G03X5430654Y2163275I8596J-221790D01*
G03X5435854Y2181860I-30614J18585D01*
G01X5435854Y2181860D01*
G01X5435854Y2306545D01*
G01X5642180Y2512871D01*
G01X5642180Y2512871D01*
G02X5790946Y2617765I377620J-377620D01*
G01X5790946Y2461260D01*
G01X5790946Y2461260D01*
G03X5826760Y2425446I35814J0D01*
G01X5826760Y2425446D01*
G01X5984240Y2425446D01*
G01X5984240Y2425446D01*
G03X6020054Y2461260I0J35814D01*
G01X6020054Y2461260D01*
G01X6020054Y2618740D01*
G01X6020054Y2618740D01*
G03X5984240Y2654554I-35814J0D01*
G01X5984240Y2654554D01*
G01X5895229Y2654554D01*
G02X6019800Y2669286I124570J-519304D01*
G01X6019800Y2669286D01*
G01X6124327Y2669286D01*
G01X6124327Y2669286D01*
G03X6467760Y2720556I0J1175887D01*
G01X6467760Y2720556D01*
G03X6461486Y2692400I60040J-28156D01*
G03X6527800Y2626086I66314J0D01*
G03X6573010Y2643886I0J66314D01*
G01X6619227Y2643886D01*
G03X6552946Y2540000I48273J-103886D01*
G03X6667500Y2425446I114554J0D01*
G03X6782054Y2540000I0J114554D01*
G03X6715773Y2643886I-114554J0D01*
G01X6873227Y2643886D01*
G03X6806946Y2540000I48273J-103886D01*
G03X6921500Y2425446I114554J0D01*
G03X7036054Y2540000I0J114554D01*
G03X6969773Y2643886I-114554J0D01*
G01X7219190Y2643886D01*
G03X7264400Y2626086I45210J48514D01*
G03X7330714Y2692400I0J66314D01*
G03X7264400Y2758714I-66314J0D01*
G03X7219190Y2740914I0J-66314D01*
G01X6573010Y2740914D01*
G03X6557177Y2751852I-45210J-48514D01*
G01X6557177Y2751852D01*
G03X6877562Y2942207I-432850J1093321D01*
G01X6877562Y2942207D01*
G03X6921500Y2933446I43938J105793D01*
G03X7036054Y3048000I0J114554D01*
G03X6990838Y3139186I-114554J0D01*
G01X7106162Y3139186D01*
G03X7060946Y3048000I69338J-91186D01*
G03X7175500Y2933446I114554J0D01*
G03X7238942Y2952618I0J114554D01*
G01X7238942Y2952618D01*
G03X7236186Y2933700I63558J-18918D01*
G03X7302500Y2867386I66314J0D01*
G03X7368814Y2933700I0J66314D01*
G03X7366058Y2952618I-66314J0D01*
G01X7366058Y2952618D01*
G03X7429500Y2933446I63442J95382D01*
G03X7474059Y2942467I0J114554D01*
G03X8134692Y2707386I660633J810724D01*
G01X8134692Y2707386D01*
G01X8820337Y2707386D01*
G01X8820337Y2707386D01*
G02X8969995Y2645395I0J-211649D01*
G01X8969995Y2645395D01*
G02X9031986Y2495737I-149658J-149658D01*
G01X9031986Y2495737D01*
G01X9031986Y2375154D01*
G01X9001760Y2375154D01*
G01X9001760Y2375154D01*
G03X8965946Y2339340I0J-35814D01*
G01X8965946Y2339340D01*
G01X8965946Y2181860D01*
G01X8965946Y2181860D01*
G03X9001760Y2146046I35814J0D01*
G01X9001760Y2146046D01*
G01X9159240Y2146046D01*
G01X9159240Y2146046D01*
G03X9195054Y2181860I0J35814D01*
G01X9195054Y2181860D01*
G01X9195054Y2339340D01*
G01X9195054Y2339340D01*
G03X9159240Y2375154I-35814J0D01*
G01X9159240Y2375154D01*
G01X9129014Y2375154D01*
G01X9129014Y2495737D01*
G01X9129014Y2495737D01*
G03X9038605Y2714005I-308677J0D01*
G01X9038605Y2714005D01*
G03X8820337Y2804414I-218268J-218268D01*
G01X8820337Y2804414D01*
G01X8134692Y2804414D01*
G01X8134692Y2804414D01*
G02X7646752Y2939500I0J948778D01*
G01X7646752Y2939500D01*
G03X7683500Y2933446I36748J108500D01*
G03X7798054Y3048000I0J114554D01*
G03X7683500Y3162554I-114554J0D01*
G03X7568946Y3048000I0J-114554D01*
G03X7600388Y2969164I114554J0D01*
G01X7600388Y2969164D01*
G02X7539093Y3014652I534304J784028D01*
G01X7539093Y3014652D01*
G03X7544054Y3048000I-109593J33348D01*
G03X7429500Y3162554I-114554J0D01*
G03X7336650Y3115093I0J-114554D01*
G03X7298705Y3171205I-164231J-70174D01*
G01X7298705Y3171205D01*
G03X7141758Y3236214I-156947J-156947D01*
G01X7141758Y3236214D01*
G01X4486182Y3236214D01*
G01X4486182Y3236214D01*
G03X4402495Y3215393I0J-178596D01*
G03X4394200Y3215914I-8295J-65793D01*
G03X4327886Y3149600I0J-66314D01*
G03X4394200Y3083286I66314J0D01*
G03X4458757Y3134438I0J66314D01*
G02X4486182Y3139186I27424J-76819D01*
G01X4486182Y3139186D01*
G01X6555178Y3139186D01*
G03X6552946Y3126740I33582J-12446D01*
G01X6552946Y3126740D01*
G01X6552946Y2969260D01*
G01X6552946Y2969260D01*
G03X6588760Y2933446I35814J0D01*
G01X6588760Y2933446D01*
G01X6701120Y2933446D01*
G02X6124327Y2766314I-576794J911727D01*
G01X6124327Y2766314D01*
G01X6019800Y2766314D01*
G01X6019800Y2766314D01*
G03X5573571Y2581480I0J-631064D01*
G01X5573571Y2581480D01*
G01X5367245Y2375154D01*
G01X5263163Y2375154D01*
G01X5358422Y2470412D01*
G01X5358422Y2470413D01*
G03X5468384Y2694943I-272787J272788D01*
G01X5468384Y2694943D01*
G03X5489214Y2743200I-45484J48257D01*
G03X5422900Y2809514I-66314J0D01*
G03X5356586Y2743200I0J-66314D01*
G03X5371356Y2701478I66314J0D01*
G02X5289813Y2539022I-285722J41722D01*
G01X5289813Y2539022D01*
G01X5260189Y2509398D01*
G03X5194300Y2568214I-65889J-7498D01*
G03X5155387Y2555597I0J-66314D01*
G03X5041900Y2654554I-113487J-15597D01*
G03X4927346Y2540000I0J-114554D01*
G03X4958458Y2461514I114554J0D01*
G01X4871342Y2461514D01*
G03X4902454Y2540000I-83442J78486D01*
G03X4787900Y2654554I-114554J0D01*
G03X4673346Y2540000I0J-114554D01*
G03X4704458Y2461514I114554J0D01*
G01X4617342Y2461514D01*
G03X4648454Y2540000I-83442J78486D01*
G03X4533900Y2654554I-114554J0D01*
G03X4419346Y2540000I0J-114554D01*
G03X4450458Y2461514I114554J0D01*
G01X4363342Y2461514D01*
G03X4394454Y2540000I-83442J78486D01*
G03X4279900Y2654554I-114554J0D01*
G03X4165346Y2540000I0J-114554D01*
G03X4196458Y2461514I114554J0D01*
G01X4140454Y2461514D01*
G01X4140454Y2618740D01*
G01X4140454Y2618740D01*
G03X4104640Y2654554I-35814J0D01*
G01X4104640Y2654554D01*
G01X3947160Y2654554D01*
G01X3947160Y2654554D01*
G03X3911346Y2618740I0J-35814D01*
G01X3911346Y2618740D01*
G01X3911346Y2475622D01*
G02X3796322Y2546087I89154J274644D01*
G01X3796322Y2546087D01*
G01X3647673Y2694736D01*
G03X3581400Y2758714I-66273J-2336D01*
G03X3550550Y2751101I0J-66314D01*
G02X3620552Y2810976I102007J-48402D01*
G01X3620552Y2810976D01*
G02X3750005Y2834513I173727J-587736D01*
G01X3750005Y2834513D01*
G01X3750005Y2834513D01*
G02X5158314Y2885448I1408310J-19443771D01*
G01X5158314Y2885448D01*
G02X6111917Y2862111I0J-19494706D01*
G01X6111917Y2862111D01*
G03X6159500Y2841986I47583J46189D01*
G03X6225814Y2908300I0J66314D01*
G03X6159500Y2974614I-66314J0D01*
G03X6116776Y2959017I0J-66314D01*
G03X5158314Y2982476I-958462J-19568275D01*
G01X5158314Y2982476D01*
G03X3885530Y2941089I0J-19591734D01*
G01X3885530Y2941089D01*
G03X3901714Y2984500I-50130J43411D01*
G03X3835400Y3050814I-66314J0D01*
G03X3788383Y3031265I0J-66314D01*
G03X3202686Y2400300I47017J-630965D01*
G01X3202686Y2400300D01*
G01X3202686Y1950210D01*
G03X3190811Y1932399I48514J-45210D01*
G01X3121914Y2001295D01*
G01X3121914Y2050290D01*
G03X3139714Y2095500I-48514J45210D01*
G03X3073400Y2161814I-66314J0D01*
G03X3007086Y2095500I0J-66314D01*
G03X3024886Y2050290I66314J0D01*
G01X3024886Y1981200D01*
G01X3024886Y1981200D01*
G03X3039095Y1946895I48514J0D01*
G01X3039095Y1946895D01*
G01X3070577Y1915414D01*
G01X2839495Y1915414D01*
G01X2697804Y2057105D01*
G03X2746014Y2120900I-18104J63795D01*
G03X2682036Y2187173I-66314J0D01*
G01X2663205Y2206005D01*
G01X2663205Y2206005D01*
G03X2628900Y2220214I-34305J-34305D01*
G01X2628900Y2220214D01*
G01X2581047Y2220214D01*
G03X2610014Y2298700I-91847J78486D01*
G03X2489200Y2419514I-120814J0D01*
G03X2368386Y2298700I0J-120814D01*
G03X2397353Y2220214I120814J0D01*
G01X2344195Y2220214D01*
G01X1977405Y2587005D01*
G01X1977405Y2587005D01*
G03X1943100Y2601214I-34305J-34305D01*
G01X1943100Y2601214D01*
G01X1416214Y2601214D01*
G01X1416214Y2637700D01*
G01X1416214Y2637700D01*
G03X1380400Y2673514I-35814J0D01*
G01X1380400Y2673514D01*
G01X1210400Y2673514D01*
G01X1210400Y2673514D01*
G03X1174586Y2637700I0J-35814D01*
G01X1174586Y2637700D01*
G01X1174586Y2602245D01*
G01X1005396Y2602245D01*
G03X889312Y2679545I-116084J-48514D01*
G03X763498Y2553731I0J-125814D01*
G03X889312Y2427917I125814J0D01*
G03X1005396Y2505217I0J125814D01*
G01X1174586Y2505217D01*
G01X1174586Y2467700D01*
G01X1174586Y2467700D01*
G03X1210400Y2431886I35814J0D01*
G01X1210400Y2431886D01*
G01X1380400Y2431886D01*
G01X1380400Y2431886D01*
G03X1416214Y2467700I0J35814D01*
G01X1416214Y2467700D01*
G01X1416214Y2504186D01*
G01X1923005Y2504186D01*
G01X2289795Y2137395D01*
G01X2289795Y2137395D01*
G03X2324100Y2123186I34305J34305D01*
G01X2324100Y2123186D01*
G01X2397353Y2123186D01*
G03X2378555Y2093214I91847J-78486D01*
G01X2332442Y2093214D01*
G01X2332442Y2093214D01*
G02X2244105Y2129805I0J124928D01*
G01X2244105Y2129805D01*
G03X2025837Y2220214I-218268J-218268D01*
G01X2025837Y2220214D01*
G01X1387247Y2220214D01*
G03X1416214Y2298700I-91847J78486D01*
G03X1295400Y2419514I-120814J0D01*
G03X1185213Y2348245I0J-120814D01*
G01X1005396Y2348245D01*
G03X889312Y2425545I-116084J-48514D01*
G03X763498Y2299731I0J-125814D01*
G03X889312Y2173917I125814J0D01*
G03X1005396Y2251217I0J125814D01*
G01X1184308Y2251217D01*
G03X1204086Y2219594I111092J47483D01*
G03X1121395Y2180605I12935J-134615D01*
G01X1121395Y2180605D01*
G02X999125Y2107133I-208490J208490D01*
G03X889312Y2171545I-109813J-61402D01*
G03X763498Y2045731I0J-125814D01*
G03X889312Y1919917I125814J0D01*
G03X1009758Y2009374I0J125814D01*
G03X1190005Y2111995I-96853J379720D01*
G01X1190005Y2111995D01*
G02X1200454Y2119407I27016J-27016D01*
G03X1174586Y2044700I94946J-74707D01*
G03X1207741Y1961563I120814J0D01*
G03X1095995Y1901205I45201J-217305D01*
G01X1095995Y1901205D01*
G02X1002231Y1847213I-147169J147169D01*
G03X889312Y1917545I-112919J-55482D01*
G03X763498Y1791731I0J-125814D01*
G03X889312Y1665917I125814J0D01*
G03X1007623Y1748935I0J125814D01*
G03X1164605Y1832595I-58797J299439D01*
G01X1164605Y1832595D01*
G02X1192117Y1853379I88338J-88338D01*
G03X1174586Y1790700I103283J-62679D01*
G03X1295400Y1669886I120814J0D01*
G03X1416214Y1790700I0J120814D01*
G03X1387247Y1869186I-120814J0D01*
G01X2181705Y1869186D01*
G02X2371980Y1819947I-17277J-459024D01*
G01X2371980Y1819947D01*
G03X2368386Y1790700I117220J-29247D01*
G03X2489200Y1669886I120814J0D01*
G03X2539217Y1680726I0J120814D01*
G01X2494505Y1636014D01*
G01X1226595Y1636014D01*
G01X1196573Y1666036D01*
G03X1130300Y1730014I-66273J-2336D01*
G03X1063986Y1663700I0J-66314D01*
G03X1127964Y1597427I66314J0D01*
G01X1139146Y1586245D01*
G01X1005396Y1586245D01*
G03X889312Y1663545I-116084J-48514D01*
G03X763498Y1537731I0J-125814D01*
G03X889312Y1411917I125814J0D01*
G03X1005396Y1489217I0J125814D01*
G01X1323574Y1489217D01*
G03X1197816Y1306350I70076J-182867D01*
G03X1393650Y1110516I195834J0D01*
G03X1589484Y1306350I0J195834D01*
G03X1463726Y1489217I-195834J0D01*
G01X2382029Y1489217D01*
G01X2382029Y1489217D01*
G02X2411854Y1483819I0J-85088D01*
G01X2411854Y1483819D01*
G03X2476500Y1432286I64646J14781D01*
G03X2542814Y1498600I0J66314D01*
G03X2527670Y1540780I-66314J0D01*
G03X2548905Y1553195I-13070J46720D01*
G01X2548905Y1553195D01*
G01X2619311Y1623601D01*
G03X2631186Y1605790I60389J27399D01*
G01X2631186Y1467610D01*
G03X2613386Y1422400I48514J-45210D01*
G03X2679700Y1356086I66314J0D01*
G03X2746014Y1422400I0J66314D01*
G03X2728214Y1467610I-66314J0D01*
G01X2728214Y1605790D01*
G03X2746014Y1651000I-48514J45210D01*
G03X2732298Y1691386I-66314J0D01*
G01X2886125Y1691386D01*
G03X2827086Y1566875I101775J-124511D01*
G01X2827086Y1566875D01*
G01X2827086Y1374670D01*
G01X2087450Y635034D01*
G01X2087450Y635034D01*
G03X2034763Y567008I241334J-241334D01*
G01X2034763Y567008D01*
G03X1900186Y431200I1237J-135808D01*
G01X1900186Y431200D01*
G01X1900186Y356200D01*
G01X1900186Y356200D01*
G01X4639295Y486395D02*
G03X5317471Y205486I678175J678175D01*
G01X5317471Y205486D01*
G01X5571402Y205486D01*
G01X5571402Y205486D01*
G03X5965261Y330918I-0J681078D01*
G03X6018693Y318460I53432J108356D01*
G03X6139506Y439274I0J120814D01*
G03X6018693Y560088I-120814J0D01*
G03X5897879Y439274I0J-120814D01*
G03X5902680Y405555I120814J0D01*
G02X5873463Y386690I-331278J481009D01*
G03X5885506Y439274I-108770J52584D01*
G03X5764693Y560088I-120814J0D01*
G03X5643879Y439274I0J-120814D01*
G03X5728449Y324025I120814J0D01*
G02X5571402Y302514I-157047J562540D01*
G01X5571402Y302514D01*
G01X5317471Y302514D01*
G01X5317471Y302514D01*
G02X4707905Y555005I0J862057D01*
G03X4489637Y645414I-218268J-218268D01*
G01X4489637Y645414D01*
G01X4452110Y645414D01*
G03X4406900Y663214I-45210J-48514D01*
G03X4340586Y596900I0J-66314D01*
G03X4365761Y544889I66314J0D01*
G03X4362286Y529500I32339J-15389D01*
G01X4362286Y529500D01*
G01X4362286Y359500D01*
G01X4362286Y359500D01*
G03X4398100Y323686I35814J0D01*
G01X4398100Y323686D01*
G01X4568100Y323686D01*
G01X4568100Y323686D01*
G03X4603914Y359500I0J35814D01*
G01X4603914Y359500D01*
G01X4603914Y514883D01*
G02X4639295Y486395I-114277J-178146D01*
G01X4327886Y3289300D02*
G03X4394200Y3222986I66314J0D01*
G03X4460322Y3284254I0J66314D01*
G01X4460322Y3284254D01*
G02X4793608Y3406226I333286J-394362D01*
G01X4793608Y3406226D01*
G01X4976236Y3406226D01*
G03X5021446Y3388426I45210J48514D01*
G03X5087760Y3454740I0J66314D01*
G03X5021446Y3521054I-66314J0D01*
G03X4976236Y3503254I0J-66314D01*
G01X4793608Y3503254D01*
G01X4793608Y3503254D01*
G03X4394463Y3355614I0J-613362D01*
G01X4394463Y3355614D01*
G01X4394200Y3355614D01*
G03X4327886Y3289300I0J-66314D01*
G01X8793650Y310516D02*
G03X8989484Y506350I0J195834D01*
G03X8793650Y702184I-195834J0D01*
G03X8597816Y506350I0J-195834D01*
G03X8793650Y310516I195834J0D01*
G01X8597816Y3506350D02*
G03X8793650Y3310516I195834J0D01*
G03X8989484Y3506350I0J195834D01*
G03X8793650Y3702184I-195834J0D01*
G03X8597816Y3506350I0J-195834D01*
G01X1197816Y3506350D02*
G03X1393650Y3310516I195834J0D01*
G03X1589484Y3506350I0J195834D01*
G03X1393650Y3702184I-195834J0D01*
G03X1197816Y3506350I0J-195834D01*
G01X2593992Y3698215D02*
G03X2598032Y3697986I4040J35585D01*
G01X2598032Y3697986D01*
G01X2717800Y3697986D01*
G01X2717800Y3697986D01*
G03X2721840Y3698215I0J35814D01*
G01X2895600Y3698215D01*
G01X2895600Y3698215D01*
G03X2905785Y3708400I0J10185D01*
G01X2905785Y3708400D01*
G01X2905785Y3860800D01*
G01X2905785Y3860800D01*
G03X2895600Y3870985I-10185J0D01*
G01X2895600Y3870985D01*
G01X2286000Y3870985D01*
G01X2286000Y3870985D01*
G03X2275815Y3860800I0J-10185D01*
G01X2275815Y3860800D01*
G01X2275815Y3708400D01*
G01X2275815Y3708400D01*
G03X2286000Y3698215I10185J0D01*
G01X2286000Y3698215D01*
G01X2593992Y3698215D01*
G01X2536000Y220386D02*
G03X2671814Y356200I0J135814D01*
G01X2671814Y356200D01*
G01X2671814Y431200D01*
G01X2671814Y431200D01*
G03X2536000Y567014I-135814J0D01*
G03X2400186Y431200I0J-135814D01*
G01X2400186Y431200D01*
G01X2400186Y356200D01*
G01X2400186Y356200D01*
G03X2536000Y220386I135814J0D01*
G01X979312Y2681917D02*
G03X1015126Y2717731I0J35814D01*
G01X1015126Y2717731D01*
G01X1015126Y2897731D01*
G01X1015126Y2897731D01*
G03X979312Y2933545I-35814J0D01*
G01X979312Y2933545D01*
G01X799312Y2933545D01*
G01X799312Y2933545D01*
G03X763498Y2897731I0J-35814D01*
G01X763498Y2897731D01*
G01X763498Y2717731D01*
G01X763498Y2717731D01*
G03X799312Y2681917I35814J0D01*
G01X799312Y2681917D01*
G01X979312Y2681917D01*
G01X979312Y2681917D01*
G01X889312Y903917D02*
G03X1015126Y1029731I0J125814D01*
G03X889312Y1155545I-125814J0D01*
G03X763498Y1029731I0J-125814D01*
G03X889312Y903917I125814J0D01*
G01X889312Y1157917D02*
G03X1015126Y1283731I0J125814D01*
G03X889312Y1409545I-125814J0D01*
G03X763498Y1283731I0J-125814D01*
G03X889312Y1157917I125814J0D01*
G01X2368386Y2467700D02*
G03X2404200Y2431886I35814J0D01*
G01X2404200Y2431886D01*
G01X2574200Y2431886D01*
G01X2574200Y2431886D01*
G03X2610014Y2467700I0J35814D01*
G01X2610014Y2467700D01*
G01X2610014Y2637700D01*
G01X2610014Y2637700D01*
G03X2574200Y2673514I-35814J0D01*
G01X2574200Y2673514D01*
G01X2404200Y2673514D01*
G01X2404200Y2673514D01*
G03X2368386Y2637700I0J-35814D01*
G01X2368386Y2637700D01*
G01X2368386Y2467700D01*
G01X2368386Y2467700D01*
G01X5595692Y318460D02*
G03X5631506Y354274I0J35814D01*
G01X5631506Y354274D01*
G01X5631506Y524274D01*
G01X5631506Y524274D01*
G03X5595692Y560088I-35814J0D01*
G01X5595692Y560088D01*
G01X5425693Y560088D01*
G01X5425693Y560088D01*
G03X5389879Y524274I0J-35814D01*
G01X5389879Y524274D01*
G01X5389879Y354274D01*
G01X5389879Y354274D01*
G03X5425693Y318460I35814J0D01*
G01X5425693Y318460D01*
G01X5595692Y318460D01*
G01X5595692Y318460D01*
G01X4229100Y323686D02*
G03X4349914Y444500I0J120814D01*
G03X4229100Y565314I-120814J0D01*
G03X4108286Y444500I0J-120814D01*
G03X4229100Y323686I120814J0D01*
G01X6151879Y439274D02*
G03X6272693Y318460I120814J0D01*
G03X6393506Y439274I0J120814D01*
G03X6272693Y560088I-120814J0D01*
G03X6151879Y439274I0J-120814D01*
G01X459897Y2126485D02*
G03X495711Y2090671I35814J0D01*
G01X495711Y2090671D01*
G01X655711Y2090671D01*
G01X655711Y2090671D01*
G03X691525Y2126485I0J35814D01*
G01X691525Y2126485D01*
G01X691525Y2296485D01*
G01X691525Y2296485D01*
G03X655711Y2332299I-35814J0D01*
G01X655711Y2332299D01*
G01X495711Y2332299D01*
G01X495711Y2332299D01*
G03X459897Y2296485I0J-35814D01*
G01X459897Y2296485D01*
G01X459897Y2126485D01*
G01X459897Y2126485D01*
G01X205897Y1703485D02*
G03X321711Y1587671I115814J0D01*
G03X437525Y1703485I0J115814D01*
G03X321711Y1819299I-115814J0D01*
G03X205897Y1703485I0J-115814D01*
G01X459897Y1957485D02*
G03X575711Y1841671I115814J0D01*
G03X691525Y1957485I0J115814D01*
G03X575711Y2073299I-115814J0D01*
G03X459897Y1957485I0J-115814D01*
G01X575711Y1587671D02*
G03X691525Y1703485I0J115814D01*
G03X575711Y1819299I-115814J0D01*
G03X459897Y1703485I0J-115814D01*
G03X575711Y1587671I115814J0D01*
G01X321711Y1841671D02*
G03X437525Y1957485I0J115814D01*
G03X321711Y2073299I-115814J0D01*
G03X205897Y1957485I0J-115814D01*
G03X321711Y1841671I115814J0D01*
G01X321711Y2095671D02*
G03X437525Y2211485I0J115814D01*
G03X321711Y2327299I-115814J0D01*
G03X205897Y2211485I0J-115814D01*
G03X321711Y2095671I115814J0D01*
G01X8178546Y2540000D02*
G03X8293100Y2425446I114554J0D01*
G03X8407654Y2540000I0J114554D01*
G03X8293100Y2654554I-114554J0D01*
G03X8178546Y2540000I0J-114554D01*
G01X7924546Y2540000D02*
G03X8039100Y2425446I114554J0D01*
G03X8153654Y2540000I0J114554D01*
G03X8039100Y2654554I-114554J0D01*
G03X7924546Y2540000I0J-114554D01*
G01X8547100Y2425446D02*
G03X8661654Y2540000I0J114554D01*
G03X8547100Y2654554I-114554J0D01*
G03X8432546Y2540000I0J-114554D01*
G03X8547100Y2425446I114554J0D01*
G01X7863840Y2425446D02*
G03X7899654Y2461260I0J35814D01*
G01X7899654Y2461260D01*
G01X7899654Y2618740D01*
G01X7899654Y2618740D01*
G03X7863840Y2654554I-35814J0D01*
G01X7863840Y2654554D01*
G01X7706360Y2654554D01*
G01X7706360Y2654554D01*
G03X7670546Y2618740I0J-35814D01*
G01X7670546Y2618740D01*
G01X7670546Y2461260D01*
G01X7670546Y2461260D01*
G03X7706360Y2425446I35814J0D01*
G01X7706360Y2425446D01*
G01X7863840Y2425446D01*
G01X7863840Y2425446D01*
G01X6044946Y2540000D02*
G03X6159500Y2425446I114554J0D01*
G03X6274054Y2540000I0J114554D01*
G03X6159500Y2654554I-114554J0D01*
G03X6044946Y2540000I0J-114554D01*
G01X8686546Y2540000D02*
G03X8801100Y2425446I114554J0D01*
G03X8915654Y2540000I0J114554D01*
G03X8801100Y2654554I-114554J0D01*
G03X8686546Y2540000I0J-114554D01*
G01X6413500Y2425446D02*
G03X6528054Y2540000I0J114554D01*
G03X6413500Y2654554I-114554J0D01*
G03X6298946Y2540000I0J-114554D01*
G03X6413500Y2425446I114554J0D01*
G01X4927346Y965200D02*
G03X5041900Y850646I114554J0D01*
G03X5156454Y965200I0J114554D01*
G03X5041900Y1079754I-114554J0D01*
G03X4927346Y965200I0J-114554D01*
G01X7086346Y1498600D02*
G03X7200900Y1384046I114554J0D01*
G03X7315454Y1498600I0J114554D01*
G03X7200900Y1613154I-114554J0D01*
G03X7086346Y1498600I0J-114554D01*
G01X5511546Y1498600D02*
G03X5626100Y1384046I114554J0D01*
G03X5740654Y1498600I0J114554D01*
G03X5626100Y1613154I-114554J0D01*
G03X5511546Y1498600I0J-114554D01*
G01X5511546Y1752600D02*
G03X5626100Y1638046I114554J0D01*
G03X5740654Y1752600I0J114554D01*
G03X5626100Y1867154I-114554J0D01*
G03X5511546Y1752600I0J-114554D01*
G01X7086346Y1752600D02*
G03X7200900Y1638046I114554J0D01*
G03X7315454Y1752600I0J114554D01*
G03X7200900Y1867154I-114554J0D01*
G03X7086346Y1752600I0J-114554D01*
G01X8965946Y1752600D02*
G03X9080500Y1638046I114554J0D01*
G03X9195054Y1752600I0J114554D01*
G03X9080500Y1867154I-114554J0D01*
G03X8965946Y1752600I0J-114554D01*
G01X5321300Y1384046D02*
G03X5435854Y1498600I0J114554D01*
G03X5321300Y1613154I-114554J0D01*
G03X5206746Y1498600I0J-114554D01*
G03X5321300Y1384046I114554J0D01*
G01X7200900Y1130046D02*
G03X7315454Y1244600I0J114554D01*
G03X7200900Y1359154I-114554J0D01*
G03X7086346Y1244600I0J-114554D01*
G03X7200900Y1130046I114554J0D01*
G01X7505700Y1130046D02*
G03X7620254Y1244600I0J114554D01*
G03X7505700Y1359154I-114554J0D01*
G03X7391146Y1244600I0J-114554D01*
G03X7505700Y1130046I114554J0D01*
G01X5511546Y1244600D02*
G03X5626100Y1130046I114554J0D01*
G03X5740654Y1244600I0J114554D01*
G03X5626100Y1359154I-114554J0D01*
G03X5511546Y1244600I0J-114554D01*
G01X8965946Y1498600D02*
G03X9080500Y1384046I114554J0D01*
G03X9195054Y1498600I0J114554D01*
G03X9080500Y1613154I-114554J0D01*
G03X8965946Y1498600I0J-114554D01*
G01X7505700Y1384046D02*
G03X7620254Y1498600I0J114554D01*
G03X7505700Y1613154I-114554J0D01*
G03X7391146Y1498600I0J-114554D01*
G03X7505700Y1384046I114554J0D01*
G01X7505700Y1638046D02*
G03X7620254Y1752600I0J114554D01*
G03X7505700Y1867154I-114554J0D01*
G03X7391146Y1752600I0J-114554D01*
G03X7505700Y1638046I114554J0D01*
G01X4787900Y850646D02*
G03X4902454Y965200I0J114554D01*
G03X4787900Y1079754I-114554J0D01*
G03X4673346Y965200I0J-114554D01*
G03X4787900Y850646I114554J0D01*
G01X4419346Y965200D02*
G03X4533900Y850646I114554J0D01*
G03X4648454Y965200I0J114554D01*
G03X4533900Y1079754I-114554J0D01*
G03X4419346Y965200I0J-114554D01*
G01X5321300Y1130046D02*
G03X5435854Y1244600I0J114554D01*
G03X5321300Y1359154I-114554J0D01*
G03X5206746Y1244600I0J-114554D01*
G03X5321300Y1130046I114554J0D01*
G01X4165346Y965200D02*
G03X4279900Y850646I114554J0D01*
G03X4394454Y965200I0J114554D01*
G03X4279900Y1079754I-114554J0D01*
G03X4165346Y965200I0J-114554D01*
G01X8965946Y1244600D02*
G03X9080500Y1130046I114554J0D01*
G03X9195054Y1244600I0J114554D01*
G03X9080500Y1359154I-114554J0D01*
G03X8965946Y1244600I0J-114554D01*
G01X2941095Y658114D02*
G01X2728214Y870995D01*
G01X2728214Y983490D01*
G03X2746014Y1028700I-48514J45210D01*
G03X2684476Y1094842I-66314J0D01*
G01X2859580Y1269946D01*
G03X2914820Y1223625I128320J96929D01*
G03X2827086Y1080375I73079J-143250D01*
G01X2827086Y1080375D01*
G01X2827086Y880375D01*
G01X2827086Y880375D01*
G03X2987900Y719561I160814J0D01*
G03X3148714Y880375I0J160814D01*
G01X3148714Y880375D01*
G01X3148714Y1080375D01*
G01X3148714Y1080375D01*
G03X3060979Y1223625I-160814J0D01*
G03X3148714Y1366875I-73079J143250D01*
G01X3148714Y1366875D01*
G01X3148714Y1566875D01*
G01X3148714Y1566875D01*
G03X3132168Y1637923I-160814J0D01*
G01X3559795Y1210295D01*
G01X3559795Y1210295D01*
G03X3594100Y1196086I34305J34305D01*
G01X3594100Y1196086D01*
G01X3642726Y1196086D01*
G03X3746500Y1130046I103774J48514D01*
G03X3861054Y1244600I0J114554D01*
G03X3746500Y1359154I-114554J0D01*
G03X3642726Y1293114I0J-114554D01*
G01X3614195Y1293114D01*
G01X3246223Y1661086D01*
G01X3515405Y1661086D01*
G01X3638816Y1537675D01*
G03X3631946Y1498600I107684J-39075D01*
G03X3746500Y1384046I114554J0D01*
G03X3861054Y1498600I0J114554D01*
G03X3746500Y1613154I-114554J0D01*
G03X3707425Y1606284I0J-114554D01*
G01X3609623Y1704086D01*
G01X3642726Y1704086D01*
G03X3746500Y1638046I103774J48514D01*
G03X3861054Y1752600I0J114554D01*
G03X3746500Y1867154I-114554J0D01*
G03X3642726Y1801114I0J-114554D01*
G01X3303481Y1801114D01*
G03X3310905Y1807195I-26881J40386D01*
G01X3310905Y1807195D01*
G01X3461795Y1958086D01*
G01X3642726Y1958086D01*
G03X3746500Y1892046I103774J48514D01*
G03X3861054Y2006600I0J114554D01*
G03X3746500Y2121154I-114554J0D01*
G03X3713045Y2116160I0J-114554D01*
G02X3689798Y2146046I751799J608784D01*
G01X3825240Y2146046D01*
G01X3825240Y2146046D01*
G03X3861054Y2181860I0J35814D01*
G01X3861054Y2181860D01*
G01X3861054Y2309931D01*
G03X3909421Y2300986I48367J126290D01*
G01X3909421Y2300986D01*
G01X4679190Y2300986D01*
G03X4724400Y2283186I45210J48514D01*
G03X4790714Y2349500I0J66314D01*
G03X4788999Y2364486I-66314J0D01*
G01X4979676Y2364486D01*
G01X4979676Y2364486D01*
G03X5173321Y2422530I0J352038D01*
G01X5155638Y2404847D01*
G01X5155638Y2404847D01*
G03X5069586Y2197100I207747J-207747D01*
G01X5069586Y2197100D01*
G03X5211862Y1797941I631064J0D01*
G03X3985782Y1247924I109438J-1885534D01*
G01X3985782Y1247924D01*
G01X3883631Y1145773D01*
G03X3819653Y1079500I2336J-66273D01*
G03X3877615Y1013714I66314J0D01*
G01X3467100Y1013714D01*
G01X3467100Y1013714D01*
G03X3432795Y999505I0J-48514D01*
G01X3432795Y999505D01*
G01X3091405Y658114D01*
G01X2941095Y658114D01*
G01X3911346Y1018235D02*
G01X3911346Y1013714D01*
G01X3894319Y1013714D01*
G03X3911346Y1018235I-8352J65786D01*
G54D11*
G01X1373100Y535875D02*
G01X1373100Y1061783D01*
G01X1373100Y535875D02*
G01X1097192Y535875D01*
G01X1373100Y535875D02*
G01X1649008Y535875D01*
G01X321711Y1703485D02*
G01X321711Y1809393D01*
G01X321711Y1703485D02*
G01X321711Y1597577D01*
G01X321711Y1703485D02*
G01X427619Y1703485D01*
G01X321711Y1703485D02*
G01X215803Y1703485D01*
G01X1295400Y1790700D02*
G01X1295400Y1679792D01*
G01X1295400Y1790700D02*
G01X1406308Y1790700D01*
G01X1295400Y1790700D02*
G01X1184492Y1790700D01*
G01X2536000Y393700D02*
G01X2410092Y393700D01*
G01X2536000Y393700D02*
G01X2661908Y393700D01*
G01X2536000Y393700D02*
G01X2536000Y557108D01*
G01X2536000Y393700D02*
G01X2536000Y230292D01*
G01X2987900Y980375D02*
G01X2836992Y980375D01*
G01X2987900Y980375D02*
G01X3138808Y980375D01*
G01X2987900Y980375D02*
G01X2987900Y729467D01*
G01X889312Y1029731D02*
G01X889312Y1145639D01*
G01X889312Y1029731D02*
G01X889312Y913823D01*
G01X889312Y1029731D02*
G01X1005220Y1029731D01*
G01X889312Y1029731D02*
G01X773404Y1029731D01*
G01X1393650Y1306350D02*
G01X1207722Y1306350D01*
G01X1393650Y1306350D02*
G01X1579578Y1306350D01*
G01X1393650Y1306350D02*
G01X1393650Y1120422D01*
G01X1393650Y3506350D02*
G01X1207722Y3506350D01*
G01X1393650Y3506350D02*
G01X1579578Y3506350D01*
G01X1393650Y3506350D02*
G01X1393650Y3692278D01*
G01X1393650Y3506350D02*
G01X1393650Y3320422D01*
G01X6272693Y439274D02*
G01X6161785Y439274D01*
G01X6272693Y439274D02*
G01X6383600Y439274D01*
G01X6272693Y439274D02*
G01X6272693Y550182D01*
G01X6272693Y439274D02*
G01X6272693Y328366D01*
G01X6921500Y2540000D02*
G01X6816852Y2540000D01*
G01X6921500Y2540000D02*
G01X7026148Y2540000D01*
G01X6921500Y2540000D02*
G01X6921500Y2435352D01*
G01X5041900Y2540000D02*
G01X4937252Y2540000D01*
G01X5041900Y2540000D02*
G01X5041900Y2644648D01*
G01X7683500Y3048000D02*
G01X7578852Y3048000D01*
G01X7683500Y3048000D02*
G01X7788148Y3048000D01*
G01X7683500Y3048000D02*
G01X7683500Y3152648D01*
G01X7683500Y3048000D02*
G01X7683500Y2943352D01*
G01X8793650Y506350D02*
G01X8607722Y506350D01*
G01X8793650Y506350D02*
G01X8979578Y506350D01*
G01X8793650Y506350D02*
G01X8793650Y692278D01*
G01X8793650Y506350D02*
G01X8793650Y320422D01*
G01X8793650Y3506350D02*
G01X8607722Y3506350D01*
G01X8793650Y3506350D02*
G01X8979578Y3506350D01*
G01X8793650Y3506350D02*
G01X8793650Y3692278D01*
G01X8793650Y3506350D02*
G01X8793650Y3320422D01*
G01X8801100Y2540000D02*
G01X8696452Y2540000D01*
G01X8801100Y2540000D02*
G01X8905748Y2540000D01*
G01X8801100Y2540000D02*
G01X8801100Y2644648D01*
G01X8801100Y2540000D02*
G01X8801100Y2435352D01*
G04 Copper End*

G04 Text Start*
G54D12*
G01X3070070Y5257549D02*
G01X3070070Y5201923D01*
G01X3070070Y5257549D02*
G01X3046194Y5257549D01*
G01X3038320Y5255009D01*
G01X3035780Y5252215D01*
G01X3032986Y5247135D01*
G01X3032986Y5241801D01*
G01X3035780Y5236467D01*
G01X3038320Y5233673D01*
G01X3046194Y5231133D01*
G01X3070070Y5231133D02*
G01X3046194Y5231133D01*
G01X3038320Y5228339D01*
G01X3035780Y5225799D01*
G01X3032986Y5220465D01*
G01X3032986Y5212591D01*
G01X3035780Y5207257D01*
G01X3038320Y5204463D01*
G01X3046194Y5201923D01*
G01X3070070Y5201923D01*
G01X2965422Y5244341D02*
G01X2967962Y5249675D01*
G01X2973296Y5255009D01*
G01X2978630Y5257549D01*
G01X2989298Y5257549D01*
G01X2994632Y5255009D01*
G01X2999966Y5249675D01*
G01X3002506Y5244341D01*
G01X3005300Y5236467D01*
G01X3005300Y5223005D01*
G01X3002506Y5215131D01*
G01X2999966Y5209797D01*
G01X2994632Y5204463D01*
G01X2989298Y5201923D01*
G01X2978630Y5201923D01*
G01X2973296Y5204463D01*
G01X2967962Y5209797D01*
G01X2965422Y5215131D01*
G01X2710180Y3815588D02*
G01X2710180Y3759962D01*
G01X2710180Y3815588D02*
G01X2686304Y3815588D01*
G01X2678430Y3813048D01*
G01X2675890Y3810254D01*
G01X2673096Y3805174D01*
G01X2673096Y3799840D01*
G01X2675890Y3794506D01*
G01X2678430Y3791712D01*
G01X2686304Y3789172D01*
G01X2710180Y3789172D02*
G01X2686304Y3789172D01*
G01X2678430Y3786378D01*
G01X2675890Y3783838D01*
G01X2673096Y3778504D01*
G01X2673096Y3770630D01*
G01X2675890Y3765296D01*
G01X2678430Y3762502D01*
G01X2686304Y3759962D01*
G01X2710180Y3759962D01*
G01X2605532Y3802380D02*
G01X2608072Y3807714D01*
G01X2613406Y3813048D01*
G01X2618740Y3815588D01*
G01X2629408Y3815588D01*
G01X2634742Y3813048D01*
G01X2640076Y3807714D01*
G01X2642616Y3802380D01*
G01X2645410Y3794506D01*
G01X2645410Y3781044D01*
G01X2642616Y3773170D01*
G01X2640076Y3767836D01*
G01X2634742Y3762502D01*
G01X2629408Y3759962D01*
G01X2618740Y3759962D01*
G01X2613406Y3762502D01*
G01X2608072Y3767836D01*
G01X2605532Y3773170D01*
G01X4551680Y5517388D02*
G01X4551680Y5461762D01*
G01X4551680Y5517388D02*
G01X4527804Y5517388D01*
G01X4519930Y5514848D01*
G01X4517390Y5512054D01*
G01X4514596Y5506974D01*
G01X4514596Y5501640D01*
G01X4517390Y5496306D01*
G01X4519930Y5493512D01*
G01X4527804Y5490972D01*
G01X4551680Y5490972D02*
G01X4527804Y5490972D01*
G01X4519930Y5488178D01*
G01X4517390Y5485638D01*
G01X4514596Y5480304D01*
G01X4514596Y5472430D01*
G01X4517390Y5467096D01*
G01X4519930Y5464302D01*
G01X4527804Y5461762D01*
G01X4551680Y5461762D01*
G01X4447032Y5504180D02*
G01X4449572Y5509514D01*
G01X4454906Y5514848D01*
G01X4460240Y5517388D01*
G01X4470908Y5517388D01*
G01X4476242Y5514848D01*
G01X4481576Y5509514D01*
G01X4484116Y5504180D01*
G01X4486910Y5496306D01*
G01X4486910Y5482844D01*
G01X4484116Y5474970D01*
G01X4481576Y5469636D01*
G01X4476242Y5464302D01*
G01X4470908Y5461762D01*
G01X4460240Y5461762D01*
G01X4454906Y5464302D01*
G01X4449572Y5469636D01*
G01X4447032Y5474970D01*
G04 Text End*

G04 Pad Start*
G54D13*
G01X1295400Y2552700D03*
G54D14*
G01X1295400Y2298700D03*
G01X1295400Y2044700D03*
G01X1295400Y1790700D03*
G54D15*
G01X2489200Y2552700D03*
G54D14*
G01X2489200Y2298700D03*
G01X2489200Y2044700D03*
G01X2489200Y1790700D03*
G54D16*
G01X2036000Y393700D03*
G01X2536000Y393700D03*
G54D18*
G01X5510693Y439274D03*
G54D14*
G01X5764693Y439274D03*
G01X6018693Y439274D03*
G01X6272693Y439274D03*
G54D19*
G01X4483100Y444500D03*
G54D14*
G01X4229100Y444500D03*
G54D20*
G01X575711Y2211485D03*
G54D21*
G01X321711Y2211485D03*
G01X575711Y1957485D03*
G01X321711Y1957485D03*
G01X575711Y1703485D03*
G01X321711Y1703485D03*
G54D22*
G01X8653812Y5413618D03*
G01X8658425Y4384918D03*
G54D23*
G01X3746500Y1244600D03*
G01X3746500Y1498600D03*
G01X3746500Y1752600D03*
G01X3746500Y2006600D03*
G54D24*
G01X3746500Y2260600D03*
G54D23*
G01X5041900Y965200D03*
G01X4787900Y965200D03*
G01X4533900Y965200D03*
G01X4279900Y965200D03*
G54D25*
G01X4025900Y965200D03*
G54D23*
G01X5041900Y2540000D03*
G01X4787900Y2540000D03*
G01X4533900Y2540000D03*
G01X4279900Y2540000D03*
G54D25*
G01X4025900Y2540000D03*
G54D23*
G01X5321300Y1244600D03*
G01X5321300Y1498600D03*
G01X5321300Y1752600D03*
G01X5321300Y2006600D03*
G54D26*
G01X5321300Y2260600D03*
G54D23*
G01X5626100Y1244600D03*
G01X5626100Y1498600D03*
G01X5626100Y1752600D03*
G01X5626100Y2006600D03*
G54D26*
G01X5626100Y2260600D03*
G54D23*
G01X6921500Y965200D03*
G01X6667500Y965200D03*
G01X6413500Y965200D03*
G01X6159500Y965200D03*
G54D25*
G01X5905500Y965200D03*
G54D23*
G01X6921500Y2540000D03*
G01X6667500Y2540000D03*
G01X6413500Y2540000D03*
G01X6159500Y2540000D03*
G54D25*
G01X5905500Y2540000D03*
G54D23*
G01X7200900Y1244600D03*
G01X7200900Y1498600D03*
G01X7200900Y1752600D03*
G01X7200900Y2006600D03*
G54D26*
G01X7200900Y2260600D03*
G54D23*
G01X7505700Y1244600D03*
G01X7505700Y1498600D03*
G01X7505700Y1752600D03*
G01X7505700Y2006600D03*
G54D26*
G01X7505700Y2260600D03*
G54D23*
G01X8801100Y965200D03*
G01X8547100Y965200D03*
G01X8293100Y965200D03*
G01X8039100Y965200D03*
G54D25*
G01X7785100Y965200D03*
G54D23*
G01X8801100Y2540000D03*
G01X8547100Y2540000D03*
G01X8293100Y2540000D03*
G01X8039100Y2540000D03*
G54D25*
G01X7785100Y2540000D03*
G54D23*
G01X9080500Y1244600D03*
G01X9080500Y1498600D03*
G01X9080500Y1752600D03*
G01X9080500Y2006600D03*
G54D26*
G01X9080500Y2260600D03*
G54D23*
G01X7683500Y3048000D03*
G01X7429500Y3048000D03*
G01X7175500Y3048000D03*
G01X6921500Y3048000D03*
G54D25*
G01X6667500Y3048000D03*
G54D23*
G01X9131300Y5415157D03*
G01X9131300Y5161157D03*
G01X9131300Y4907157D03*
G01X9131300Y4653157D03*
G54D27*
G01X9131300Y4399157D03*
G54D28*
G01X889312Y2807731D03*
G54D29*
G01X889312Y2553731D03*
G01X889312Y2299731D03*
G01X889312Y2045731D03*
G01X889312Y1791731D03*
G01X889312Y1537731D03*
G01X889312Y1283731D03*
G01X889312Y1029731D03*
G54D30*
G01X2987900Y1466875D03*
G01X2987900Y980375D03*
G54D31*
G01X395200Y539775D03*
G01X1373100Y535875D03*
G54D32*
G01X1393650Y3506350D03*
G01X8793650Y3506350D03*
G01X1393650Y1306350D03*
G01X8793650Y506350D03*
G01X5594350Y5340350D03*
G54D33*
G01X190500Y4292600D03*
G54D29*
G01X444500Y4292600D03*
G01X698500Y4292600D03*
G01X952500Y4292600D03*
G01X1206500Y4292600D03*
G01X1460500Y4292600D03*
G01X1714500Y4292600D03*
G01X1968500Y4292600D03*
G54D33*
G01X190500Y5410200D03*
G54D29*
G01X444500Y5410200D03*
G01X698500Y5410200D03*
G01X952500Y5410200D03*
G01X1206500Y5410200D03*
G01X1460500Y5410200D03*
G01X1714500Y5410200D03*
G01X1968500Y5410200D03*
G54D19*
G01X3611090Y4261361D03*
G54D14*
G01X3357090Y4261361D03*
G01X3103090Y4261361D03*
G01X2849090Y4261361D03*
G01X2595090Y4261361D03*
G54D34*
G01X2692249Y5618701D03*
G01X3193600Y5580601D03*
G01X3197150Y5779101D03*
G01X3592100Y5677501D03*
G04 Pad End*

G04 Via Start*
G54D35*
G01X3251200Y1905000D03*
G01X3835400Y2984500D03*
G01X5194300Y2501900D03*
G01X3581400Y2692400D03*
G01X3885967Y1079500D03*
G01X5422900Y2743200D03*
G01X2438400Y1384300D03*
G01X1130300Y1663700D03*
G01X3073400Y2095500D03*
G01X2476500Y1498600D03*
G01X431800Y2870200D03*
G01X6159500Y2908300D03*
G01X6527800Y2692400D03*
G01X7264400Y2692400D03*
G01X4960522Y493846D03*
G01X5359400Y673100D03*
G01X4394200Y3149600D03*
G01X7302500Y2933700D03*
G01X4724400Y2349500D03*
G01X3619500Y2400300D03*
G01X5021446Y3454740D03*
G01X4394200Y3289300D03*
G01X6527800Y1168400D03*
G01X4406900Y596900D03*
G01X5791200Y609600D03*
G01X5232400Y635000D03*
G01X2019300Y1295400D03*
G01X3848100Y1879600D03*
G01X5473700Y1879600D03*
G01X5226972Y1092599D03*
G01X4660900Y1054100D03*
G01X4411322Y1054100D03*
G01X6705600Y1117600D03*
G01X3827935Y2128756D03*
G01X5245100Y1384300D03*
G01X5753100Y2060840D03*
G01X6489700Y1244600D03*
G01X7620000Y2070100D03*
G01X4533900Y1752600D03*
G01X6413500Y1752600D03*
G01X8293100Y1752600D03*
G01X2679700Y1028700D03*
G01X2679700Y1422400D03*
G01X2679700Y1651000D03*
G01X2679700Y2120900D03*
G01X395200Y539775D03*
G01X1373100Y535875D03*
G04 Via End*

G04 Track Start*
G54D11*
G01X3251200Y1905000D02*
G01X3251200Y2400300D01*
G01X9080500Y2495737D02*
G01X9080500Y2260600D01*
G01X8134692Y2755900D02*
G01X8820337Y2755900D01*
G01X5321300Y2260600D02*
G01X5607875Y2547175D01*
G01X6019800Y2717800D02*
G01X6124327Y2717800D01*
G01X3885967Y1079500D02*
G01X4020087Y1213620D01*
G01X5324117Y2504717D02*
G01X5189942Y2370542D01*
G01X5288725Y1785175D02*
G01X5321300Y1752600D01*
G01X889312Y2553731D02*
G01X1292911Y2553731D01*
G01X889312Y2299731D02*
G01X1292911Y2299731D01*
G01X889312Y1791731D02*
G01X948826Y1791731D01*
G01X1252942Y1917700D02*
G01X2182595Y1917700D01*
G01X5321300Y2006600D02*
G01X5397500Y2082800D01*
G01X5520142Y2133600D02*
G01X6894295Y2133600D01*
G01X8773895Y2133600D01*
G01X1298284Y2540000D02*
G01X1320800Y2540000D01*
G01X889312Y1537731D02*
G01X2382029Y1537731D01*
G01X6527800Y2692400D02*
G01X7264400Y2692400D01*
G01X6921500Y965200D02*
G01X7369455Y965200D01*
G01X7829363Y774700D02*
G01X8341192Y774700D01*
G01X6667500Y965200D02*
G01X6691998Y989698D01*
G01X6908800Y1079500D02*
G01X7629618Y1079500D01*
G01X7782921Y1143000D02*
G01X8117853Y1143000D01*
G01X4960522Y493846D02*
G01X5353416Y886740D01*
G01X5880100Y1104900D02*
G01X6330234Y1104900D01*
G01X6921500Y965200D02*
G01X6896364Y940064D01*
G01X6527800Y787400D02*
G01X5635345Y787400D01*
G01X889312Y2045731D02*
G01X912905Y2045731D01*
G01X2332442Y2044700D02*
G01X2489200Y2044700D01*
G01X1217021Y2171700D02*
G01X2025837Y2171700D01*
G01X7302500Y3044918D02*
G01X7302500Y2933700D01*
G01X4486182Y3187700D02*
G01X7141758Y3187700D01*
G01X3581400Y2692400D02*
G01X3762017Y2511783D01*
G01X4000500Y2413000D02*
G01X4979676Y2413000D01*
G01X5021446Y3454740D02*
G01X4793608Y3454740D01*
G01X4406900Y596900D02*
G01X4489637Y596900D01*
G01X5317471Y254000D02*
G01X5571402Y254000D01*
G01X2987900Y1466875D02*
G01X2121754Y600730D01*
G01X4724400Y2349500D02*
G01X3909421Y2349500D01*
G01X3786779Y2400300D02*
G01X3619500Y2400300D01*
G01X3746500Y1752600D02*
G01X3213100Y1752600D01*
G01X3098800Y1866900D01*
G01X2819400Y1866900D01*
G01X2628900Y2057400D01*
G01X2501900Y2057400D01*
G01X2489200Y2044700D01*
G01X3746500Y1498600D02*
G01X3535500Y1709600D01*
G01X3195289Y1709600D01*
G01X3119194Y1785694D01*
G01X2494206Y1785694D02*
G01X2489200Y1790700D01*
G01X3119194Y1785694D02*
G01X2506335Y1785694D01*
G01X2494206Y1785694D01*
G01X3746500Y1244600D02*
G01X3594100Y1244600D01*
G01X3098800Y1739900D01*
G01X1206500Y1587500D02*
G01X1130300Y1663700D01*
G01X3746500Y2006600D02*
G01X3441700Y2006600D01*
G01X3276600Y1841500D02*
G01X3213100Y1841500D01*
G01X3073400Y1981200D02*
G01X3073400Y2095500D01*
G01X3441700Y2006600D02*
G01X3276600Y1841500D01*
G01X3213100Y1841500D02*
G01X3073400Y1981200D01*
G01X3098800Y1739900D02*
G01X2667000Y1739900D01*
G01X2514600Y1587500D01*
G01X1206500Y1587500D01*
G01X4025900Y965200D02*
G01X3467100Y965200D01*
G01X3111500Y609600D01*
G01X2921000Y609600D01*
G01X2679700Y850900D01*
G01X2679700Y1028700D01*
G01X2679700Y1422400D02*
G01X2679700Y1651000D01*
G01X2679700Y2120900D02*
G01X2628900Y2171700D01*
G01X2324100Y2171700D01*
G01X1943100Y2552700D01*
G01X1298284Y2552700D01*
G01X6527800Y1168400D02*
G01X6670317Y1310917D01*
G01X6858902Y1766202D02*
G01X7027458Y1934758D01*
G01X3251200Y2400300D02*
G02X3835400Y2984500I584200J0D01*
G01X7429500Y3048000D02*
G03X8134692Y2755900I705192J705192D01*
G01X8820337Y2755900D02*
G02X9004300Y2679700I0J-260163D01*
G01X9004300Y2679700D02*
G02X9080500Y2495737I-183963J-183963D01*
G01X5607875Y2547175D02*
G02X6019800Y2717800I411925J-411925D01*
G01X6124327Y2717800D02*
G03X6921500Y3048000I0J1127373D01*
G01X4020087Y1213620D02*
G02X5321300Y1752600I1301213J-1301213D01*
G01X5422900Y2743200D02*
G02X5324117Y2504717I-337266J0D01*
G01X5189942Y2370542D02*
G03X5118100Y2197100I173442J-173442D01*
G03X5288725Y1785175I582550J0D01*
G01X1292911Y2299731D02*
G02X1320800Y2286000I-6501J-48392D01*
G01X948826Y1791731D02*
G03X1130300Y1866900I0J256643D01*
G02X1252942Y1917700I122642J-122642D01*
G01X5397500Y2082800D02*
G02X5520142Y2133600I122642J-122642D01*
G01X6894295Y2133600D02*
G02X7200900Y2006600I0J-433605D01*
G01X8773895Y2133600D02*
G02X9080500Y2006600I0J-433605D01*
G01X1292911Y2553731D02*
G02X1298284Y2552700I-6500J-48391D01*
G02X1320800Y2540000I-11874J-47361D01*
G01X2382029Y1537731D02*
G02X2476500Y1498600I0J-133602D01*
G01X3746500Y2006600D02*
G02X3479800Y2476500I718344J718344D01*
G01X3479800Y2476500D02*
G02X3505200Y2768600I433863J109427D01*
G02X3606800Y2857500I147357J-65901D01*
G02X3746500Y2882900I187479J-634260D01*
G01X3746500Y2882900D02*
G02X6159500Y2908300I1411814J-19492158D01*
G01X7369455Y965200D02*
G02X7645400Y850900I0J-390245D01*
G03X7829363Y774700I183963J183963D01*
G01X8341192Y774700D02*
G03X8801100Y965200I0J650408D01*
G01X6691998Y989698D02*
G02X6908800Y1079500I216802J-216802D01*
G01X7629618Y1079500D02*
G03X7721600Y1117600I0J130082D01*
G01X7721600Y1117600D02*
G02X7782921Y1143000I61321J-61321D01*
G01X8117853Y1143000D02*
G02X8547100Y965200I0J-607047D01*
G01X5353416Y886740D02*
G02X5880100Y1104900I526684J-526684D01*
G01X6330234Y1104900D02*
G02X6667500Y965200I0J-476965D01*
G01X6896364Y940064D02*
G02X6527800Y787400I-368564J368564D01*
G01X5635345Y787400D02*
G03X5359400Y673100I0J-390245D01*
G01X912905Y2045731D02*
G03X1155700Y2146300I-0J343364D01*
G02X1217021Y2171700I61321J-61321D01*
G01X2025837Y2171700D02*
G02X2209800Y2095500I0J-260163D01*
G01X2209800Y2095500D02*
G03X2332442Y2044700I122642J122642D01*
G01X4394200Y3149600D02*
G02X4486182Y3187700I91982J-91982D01*
G01X7141758Y3187700D02*
G02X7264400Y3136900I0J-173442D01*
G01X7264400Y3136900D02*
G02X7302500Y3044918I-91982J-91982D01*
G01X3762017Y2511783D02*
G03X4000500Y2413000I238483J238483D01*
G01X4979676Y2413000D02*
G03X5194300Y2501900I0J303524D01*
G01X4793608Y3454740D02*
G03X4394200Y3289300I0J-564848D01*
G01X4489637Y596900D02*
G02X4673600Y520700I0J-260163D01*
G01X4673600Y520700D02*
G03X5317471Y254000I643871J643871D01*
G01X5571402Y254000D02*
G03X6018693Y439274I-0J632564D01*
G01X2121754Y600730D02*
G03X2036000Y393700I207030J-207030D01*
G01X3909421Y2349500D02*
G02X3848100Y2374900I0J86721D01*
G03X3786779Y2400300I-61321J-61321D01*
G01X2182595Y1917700D02*
G02X2500755Y1790700I-18167J-507539D01*
G01X2506335Y1785694D01*
G01X6670317Y1310917D02*
G03X6769100Y1549400I-238483J238483D01*
G01X6769100Y1549400D02*
G02X6858902Y1766202I306605J0D01*
G01X7027458Y1934758D02*
G02X7200900Y2006600I173442J-173442D01*
G04 Track End*

M02*

