G04 Layer: BoardOutlineLayer*
G04 EasyEDA Pro v2.2.28.1, 2024-09-17 23:40:12*
G04 Gerber Generator version 0.3*
G04 Scale: 100 percent, Rotated: No, Reflected: No*
G04 Dimensions in millimeters*
G04 Leading zeros omitted, absolute positions, 3 integers and 5 decimals*
%FSLAX35Y35*%
%MOMM*%
%ADD10C,0.254*%
%ADD11C,0.0254*%
G75*


G04 PolygonModel Start*
G54D10*
G01X9283700Y0D02*
G01X9283700Y3933150D01*
G01X8244702Y3933150D01*
G01X8244702Y4152900D01*
G01X9296400Y4152900D01*
G01X9296400Y5664200D01*
G01X4051300Y5664200D01*
G01X4051300Y5451934D01*
G01X3822700Y5451934D01*
G01X3822700Y5302250D01*
G01X3598841Y5302250D01*
G01X3598841Y5461000D01*
G01X3670300Y5461000D01*
G01X3759200Y5549900D01*
G01X3759200Y5778500D01*
G01X3644900Y5892800D01*
G01X2565400Y5892800D01*
G01X2565400Y5302250D01*
G01X2171700Y5302250D01*
G01X2171700Y5575300D01*
G01X0Y5575300D01*
G01X0Y4140200D01*
G01X571500Y4140200D01*
G01X571500Y3911600D01*
G01X0Y3911600D01*
G01X0Y0D01*
G01X9283700Y0D01*
G54D11*
G01X6806359Y3911600D02*
G01X6806359Y4152059D01*
G01X6807200Y4152900D01*
G01X4051300Y4152900D01*
G01X4051300Y4396027D01*
G01X3816350Y4396027D01*
G01X3816350Y4057650D01*
G01X3810000Y4051300D01*
G01X3619500Y4051300D01*
G01X3619500Y3911600D01*
G01X6806359Y3911600D01*
G01X1615260Y3911600D02*
G01X1615260Y4140200D01*
G01X2159000Y4140200D01*
G01X2159000Y4229100D01*
G01X2330450Y4229100D01*
G01X2330450Y4057650D01*
G01X2555421Y4057650D01*
G01X2555421Y3911600D01*
G01X1615260Y3911600D01*

G04 Rect Start*
G01X6896100Y4039800D02*
G02X6971100Y4114800I75000J0D01*
G02X7046100Y4039800I0J-75000D01*
G02X6971100Y3964800I-75000J0D01*
G02X6896100Y4039800I0J75000D01*
G01X7164604Y4039800D02*
G02X7239604Y4114800I75000J0D01*
G02X7314604Y4039800I0J-75000D01*
G02X7239604Y3964800I-75000J0D01*
G02X7164604Y4039800I0J75000D01*
G01X7424052Y4039800D02*
G02X7499052Y4114800I75000J0D01*
G02X7574052Y4039800I0J-75000D01*
G02X7499052Y3964800I-75000J0D01*
G02X7424052Y4039800I0J75000D01*
G01X7692556Y4039800D02*
G02X7767556Y4114800I75000J0D01*
G02X7842556Y4039800I0J-75000D01*
G02X7767556Y3964800I-75000J0D01*
G02X7692556Y4039800I0J75000D01*
G01X7951800Y4038200D02*
G02X8026800Y4113200I75000J0D01*
G02X8101800Y4038200I0J-75000D01*
G02X8026800Y3963200I-75000J0D01*
G02X7951800Y4038200I0J75000D01*
G01X3936600Y4502550D02*
G02X3886600Y4552550I0J50000D01*
G02X3936600Y4602550I50000J0D01*
G01X3936600Y4602550D01*
G02X3986600Y4552550I0J-50000D01*
G02X3936600Y4502550I-50000J0D01*
G01X3936600Y4694854D02*
G02X3886600Y4744854I0J50000D01*
G02X3936600Y4794854I50000J0D01*
G02X3986600Y4744854I0J-50000D01*
G02X3936600Y4694854I-50000J0D01*
G01X3936600Y4878102D02*
G02X3886600Y4928102I0J50000D01*
G02X3936600Y4978102I50000J0D01*
G02X3986600Y4928102I0J-50000D01*
G02X3936600Y4878102I-50000J0D01*
G01X3936600Y5070406D02*
G02X3886600Y5120406I0J50000D01*
G02X3936600Y5170406I50000J0D01*
G02X3986600Y5120406I0J-50000D01*
G02X3936600Y5070406I-50000J0D01*
G01X3938200Y5253450D02*
G02X3888200Y5303450I0J50000D01*
G02X3938200Y5353450I50000J0D01*
G02X3988200Y5303450I0J-50000D01*
G02X3938200Y5253450I-50000J0D01*
G01X3306546Y5396700D02*
G02X3256546Y5346700I-50000J0D01*
G02X3206546Y5396700I0J50000D01*
G02X3256546Y5446700I50000J0D01*
G02X3306546Y5396700I0J-50000D01*
G01X3135998Y5396700D02*
G02X3085998Y5346700I-50000J0D01*
G02X3035998Y5396700I0J50000D01*
G02X3085998Y5446700I50000J0D01*
G02X3135998Y5396700I0J-50000D01*
G01X2956394Y5396700D02*
G02X2906394Y5346700I-50000J0D01*
G02X2856394Y5396700I0J50000D01*
G02X2906394Y5446700I50000J0D01*
G02X2956394Y5396700I0J-50000D01*
G01X2760650Y5398300D02*
G02X2710650Y5348300I-50000J0D01*
G02X2660650Y5398300I0J50000D01*
G02X2710650Y5448300I50000J0D01*
G02X2760650Y5398300I0J-50000D01*
G01X3486150Y5396700D02*
G02X3436150Y5346700I-50000J0D01*
G02X3386150Y5396700I0J50000D01*
G02X3436150Y5446700I50000J0D01*
G02X3486150Y5396700I0J-50000D01*
G01X3319246Y3986486D02*
G02X3269246Y3936486I-50000J0D01*
G02X3219246Y3986486I0J50000D01*
G02X3269246Y4036486I50000J0D01*
G02X3319246Y3986486I0J-50000D01*
G01X3135998Y3986486D02*
G02X3085998Y3936486I-50000J0D01*
G02X3035998Y3986486I0J50000D01*
G02X3085998Y4036486I50000J0D01*
G02X3135998Y3986486I0J-50000D01*
G01X2943694Y3986486D02*
G02X2893694Y3936486I-50000J0D01*
G02X2843694Y3986486I0J50000D01*
G02X2893694Y4036486I50000J0D01*
G02X2943694Y3986486I0J-50000D01*
G01X2760650Y3988086D02*
G02X2710650Y3938086I-50000J0D01*
G02X2660650Y3988086I0J50000D01*
G02X2710650Y4038086I50000J0D01*
G02X2760650Y3988086I0J-50000D01*
G01X3511550Y3986486D02*
G02X3461550Y3936486I-50000J0D01*
G02X3411550Y3986486I0J50000D01*
G02X3461550Y4036486I50000J0D01*
G02X3511550Y3986486I0J-50000D01*
G01X2247100Y4529354D02*
G02X2197100Y4579354I0J50000D01*
G02X2247100Y4629354I50000J0D01*
G02X2297100Y4579354I0J-50000D01*
G02X2247100Y4529354I-50000J0D01*
G01X2247100Y4712602D02*
G02X2197100Y4762602I0J50000D01*
G02X2247100Y4812602I50000J0D01*
G02X2297100Y4762602I0J-50000D01*
G02X2247100Y4712602I-50000J0D01*
G01X2247100Y4904906D02*
G02X2197100Y4954906I0J50000D01*
G02X2247100Y5004906I50000J0D01*
G01X2247100Y5004906D01*
G02X2297100Y4954906I0J-50000D01*
G02X2247100Y4904906I-50000J0D01*
G01X2248700Y5087950D02*
G02X2198700Y5137950I0J50000D01*
G02X2248700Y5187950I50000J0D01*
G01X2248700Y5187950D01*
G02X2298700Y5137950I0J-50000D01*
G02X2248700Y5087950I-50000J0D01*
G01X2247100Y4337050D02*
G02X2197100Y4387050I0J50000D01*
G02X2247100Y4437050I50000J0D01*
G02X2297100Y4387050I0J-50000D01*
G02X2247100Y4337050I-50000J0D01*
G01X1338046Y4025100D02*
G02X1288046Y3975100I-50000J0D01*
G02X1238046Y4025100I0J50000D01*
G02X1288046Y4075100I50000J0D01*
G02X1338046Y4025100I0J-50000D01*
G01X1154798Y4025100D02*
G02X1104798Y3975100I-50000J0D01*
G02X1054798Y4025100I0J50000D01*
G02X1104798Y4075100I50000J0D01*
G02X1154798Y4025100I0J-50000D01*
G01X962494Y4025100D02*
G02X912494Y3975100I-50000J0D01*
G02X862494Y4025100I0J50000D01*
G02X912494Y4075100I50000J0D01*
G02X962494Y4025100I0J-50000D01*
G01X779450Y4026700D02*
G02X729450Y3976700I-50000J0D01*
G02X679450Y4026700I0J50000D01*
G02X729450Y4076700I50000J0D01*
G02X779450Y4026700I0J-50000D01*
G01X1504950Y4025100D02*
G02X1454950Y3975100I-50000J0D01*
G02X1404950Y4025100I0J50000D01*
G02X1454950Y4075100I50000J0D01*
G02X1504950Y4025100I0J-50000D01*
G04 Rect End*

M02*

