G04 Layer: TopSolderMaskLayer*
G04 EasyEDA Pro v2.2.28.1, 2024-09-17 23:40:12*
G04 Gerber Generator version 0.3*
G04 Scale: 100 percent, Rotated: No, Reflected: No*
G04 Dimensions in millimeters*
G04 Leading zeros omitted, absolute positions, 3 integers and 5 decimals*
%FSLAX35Y35*%
%MOMM*%
%AMRoundRect*1,1,$1,$2,$3*1,1,$1,$4,$5*1,1,$1,0-$2,0-$3*1,1,$1,0-$4,0-$5*20,1,$1,$2,$3,$4,$5,0*20,1,$1,$4,$5,0-$2,0-$3,0*20,1,$1,0-$2,0-$3,0-$4,0-$5,0*20,1,$1,0-$4,0-$5,$2,$3,0*4,1,4,$2,$3,$4,$5,0-$2,0-$3,0-$4,0-$5,$2,$3,0*%
%ADD10RoundRect,0.08478X0.20861X-0.28362X-0.20861X-0.28362*%
%ADD11RoundRect,0.08478X0.28362X-0.20861X-0.28362X-0.20861*%
%ADD12RoundRect,0.09302X0.62929X0.50429X0.62929X-0.50429*%
%ADD13RoundRect,0.09387X0.69237X0.57013X0.69237X-0.57013*%
%ADD14RoundRect,0.09387X-0.69237X-0.57013X-0.69237X0.57013*%
%ADD15RoundRect,0.09017X0.35571X-0.60571X-0.35571X-0.60571*%
%ADD16RoundRect,0.1016X-0.81306X-0.74556X-0.81306X0.74556*%
%ADD17RoundRect,0.09549X-0.81306X-0.74556X-0.81306X0.74556*%
%ADD18O,2.1466X0.68961*%
%ADD19RoundRect,0.09618X0.85271X0.85271X0.85271X-0.85271*%
%ADD20C,1.8016*%
%ADD21RoundRect,0.09618X0.85271X0.85271X0.85271X-0.85271*%
%ADD22O,2.102X2.852*%
%ADD23RoundRect,0.09387X-0.57013X0.69237X0.57013X0.69237*%
%ADD24RoundRect,0.09387X0.57013X-0.69237X-0.57013X-0.69237*%
%ADD25RoundRect,0.09618X-0.85271X0.85271X0.85271X0.85271*%
%ADD26RoundRect,0.09618X0.85271X-0.85271X-0.85271X-0.85271*%
%ADD27RoundRect,0.09588X0.80286X0.85286X0.80286X-0.85286*%
%ADD28C,1.7016*%
%ADD29RoundRect,0.09164X0.40518X-0.40518X-0.40518X-0.40518*%
%ADD30RoundRect,0.09516X-1.15322X-0.70322X-1.15322X0.70322*%
%ADD31O,4.602X2.602*%
%ADD32RoundRect,0.09495X-0.70833X0.67833X0.70833X0.67833*%
%ADD33RoundRect,0.09495X0.70833X-0.67833X-0.70833X-0.67833*%
%ADD34C,1.6768*%
%ADD35RoundRect,0.09615X0.79032X0.79032X0.79032X-0.79032*%
%ADD36RoundRect,0.09615X-0.79032X0.79032X0.79032X0.79032*%
%ADD37RoundRect,0.09615X0.79032X0.79032X0.79032X-0.79032*%
%ADD38RoundRect,0.09615X-0.79032X-0.79032X-0.79032X0.79032*%
%ADD39RoundRect,0.08449X0.20856X-0.35856X-0.20856X-0.35856*%
%ADD40RoundRect,0.08449X-0.20856X0.35856X0.20856X0.35856*%
%ADD41RoundRect,0.08449X0.35856X0.20856X0.35856X-0.20856*%
%ADD42RoundRect,0.09645X0.90257X0.90257X0.90257X-0.90257*%
%ADD43C,1.9016*%
%ADD44RoundRect,0.08771X-0.27695X-0.40199X-0.27695X0.40199*%
%ADD45RoundRect,0.09495X0.67833X0.70833X0.67833X-0.70833*%
%ADD46RoundRect,0.08692X0.25734X0.47533X0.25734X-0.47533*%
%ADD47RoundRect,0.08449X-0.35856X-0.20856X-0.35856X0.20856*%
%ADD48O,2.602X4.602*%
%ADD49RoundRect,0.1X-2.501X-5.001X-2.501X5.001*%
%ADD50C,3.4036*%
%ADD51RoundRect,0.08906X0.30647X0.54147X0.30647X-0.54147*%
%ADD52RoundRect,0.09645X-0.90257X0.90257X0.90257X0.90257*%
%ADD53R,1.1938X1.8034*%
%ADD54R,0.3302X1.651*%
%ADD55RoundRect,0.17242X-0.69579X-0.47079X-0.69579X0.47079*%
%ADD56R,1.1938X1.8034*%
%ADD57R,0.3302X1.651*%
%ADD58RoundRect,0.17242X-0.47079X0.69579X0.47079X0.69579*%
%ADD59RoundRect,0.08742X0.26935X0.542X0.26935X-0.542*%
%ADD60C,1.626*%
G75*


G04 Pad Start*
G54D10*
G01X4405152Y1945107D03*
G01X4470151Y1945107D03*
G01X4535150Y1945107D03*
G01X4600148Y1945107D03*
G01X4665147Y1945107D03*
G54D11*
G01X4736394Y1882597D03*
G01X4736394Y1817599D03*
G01X4736394Y1752600D03*
G01X4736394Y1687601D03*
G01X4736394Y1622603D03*
G54D10*
G01X4665147Y1560093D03*
G01X4600148Y1560093D03*
G01X4535150Y1560093D03*
G01X4470151Y1560093D03*
G01X4405152Y1560093D03*
G54D11*
G01X4331391Y1622603D03*
G01X4331391Y1687601D03*
G01X4331391Y1752600D03*
G01X4331391Y1817599D03*
G01X4331391Y1882597D03*
G54D10*
G01X6284752Y1945107D03*
G01X6349751Y1945107D03*
G01X6414750Y1945107D03*
G01X6479748Y1945107D03*
G01X6544747Y1945107D03*
G54D11*
G01X6615994Y1882597D03*
G01X6615994Y1817599D03*
G01X6615994Y1752600D03*
G01X6615994Y1687601D03*
G01X6615994Y1622603D03*
G54D10*
G01X6544747Y1560093D03*
G01X6479748Y1560093D03*
G01X6414750Y1560093D03*
G01X6349751Y1560093D03*
G01X6284752Y1560093D03*
G54D11*
G01X6210991Y1622603D03*
G01X6210991Y1687601D03*
G01X6210991Y1752600D03*
G01X6210991Y1817599D03*
G01X6210991Y1882597D03*
G54D10*
G01X8164352Y1945107D03*
G01X8229351Y1945107D03*
G01X8294350Y1945107D03*
G01X8359348Y1945107D03*
G01X8424347Y1945107D03*
G54D11*
G01X8495594Y1882597D03*
G01X8495594Y1817599D03*
G01X8495594Y1752600D03*
G01X8495594Y1687601D03*
G01X8495594Y1622603D03*
G54D10*
G01X8424347Y1560093D03*
G01X8359348Y1560093D03*
G01X8294350Y1560093D03*
G01X8229351Y1560093D03*
G01X8164352Y1560093D03*
G54D11*
G01X8090591Y1622603D03*
G01X8090591Y1687601D03*
G01X8090591Y1752600D03*
G01X8090591Y1817599D03*
G01X8090591Y1882597D03*
G54D12*
G01X4533890Y3018302D03*
G01X4533890Y2798288D03*
G54D13*
G01X5014900Y3035300D03*
G01X5014900Y3235300D03*
G54D14*
G01X4762500Y3275000D03*
G01X4762500Y3075000D03*
G54D15*
G01X6180900Y3779393D03*
G01X5930887Y3779393D03*
G01X5680901Y3779393D03*
G01X6180874Y3129407D03*
G01X5930887Y3129407D03*
G01X5680901Y3129407D03*
G54D12*
G01X5245090Y3018302D03*
G01X5245090Y2798288D03*
G54D17*
G01X8039100Y5063009D03*
G01X8039100Y4764508D03*
G54D18*
G01X1615059Y2362200D03*
G01X1615059Y2235200D03*
G01X1615059Y2108200D03*
G01X1615059Y1981200D03*
G01X2169541Y2362200D03*
G01X2169541Y2235200D03*
G01X2169541Y2108200D03*
G01X2169541Y1981200D03*
G54D19*
G01X1295400Y2552700D03*
G54D20*
G01X1295400Y2298700D03*
G01X1295400Y2044700D03*
G01X1295400Y1790700D03*
G54D21*
G01X2489200Y2552700D03*
G54D20*
G01X2489200Y2298700D03*
G01X2489200Y2044700D03*
G01X2489200Y1790700D03*
G54D22*
G01X2036000Y393700D03*
G01X2536000Y393700D03*
G54D13*
G01X4000500Y2782900D03*
G01X4000500Y2982900D03*
G54D23*
G01X3503600Y2273300D03*
G01X3303600Y2273300D03*
G01X3503600Y2032000D03*
G01X3303600Y2032000D03*
G54D14*
G01X4775200Y735000D03*
G01X4775200Y535000D03*
G54D23*
G01X5649900Y2933700D03*
G01X5449900Y2933700D03*
G54D24*
G01X4332300Y711200D03*
G01X4532300Y711200D03*
G54D13*
G01X2743200Y2300300D03*
G01X2743200Y2500300D03*
G54D23*
G01X2017700Y2667000D03*
G01X1817700Y2667000D03*
G01X6627800Y723900D03*
G01X6427800Y723900D03*
G54D24*
G01X6821500Y723900D03*
G01X7021500Y723900D03*
G01X6923100Y444500D03*
G01X7123100Y444500D03*
G01X5488000Y190500D03*
G01X5688000Y190500D03*
G54D23*
G01X3440100Y2552700D03*
G01X3240100Y2552700D03*
G54D13*
G01X5638800Y789000D03*
G01X5638800Y989000D03*
G54D24*
G01X5945200Y723900D03*
G01X6145200Y723900D03*
G54D23*
G01X7491400Y914400D03*
G01X7291400Y914400D03*
G54D24*
G01X7837500Y711200D03*
G01X8037500Y711200D03*
G54D25*
G01X5510693Y439274D03*
G54D20*
G01X5764693Y439274D03*
G01X6018693Y439274D03*
G01X6272693Y439274D03*
G54D26*
G01X4483100Y444500D03*
G54D20*
G01X4229100Y444500D03*
G54D27*
G01X575711Y2211485D03*
G54D28*
G01X321711Y2211485D03*
G01X575711Y1957485D03*
G01X321711Y1957485D03*
G01X575711Y1703485D03*
G01X321711Y1703485D03*
G54D29*
G01X6159500Y4987103D03*
G01X6159500Y4827210D03*
G54D30*
G01X4267200Y5062195D03*
G01X4267200Y4742205D03*
G54D13*
G01X7748600Y4805557D03*
G01X7748600Y5005556D03*
G01X6705600Y4807157D03*
G01X6705600Y5007157D03*
G54D23*
G01X5395900Y4737100D03*
G01X5195900Y4737100D03*
G54D31*
G01X8653812Y5413618D03*
G01X8658425Y4384918D03*
G54D32*
G01X8621700Y2222500D03*
G01X8421700Y2222500D03*
G01X6869100Y2794000D03*
G01X6669100Y2794000D03*
G01X6742100Y2222500D03*
G01X6542100Y2222500D03*
G01X5014900Y2781300D03*
G01X4814900Y2781300D03*
G54D33*
G01X1676400Y1792300D03*
G01X1876400Y1792300D03*
G54D32*
G01X4862500Y2222500D03*
G01X4662500Y2222500D03*
G01X8748700Y2781300D03*
G01X8548700Y2781300D03*
G54D34*
G01X3746500Y1244600D03*
G01X3746500Y1498600D03*
G01X3746500Y1752600D03*
G01X3746500Y2006600D03*
G54D35*
G01X3746500Y2260600D03*
G54D34*
G01X5041900Y965200D03*
G01X4787900Y965200D03*
G01X4533900Y965200D03*
G01X4279900Y965200D03*
G54D36*
G01X4025900Y965200D03*
G54D34*
G01X5041900Y2540000D03*
G01X4787900Y2540000D03*
G01X4533900Y2540000D03*
G01X4279900Y2540000D03*
G54D36*
G01X4025900Y2540000D03*
G54D34*
G01X5321300Y1244600D03*
G01X5321300Y1498600D03*
G01X5321300Y1752600D03*
G01X5321300Y2006600D03*
G54D37*
G01X5321300Y2260600D03*
G54D34*
G01X5626100Y1244600D03*
G01X5626100Y1498600D03*
G01X5626100Y1752600D03*
G01X5626100Y2006600D03*
G54D37*
G01X5626100Y2260600D03*
G54D34*
G01X6921500Y965200D03*
G01X6667500Y965200D03*
G01X6413500Y965200D03*
G01X6159500Y965200D03*
G54D36*
G01X5905500Y965200D03*
G54D34*
G01X6921500Y2540000D03*
G01X6667500Y2540000D03*
G01X6413500Y2540000D03*
G01X6159500Y2540000D03*
G54D36*
G01X5905500Y2540000D03*
G54D34*
G01X7200900Y1244600D03*
G01X7200900Y1498600D03*
G01X7200900Y1752600D03*
G01X7200900Y2006600D03*
G54D37*
G01X7200900Y2260600D03*
G54D34*
G01X7505700Y1244600D03*
G01X7505700Y1498600D03*
G01X7505700Y1752600D03*
G01X7505700Y2006600D03*
G54D37*
G01X7505700Y2260600D03*
G54D34*
G01X8801100Y965200D03*
G01X8547100Y965200D03*
G01X8293100Y965200D03*
G01X8039100Y965200D03*
G54D36*
G01X7785100Y965200D03*
G54D34*
G01X8801100Y2540000D03*
G01X8547100Y2540000D03*
G01X8293100Y2540000D03*
G01X8039100Y2540000D03*
G54D36*
G01X7785100Y2540000D03*
G54D34*
G01X9080500Y1244600D03*
G01X9080500Y1498600D03*
G01X9080500Y1752600D03*
G01X9080500Y2006600D03*
G54D37*
G01X9080500Y2260600D03*
G54D34*
G01X7683500Y3048000D03*
G01X7429500Y3048000D03*
G01X7175500Y3048000D03*
G01X6921500Y3048000D03*
G54D36*
G01X6667500Y3048000D03*
G54D34*
G01X9131300Y5415157D03*
G01X9131300Y5161157D03*
G01X9131300Y4907157D03*
G01X9131300Y4653157D03*
G54D38*
G01X9131300Y4399157D03*
G54D14*
G01X5617616Y2729602D03*
G01X5617616Y2529603D03*
G54D24*
G01X7291400Y2540000D03*
G01X7491400Y2540000D03*
G54D39*
G01X2331199Y1460500D03*
G01X2266201Y1460500D03*
G54D40*
G01X3104401Y2235200D03*
G01X3169399Y2235200D03*
G54D41*
G01X5130800Y642099D03*
G01X5130800Y577101D03*
G54D42*
G01X889312Y2807731D03*
G54D43*
G01X889312Y2553731D03*
G01X889312Y2299731D03*
G01X889312Y2045731D03*
G01X889312Y1791731D03*
G01X889312Y1537731D03*
G01X889312Y1283731D03*
G01X889312Y1029731D03*
G54D14*
G01X521012Y2679131D03*
G01X521012Y2479131D03*
G54D44*
G01X533712Y2976539D03*
G01X533712Y2867523D03*
G54D45*
G01X305112Y2783931D03*
G01X305112Y2983931D03*
G54D46*
G01X303613Y3162442D03*
G01X433611Y3162442D03*
G01X368612Y3342020D03*
G54D13*
G01X4241800Y3075000D03*
G01X4241800Y3275000D03*
G54D40*
G01X6469901Y266700D03*
G01X6534899Y266700D03*
G54D47*
G01X4914900Y145301D03*
G01X4914900Y210299D03*
G54D23*
G01X6729400Y431800D03*
G01X6529400Y431800D03*
G01X5265011Y185011D03*
G01X5065011Y185011D03*
G54D48*
G01X2987900Y1466875D03*
G01X2987900Y980375D03*
G54D49*
G01X395200Y539775D03*
G01X1373100Y535875D03*
G54D50*
G01X1393650Y3506350D03*
G01X8793650Y3506350D03*
G01X1393650Y1306350D03*
G01X8793650Y506350D03*
G01X5594350Y5340350D03*
G54D51*
G01X222504Y4740593D03*
G01X412496Y4740593D03*
G01X317500Y4987608D03*
G54D23*
G01X417500Y4559300D03*
G01X217500Y4559300D03*
G54D52*
G01X190500Y4292600D03*
G54D43*
G01X444500Y4292600D03*
G01X698500Y4292600D03*
G01X952500Y4292600D03*
G01X1206500Y4292600D03*
G01X1460500Y4292600D03*
G01X1714500Y4292600D03*
G01X1968500Y4292600D03*
G54D52*
G01X190500Y5410200D03*
G54D43*
G01X444500Y5410200D03*
G01X698500Y5410200D03*
G01X952500Y5410200D03*
G01X1206500Y5410200D03*
G01X1460500Y5410200D03*
G01X1714500Y5410200D03*
G01X1968500Y5410200D03*
G54D51*
G01X730504Y4740593D03*
G01X920496Y4740593D03*
G01X825500Y4987608D03*
G54D23*
G01X925500Y4559300D03*
G01X725500Y4559300D03*
G54D51*
G01X1238504Y4740593D03*
G01X1428496Y4740593D03*
G01X1333500Y4987608D03*
G54D23*
G01X1433500Y4559300D03*
G01X1233500Y4559300D03*
G54D51*
G01X1746504Y4740593D03*
G01X1936496Y4740593D03*
G01X1841500Y4987608D03*
G54D23*
G01X1941500Y4559300D03*
G01X1741500Y4559300D03*
G54D24*
G01X217500Y5168900D03*
G01X417500Y5168900D03*
G01X725500Y5168900D03*
G01X925500Y5168900D03*
G01X1220800Y5168900D03*
G01X1420800Y5168900D03*
G01X1754200Y5168900D03*
G01X1954200Y5168900D03*
G54D53*
G01X2913380Y5676900D03*
G54D54*
G01X3022600Y5676900D03*
G54D55*
G01X3390900Y5581900D03*
G01X3390900Y5771900D03*
G54D56*
G01X2547540Y4981740D03*
G54D57*
G01X2438320Y4981740D03*
G54D58*
G01X2830290Y5010661D03*
G01X3020290Y5010661D03*
G54D59*
G01X3413986Y4730462D03*
G01X3318990Y4730462D03*
G01X3223994Y4730462D03*
G01X3223994Y4503460D03*
G01X3413986Y4503460D03*
G54D45*
G01X3014190Y4605862D03*
G01X3014190Y4805861D03*
G54D24*
G01X3320590Y4959861D03*
G01X3520590Y4959861D03*
G54D33*
G01X3345990Y5175761D03*
G01X3545990Y5175761D03*
G54D14*
G01X3611090Y4729661D03*
G01X3611090Y4529662D03*
G54D26*
G01X3611090Y4261361D03*
G54D20*
G01X3357090Y4261361D03*
G01X3103090Y4261361D03*
G01X2849090Y4261361D03*
G01X2595090Y4261361D03*
G54D14*
G01X2798290Y4793161D03*
G01X2798290Y4593162D03*
G54D60*
G01X2692249Y5618701D03*
G01X3193600Y5580601D03*
G01X3197150Y5779101D03*
G01X3592100Y5677501D03*
G36*
G01X3552051Y2468972D02*
G02X3546951Y2474041I0J5100D01*
G01X3546018Y2626441D01*
G01X3546018Y2626472D01*
G02X3551118Y2631572I5100J0D01*
G01X3679051Y2631572D01*
G02X3684151Y2626472I0J-5100D01*
G02X3682658Y2622865I-5100J0D01*
G01X3610064Y2550272D01*
G01X3682658Y2477678D01*
G02X3684151Y2474072I-3606J-3606D01*
G02X3679051Y2468972I-5100J0D01*
G01X3552051Y2468972D01*
G37*
G36*
G01X3804801Y2474072D02*
G02X3799701Y2468972I-5100J0D01*
G01X3736201Y2468972D01*
G02X3732595Y2470465I0J5100D01*
G01X3656395Y2546665D01*
G02X3654901Y2550272I3606J3606D01*
G02X3656395Y2553878I5100J0D01*
G01X3732595Y2630078D01*
G02X3736201Y2631572I3606J-3606D01*
G01X3799701Y2631572D01*
G02X3804801Y2626472I0J-5100D01*
G01X3804801Y2474072D01*
G37*
G36*
G01X5238157Y2445161D02*
G02X5233057Y2450230I0J5100D01*
G01X5232123Y2602630D01*
G01X5232123Y2602662D01*
G02X5237223Y2607762I5100J0D01*
G01X5365157Y2607762D01*
G02X5370257Y2602662I0J-5100D01*
G02X5368763Y2599055I-5100J0D01*
G01X5296169Y2526462D01*
G01X5368763Y2453868D01*
G02X5370257Y2450262I-3606J-3606D01*
G02X5365157Y2445161I-5100J0D01*
G01X5238157Y2445161D01*
G37*
G36*
G01X5490907Y2450262D02*
G02X5485807Y2445161I-5100J0D01*
G01X5422307Y2445161D01*
G02X5418700Y2446655I0J5100D01*
G01X5342500Y2522855D01*
G02X5341007Y2526462I3606J3606D01*
G02X5342500Y2530068I5100J0D01*
G01X5418700Y2606268D01*
G02X5422307Y2607762I3606J-3606D01*
G01X5485807Y2607762D01*
G02X5490907Y2602662I0J-5100D01*
G01X5490907Y2450262D01*
G37*
G36*
G01X7327900Y2649200D02*
G02X7322800Y2654269I0J5100D01*
G01X7321866Y2806669D01*
G01X7321866Y2806700D01*
G02X7326966Y2811800I5100J0D01*
G01X7454900Y2811800D01*
G02X7460000Y2806700I0J-5100D01*
G02X7458506Y2803094I-5100J0D01*
G01X7385913Y2730500D01*
G01X7458506Y2657906D01*
G02X7460000Y2654300I-3606J-3606D01*
G02X7454900Y2649200I-5100J0D01*
G01X7327900Y2649200D01*
G37*
G36*
G01X7580650Y2654300D02*
G02X7575550Y2649200I-5100J0D01*
G01X7512050Y2649200D01*
G02X7508444Y2650694I0J5100D01*
G01X7432244Y2726894D01*
G02X7430750Y2730500I3606J3606D01*
G02X7432244Y2734106I5100J0D01*
G01X7508444Y2810306D01*
G02X7512050Y2811800I3606J-3606D01*
G01X7575550Y2811800D01*
G02X7580650Y2806700I0J-5100D01*
G01X7580650Y2654300D01*
G37*
G36*
G01X228912Y2395297D02*
G02X223812Y2400397I0J5100D01*
G01X223812Y2528331D01*
G02X228912Y2533431I5100J0D01*
G02X232518Y2531937I0J-5100D01*
G01X305112Y2459344D01*
G01X377706Y2531937D01*
G02X381312Y2533431I3606J-3606D01*
G02X386412Y2528331I0J-5100D01*
G01X386412Y2401331D01*
G02X381343Y2396231I-5100J0D01*
G01X228943Y2395297D01*
G01X228912Y2395297D01*
G37*
G36*
G01X305112Y2504181D02*
G02X301506Y2505675I0J5100D01*
G01X225306Y2581875D01*
G02X223812Y2585481I3606J3606D01*
G01X223812Y2648981D01*
G02X228912Y2654081I5100J0D01*
G01X381312Y2654081D01*
G02X386412Y2648981I0J-5100D01*
G01X386412Y2585481D01*
G02X384918Y2581875I-5100J0D01*
G01X308718Y2505675D01*
G02X305112Y2504181I-3606J3606D01*
G37*
G36*
G01X3860800Y629900D02*
G02X3855700Y634969I0J5100D01*
G01X3854766Y787369D01*
G01X3854766Y787400D01*
G02X3859866Y792500I5100J0D01*
G01X3987800Y792500D01*
G02X3992900Y787400I0J-5100D01*
G02X3991406Y783794I-5100J0D01*
G01X3918813Y711200D01*
G01X3991406Y638606D01*
G02X3992900Y635000I-3606J-3606D01*
G02X3987800Y629900I-5100J0D01*
G01X3860800Y629900D01*
G37*
G36*
G01X4113550Y635000D02*
G02X4108450Y629900I-5100J0D01*
G01X4044950Y629900D01*
G02X4041344Y631394I0J5100D01*
G01X3965144Y707594D01*
G02X3963650Y711200I3606J3606D01*
G02X3965144Y714806I5100J0D01*
G01X4041344Y791006D01*
G02X4044950Y792500I3606J-3606D01*
G01X4108450Y792500D01*
G02X4113550Y787400I0J-5100D01*
G01X4113550Y635000D01*
G37*
G36*
G01X4911270Y540114D02*
G02X4906170Y545215I0J5100D01*
G01X4906170Y673148D01*
G02X4911270Y678248I5100J0D01*
G02X4914877Y676755I0J-5100D01*
G01X4987470Y604161D01*
G01X5060064Y676755D01*
G02X5063670Y678248I3606J-3606D01*
G02X5068770Y673148I0J-5100D01*
G01X5068770Y546148D01*
G02X5063702Y541048I-5100J0D01*
G01X4911302Y540115D01*
G01X4911270Y540114D01*
G37*
G36*
G01X4987470Y648998D02*
G02X4983864Y650492I0J5100D01*
G01X4907664Y726692D01*
G02X4906170Y730298I3606J3606D01*
G01X4906170Y793798D01*
G02X4911270Y798898I5100J0D01*
G01X5063670Y798898D01*
G02X5068770Y793798I0J-5100D01*
G01X5068770Y730298D01*
G02X5067277Y726692I-5100J0D01*
G01X4991077Y650492D01*
G02X4987470Y648998I-3606J3606D01*
G37*
G36*
G01X5374221Y855838D02*
G02X5370614Y857332I0J5100D01*
G01X5298021Y929926D01*
G01X5225427Y857332D01*
G02X5221821Y855838I-3606J3606D01*
G02X5216721Y860938I0J5100D01*
G01X5216721Y987938D01*
G02X5221789Y993038I5100J0D01*
G01X5374189Y993972D01*
G01X5374221Y993972D01*
G02X5379321Y988872I0J-5100D01*
G01X5379321Y860938D01*
G02X5374221Y855838I-5100J0D01*
G37*
G36*
G01X5221821Y735188D02*
G02X5216721Y740288I0J5100D01*
G01X5216721Y803788D01*
G02X5218214Y807395I5100J0D01*
G01X5294414Y883595D01*
G02X5298021Y885088I3606J-3606D01*
G02X5301627Y883595I0J-5100D01*
G01X5377827Y807395D01*
G02X5379321Y803788I-3606J-3606D01*
G01X5379321Y740288D01*
G02X5374221Y735188I-5100J0D01*
G01X5221821Y735188D01*
G37*
G36*
G01X4165600Y2699066D02*
G02X4160500Y2704166I0J5100D01*
G01X4160500Y2832100D01*
G02X4165600Y2837200I5100J0D01*
G02X4169206Y2835706I0J-5100D01*
G01X4241800Y2763113D01*
G01X4314394Y2835706D01*
G02X4318000Y2837200I3606J-3606D01*
G02X4323100Y2832100I0J-5100D01*
G01X4323100Y2705100D01*
G02X4318031Y2700000I-5100J0D01*
G01X4165631Y2699066D01*
G01X4165600Y2699066D01*
G37*
G36*
G01X4241800Y2807950D02*
G02X4238194Y2809444I0J5100D01*
G01X4161994Y2885644D01*
G02X4160500Y2889250I3606J3606D01*
G01X4160500Y2952750D01*
G02X4165600Y2957850I5100J0D01*
G01X4318000Y2957850D01*
G02X4323100Y2952750I0J-5100D01*
G01X4323100Y2889250D01*
G02X4321606Y2885644I-5100J0D01*
G01X4245406Y2809444D01*
G02X4241800Y2807950I-3606J3606D01*
G37*
G04 Pad End*

M02*

